SplineFontDB: 3.2
FontName: aiaiai-bold
FullName: aiaiai bold
FamilyName: aiaiai
Weight: Bold
Copyright: 
Version: 001.001
ItalicAngle: 0
UnderlinePosition: -100
UnderlineWidth: 50
Ascent: 800
Descent: 200
InvalidEm: 0
sfntRevision: 0x00010000
LayerCount: 2
Layer: 0 0 "Back" 1
Layer: 1 0 "Fore" 0
XUID: [1021 796 -163880829 5232517]
StyleMap: 0x0020
FSType: 4
OS2Version: 3
OS2_WeightWidthSlopeOnly: 0
OS2_UseTypoMetrics: 0
CreationTime: 1464040505
ModificationTime: 1613865342
PfmFamily: 81
TTFWeight: 700
TTFWidth: 5
LineGap: 63
VLineGap: 0
Panose: 0 0 0 0 0 0 0 0 0 0
OS2TypoAscent: 737
OS2TypoAOffset: 0
OS2TypoDescent: -170
OS2TypoDOffset: 0
OS2TypoLinegap: 63
OS2WinAscent: 1013
OS2WinAOffset: 0
OS2WinDescent: 170
OS2WinDOffset: 0
HheadAscent: 737
HheadAOffset: 0
HheadDescent: -170
HheadDOffset: 0
OS2SubXSize: 700
OS2SubYSize: 650
OS2SubXOff: 0
OS2SubYOff: 140
OS2SupXSize: 700
OS2SupYSize: 650
OS2SupXOff: 0
OS2SupYOff: 477
OS2StrikeYSize: 50
OS2StrikeYPos: 250
OS2CapHeight: 737
OS2XHeight: 566
OS2FamilyClass: 2048
OS2Vendor: 'PYRS'
OS2CodePages: 00000001.00000000
OS2UnicodeRanges: 80000027.00000040.00000000.00000000
Lookup: 258 0 0 "'kern' Horizontal Kerning lookup 0" { "'kern' Horizontal Kerning lookup 0 subtable"  } ['kern' ('DFLT' <'dflt' > ) ]
MarkAttachClasses: 1
DEI: 91125
LangName: 1033 "Copyright (c) 2016 by N+AMgA-stor Jairo Delgado Giraldo. All rights reserved." "" "" "" "" "Version 1.000" "" "cuyabra Bold is a trademark of N+AMgA-stor Jairo Delgado Giraldo." "N+AMgA-stor Jairo Delgado Giraldo" "N+AMgA-stor Jairo Delgado Giraldo" "Copyright (c) 2016 by . All rights reserved." "" "" "" "" "" "" "" "cuyabra Bold"
Encoding: UnicodeBmp
UnicodeInterp: none
NameList: AGL For New Fonts
DisplaySize: -48
AntiAlias: 1
FitToEm: 0
WinInfo: 44 22 5
BeginPrivate: 5
BlueValues 21 [0 0 567 567 737 737]
OtherBlues 11 [-170 -170]
StdHW 5 [113]
StdVW 5 [113]
StemSnapV 9 [113 136]
EndPrivate
BeginChars: 65537 172

StartChar: e
Encoding: 101 101 4
Width: 603
Flags: MW
HStem: 0 113<123 283 170 283> 227 113<113 340 113 397 113 340> 453 114<154.5 283 170 283>
VStem: 0 113<170 227 340 397> 340 113<340 397>
LayerCount: 2
Fore
SplineSet
283 0 m 2
 170 0 l 2
 76 0 0 76 0 170 c 2
 0 397 l 2
 0 491 76 567 170 567 c 2
 283 567 l 2
 377 567 453 491 453 397 c 2
 453 283 l 2
 453 252 428 227 397 227 c 2
 113 227 l 1
 113 170 l 2
 113 139 139 113 170 113 c 2
 283 113 l 2
 309 113 331 131 338 154 c 0
 341 164 350 170 359 170 c 2
 429 170 l 2
 443 170 454 158 452 144 c 0
 439 63 368 0 283 0 c 2
113 340 m 1
 340 340 l 1
 340 397 l 2
 340 428 315 453 283 453 c 2
 170 453 l 2
 139 453 113 428 113 397 c 2
 113 340 l 1
EndSplineSet
EndChar

StartChar: f
Encoding: 102 102 5
Width: 404
Flags: MW
HStem: 0 21G<16.5 23 23 91> 374 114<113 261 113 295> 624 113<154.5 306 170 272>
VStem: 0 113<23 374 488 567>
LayerCount: 2
Fore
SplineSet
170 624 m 2
 139 624 113 598 113 567 c 2
 113 488 l 1
 295 488 l 2
 307 488 317 477 317 465 c 2
 317 431 l 2
 317 400 292 374 261 374 c 2
 113 374 l 1
 113 23 l 2
 113 10 103 0 91 0 c 2
 23 0 l 2
 10 0 0 10 0 23 c 2
 0 567 l 2
 0 661 76 737 170 737 c 2
 306 737 l 2
 319 737 329 727 329 714 c 2
 329 680 l 2
 329 649 303 624 272 624 c 2
 170 624 l 2
EndSplineSet
EndChar

StartChar: g
Encoding: 103 103 6
Width: 603
Flags: MW
HStem: -170 113<95.5 283 136 283 136 283> 34 113<123 340 170 340> 453 114<154.5 431 170 340>
VStem: 0 113<204 397> 340 113<0 34 34 34 147 453 453 453>
LayerCount: 2
Fore
SplineSet
431 567 m 2
 443 567 453 557 453 544 c 2
 453 0 l 2
 453 -94 377 -170 283 -170 c 2
 102 -170 l 2
 89 -170 79 -160 79 -147 c 2
 79 -113 l 2
 79 -82 105 -57 136 -57 c 2
 283 -57 l 2
 315 -57 340 -31 340 0 c 2
 340 34 l 1
 170 34 l 2
 76 34 0 110 0 204 c 2
 0 397 l 2
 0 491 76 567 170 567 c 2
 431 567 l 2
340 147 m 1
 340 453 l 1
 170 453 l 2
 139 453 113 428 113 397 c 2
 113 204 l 2
 113 173 139 147 170 147 c 2
 340 147 l 1
EndSplineSet
EndChar

StartChar: h
Encoding: 104 104 7
Width: 603
Flags: MW
HStem: 0 21G<16.5 23 23 91 356.5 363 363 431> 453 114<113 283 113 283> 717 20G<23 57 57 72.5>
VStem: 0 113<23 453 567 680> 340 113<23 397>
LayerCount: 2
Fore
SplineSet
283 567 m 2
 377 567 453 491 453 397 c 2
 453 23 l 2
 453 10 443 0 431 0 c 2
 363 0 l 2
 350 0 340 10 340 23 c 2
 340 397 l 2
 340 428 315 453 283 453 c 2
 113 453 l 1
 113 23 l 2
 113 10 103 0 91 0 c 2
 23 0 l 2
 10 0 0 10 0 23 c 2
 0 714 l 2
 0 727 10 737 23 737 c 2
 57 737 l 2
 88 737 113 712 113 680 c 2
 113 567 l 1
 283 567 l 2
EndSplineSet
EndChar

StartChar: i
Encoding: 105 105 8
Width: 263
Flags: MW
HStem: 0 21G<16.5 23 23 91> 547 20G<23 91 91 97> 601 113<16.5 57 23 57 57 72.5 23 91>
VStem: 0 113<23 544 624 658>
LayerCount: 2
Fore
SplineSet
91 567 m 2
 103 567 113 557 113 544 c 2
 113 23 l 2
 113 10 103 0 91 0 c 2
 23 0 l 2
 10 0 0 10 0 23 c 2
 0 544 l 2
 0 557 10 567 23 567 c 2
 91 567 l 2
57 714 m 2
 88 714 113 689 113 658 c 2
 113 624 l 2
 113 611 103 601 91 601 c 2
 23 601 l 2
 10 601 0 611 0 624 c 2
 0 692 l 2
 0 704 10 714 23 714 c 2
 57 714 l 2
EndSplineSet
EndChar

StartChar: j
Encoding: 106 106 9
Width: 271
Flags: MW
HStem: -170 113<-123.5 -49 -83 -49 -83 -49> 547 20G<30 98 98 104.5> 601 113<24 64 30 64 64 79.5 30 98>
VStem: 7 114<0 544 624 658>
LayerCount: 2
Fore
SplineSet
98 567 m 2
 111 567 121 557 121 544 c 2
 121 0 l 2
 121 -94 45 -170 -49 -170 c 2
 -117 -170 l 2
 -130 -170 -140 -160 -140 -147 c 2
 -140 -113 l 2
 -140 -82 -115 -57 -83 -57 c 2
 -49 -57 l 2
 -18 -57 7 -31 7 0 c 2
 7 544 l 2
 7 557 18 567 30 567 c 2
 98 567 l 2
64 714 m 2
 95 714 121 689 121 658 c 2
 121 624 l 2
 121 611 111 601 98 601 c 2
 30 601 l 2
 18 601 7 611 7 624 c 2
 7 692 l 2
 7 704 18 714 30 714 c 2
 64 714 l 2
EndSplineSet
EndChar

StartChar: k
Encoding: 107 107 10
Width: 577
Flags: MW
HStem: 0 21G 227 113<113 172 113 177 113 172> 547 20G<362 432 432 441.5> 717 20G<23 57 57 72.5>
VStem: 0 113<23 227 340 680>
LayerCount: 2
Fore
SplineSet
453 0 m 2
 383 0 l 2
 366 0 350 8 339 21 c 2
 177 227 l 1
 113 227 l 1
 113 23 l 2
 113 10 103 0 91 0 c 2
 23 0 l 2
 10 0 0 10 0 23 c 2
 0 714 l 2
 0 727 10 737 23 737 c 2
 57 737 l 2
 88 737 113 712 113 680 c 2
 113 340 l 1
 172 340 l 1
 317 545 l 2
 328 559 345 567 362 567 c 2
 432 567 l 2
 451 567 462 545 450 530 c 2
 276 283 l 1
 471 37 l 2
 483 22 472 0 453 0 c 2
EndSplineSet
EndChar

StartChar: l
Encoding: 108 108 11
Width: 263
Flags: MW
HStem: 0 21G<16.5 23 23 91> 717 20G<23 57 57 72.5>
VStem: 0 113<23 680>
LayerCount: 2
Fore
SplineSet
113 680 m 2
 113 23 l 2
 113 10 103 0 91 0 c 2
 23 0 l 2
 10 0 0 10 0 23 c 2
 0 714 l 2
 0 727 10 737 23 737 c 2
 57 737 l 2
 88 737 113 712 113 680 c 2
EndSplineSet
EndChar

StartChar: m
Encoding: 109 109 12
Width: 944
Flags: MW
HStem: 0 21G<16.5 23 23 91 356.5 363 363 431 363 363 431 431 696.5 703 703 771> 453 114<113 283 113 113 483.5 495 495 624>
VStem: 0 113<23 453> 340 113<23 397 397 412> 680 114<23 397>
LayerCount: 2
Fore
SplineSet
624 567 m 2
 718 567 794 491 794 397 c 2
 794 23 l 2
 794 10 783 0 771 0 c 2
 703 0 l 2
 690 0 680 10 680 23 c 2
 680 397 l 2
 680 428 655 453 624 453 c 2
 495 453 l 2
 472 453 453 435 453 412 c 2
 453 397 l 1
 453 397 453 397 453 397 c 1
 453 23 l 2
 453 10 443 0 431 0 c 1
 431 0 l 1
 363 0 l 1
 363 0 l 1
 350 0 340 10 340 23 c 2
 340 397 l 2
 340 428 315 453 283 453 c 2
 113 453 l 1
 113 23 l 2
 113 10 103 0 91 0 c 2
 23 0 l 2
 10 0 0 10 0 23 c 2
 0 544 l 2
 0 557 10 567 23 567 c 2
 283 567 l 2
 318 567 351 556 378 538 c 1
 398 556 425 567 453 567 c 2
 624 567 l 2
EndSplineSet
EndChar

StartChar: n
Encoding: 110 110 13
Width: 603
Flags: MW
HStem: 0 21G<16.5 23 23 91 356.5 363 363 431> 453 114<113 283 113 113>
VStem: 0 113<23 453> 340 113<23 397>
LayerCount: 2
Fore
SplineSet
431 0 m 2
 363 0 l 2
 350 0 340 10 340 23 c 2
 340 397 l 2
 340 428 315 453 283 453 c 2
 113 453 l 1
 113 23 l 2
 113 10 103 0 91 0 c 2
 23 0 l 2
 10 0 0 10 0 23 c 2
 0 544 l 2
 0 557 10 567 23 567 c 2
 283 567 l 2
 377 567 453 491 453 397 c 2
 453 23 l 2
 453 10 443 0 431 0 c 2
EndSplineSet
EndChar

StartChar: o
Encoding: 111 111 14
Width: 603
Flags: MW
HStem: 0 113<123 283 170 283> 453 114<154.5 283 170 283>
VStem: 0 113<170 397> 340 113<170 397>
LayerCount: 2
Fore
SplineSet
283 0 m 2
 170 0 l 2
 76 0 0 76 0 170 c 2
 0 397 l 2
 0 491 76 567 170 567 c 2
 283 567 l 2
 377 567 453 491 453 397 c 2
 453 170 l 2
 453 76 377 0 283 0 c 2
283 453 m 2
 170 453 l 2
 139 453 113 428 113 397 c 2
 113 170 l 2
 113 139 139 113 170 113 c 2
 283 113 l 2
 315 113 340 139 340 170 c 2
 340 397 l 2
 340 428 315 453 283 453 c 2
EndSplineSet
EndChar

StartChar: p
Encoding: 112 112 15
Width: 603
Flags: MW
HStem: -170 21G<16.5 23 23 57> 0 113<113 283 113 283> 453 114<113 113 113 283>
VStem: 0 113<-129 -113 -113 0 113 453> 340 113<170 397>
LayerCount: 2
Fore
SplineSet
283 567 m 2
 377 567 453 491 453 397 c 2
 453 170 l 2
 453 76 377 0 283 0 c 2
 113 0 l 1
 113 -113 l 2
 113 -145 88 -170 57 -170 c 2
 23 -170 l 2
 10 -170 0 -160 0 -147 c 2
 0 544 l 2
 0 557 10 567 23 567 c 2
 283 567 l 2
113 453 m 1
 113 113 l 1
 283 113 l 2
 315 113 340 139 340 170 c 2
 340 397 l 2
 340 428 315 453 283 453 c 2
 113 453 l 1
EndSplineSet
EndChar

StartChar: q
Encoding: 113 113 16
Width: 603
Flags: MW
HStem: -170 21G<381 397 397 431> 0 113<123 340 170 340> 453 114<154.5 431 170 340>
VStem: 0 113<170 397> 340 113<-113 0 0 0 113 453 453 453>
LayerCount: 2
Fore
SplineSet
170 567 m 2
 431 567 l 2
 443 567 453 557 453 544 c 2
 453 -147 l 2
 453 -160 443 -170 431 -170 c 2
 397 -170 l 2
 365 -170 340 -145 340 -113 c 2
 340 0 l 1
 170 0 l 2
 76 0 0 76 0 170 c 2
 0 397 l 2
 0 491 76 567 170 567 c 2
340 453 m 1
 170 453 l 2
 139 453 113 428 113 397 c 2
 113 170 l 2
 113 139 139 113 170 113 c 2
 340 113 l 1
 340 453 l 1
EndSplineSet
EndChar

StartChar: r
Encoding: 114 114 17
Width: 395
Flags: MW
HStem: 0 21G<16.5 23 23 91> 453 114<154.5 272 170 238>
VStem: 0 113<23 397>
LayerCount: 2
Fore
SplineSet
113 23 m 2
 113 10 103 0 91 0 c 2
 23 0 l 2
 10 0 0 10 0 23 c 2
 0 397 l 2
 0 491 76 567 170 567 c 2
 272 567 l 2
 285 567 295 557 295 544 c 2
 295 510 l 2
 295 479 269 453 238 453 c 2
 170 453 l 2
 139 453 113 428 113 397 c 2
 113 23 l 2
EndSplineSet
EndChar

StartChar: s
Encoding: 115 115 18
Width: 565
Flags: MW
HStem: 0 113<-2.5 264 38 264 38 264> 227 113<104.5 162 153 162 153 162 162 253 253 261 261 263> 453 114<135 365 154 331>
VStem: -19 113<394 394> 321 113
LayerCount: 2
Fore
SplineSet
261 340 m 2
 357 340 436 262 434 167 c 0
 433 75 357 0 264 0 c 2
 4 0 l 2
 -9 0 -19 10 -19 23 c 2
 -19 57 l 2
 -19 88 6 113 38 113 c 2
 264 113 l 2
 297 113 323 140 321 173 c 0
 320 203 293 227 263 227 c 2
 253 227 l 1
 162 227 l 1
 151 227 l 2
 58 227 -17 301 -19 394 c 0
 -21 489 59 567 154 567 c 2
 365 567 l 2
 377 567 388 557 388 544 c 2
 388 510 l 2
 388 479 362 453 331 453 c 2
 151 453 l 2
 119 453 93 426 94 394 c 0
 96 363 122 340 153 340 c 2
 162 340 l 1
 253 340 l 1
 261 340 l 2
EndSplineSet
EndChar

StartChar: t
Encoding: 116 116 19
Width: 415
Flags: MW
HStem: 0 113<123 238 170 238 238 253.5 170 272> 453 114<113 215 215 231 113 249 113 215>
VStem: 0 113<170 453 567 654>
LayerCount: 2
Fore
SplineSet
170 113 m 2
 238 113 l 2
 269 113 295 88 295 57 c 2
 295 23 l 2
 295 10 285 0 272 0 c 2
 170 0 l 2
 76 0 0 76 0 170 c 2
 0 654 l 2
 0 667 10 677 23 677 c 2
 91 677 l 2
 103 677 113 667 113 654 c 2
 113 567 l 1
 215 567 l 2
 247 567 272 541 272 510 c 2
 272 476 l 2
 272 464 262 453 249 453 c 2
 113 453 l 1
 113 170 l 2
 113 139 139 113 170 113 c 2
EndSplineSet
EndChar

StartChar: u
Encoding: 117 117 20
Width: 603
Flags: MW
HStem: 0 113<123 283 170 283> 547 20G<23 57 57 72.5 397 431 431 437>
VStem: 0 113<170 510> 340 113<170 510 510 525.5>
LayerCount: 2
Fore
SplineSet
283 0 m 2
 170 0 l 2
 76 0 0 76 0 170 c 2
 0 544 l 2
 0 557 10 567 23 567 c 2
 57 567 l 2
 88 567 113 541 113 510 c 2
 113 170 l 2
 113 139 139 113 170 113 c 2
 283 113 l 2
 315 113 340 139 340 170 c 2
 340 510 l 2
 340 541 365 567 397 567 c 2
 431 567 l 2
 443 567 453 557 453 544 c 2
 453 170 l 2
 453 76 377 0 283 0 c 2
EndSplineSet
EndChar

StartChar: v
Encoding: 118 118 21
Width: 601
Flags: MW
HStem: 0 21G<197 209 209 243> 547 20G<-6 42 42 54 409 458 458 466>
VStem: -29 510
LayerCount: 2
Fore
SplineSet
458 567 m 2
 474 567 485 551 479 536 c 2
 296 37 l 2
 288 15 267 0 243 0 c 2
 209 0 l 2
 185 0 164 15 155 37 c 2
 -28 536 l 2
 -33 551 -22 567 -6 567 c 2
 42 567 l 2
 66 567 87 552 96 530 c 2
 226 175 l 1
 356 530 l 2
 364 552 385 567 409 567 c 2
 458 567 l 2
EndSplineSet
EndChar

StartChar: w
Encoding: 119 119 22
Width: 935
Flags: MW
HStem: 0 21G<186 194 194 239 537.5 546 546 591> 547 20G<-29 36 36 44 749 814 814 821>
VStem: -49 883
LayerCount: 2
Fore
SplineSet
833 539 m 2
 628 25 l 2
 622 10 607 0 591 0 c 2
 546 0 l 2
 529 0 514 11 508 27 c 2
 393 342 l 1
 277 27 l 2
 272 11 256 0 239 0 c 2
 194 0 l 2
 178 0 163 10 157 25 c 2
 -48 539 l 2
 -53 553 -43 567 -29 567 c 2
 36 567 l 2
 52 567 67 557 73 541 c 2
 214 176 l 1
 340 523 l 2
 346 539 361 550 378 550 c 2
 407 550 l 2
 424 550 439 539 445 523 c 2
 572 176 l 1
 712 541 l 2
 718 557 733 567 749 567 c 2
 814 567 l 2
 828 567 838 553 833 539 c 2
EndSplineSet
EndChar

StartChar: x
Encoding: 120 120 23
Width: 611
Flags: MW
HStem: 0 21G<-15.5 -6 -6 61 391 400 400 467> 547 20G<-6 61 61 70 400 467 467 476.5>
VStem: -29 519
LayerCount: 2
Fore
SplineSet
-6 0 m 2
 -25 0 -36 21 -25 36 c 2
 160 283 l 1
 -25 531 l 2
 -36 546 -25 567 -6 567 c 2
 61 567 l 2
 79 567 96 558 107 544 c 2
 231 378 l 1
 354 544 l 2
 365 558 382 567 400 567 c 2
 467 567 l 2
 486 567 497 546 486 531 c 2
 301 283 l 1
 486 36 l 2
 497 21 486 0 467 0 c 2
 400 0 l 2
 382 0 365 8 354 23 c 2
 231 189 l 1
 107 23 l 2
 96 8 79 0 61 0 c 2
 -6 0 l 2
EndSplineSet
EndChar

StartChar: y
Encoding: 121 121 24
Width: 601
Flags: MW
HStem: -170 21G<123 131 131 180> 547 20G<-6 42 42 54 409 458 458 466>
VStem: -29 509
LayerCount: 2
Fore
SplineSet
131 -170 m 2
 115 -170 104 -154 110 -140 c 2
 165 11 l 1
 -28 536 l 2
 -33 551 -22 567 -6 567 c 2
 42 567 l 2
 66 567 87 552 96 530 c 2
 226 175 l 1
 356 530 l 2
 364 552 385 567 409 567 c 2
 458 567 l 2
 474 567 484 551 479 536 c 2
 233 -133 l 2
 225 -155 204 -170 180 -170 c 2
 131 -170 l 2
EndSplineSet
EndChar

StartChar: z
Encoding: 122 122 25
Width: 564
Flags: MW
HStem: 0 113<-20 37 132 377 377 392.5> 454 113<43.5 59 59 282 25 434 25 434 25 434>
VStem: -20 454<16.5 92 16.5 99 16.5 113 16.5 113 16.5 113>
LayerCount: 2
Fore
SplineSet
419 438 m 2
 132 113 l 1
 377 113 l 2
 408 113 434 88 434 57 c 2
 434 23 l 2
 434 10 423 0 411 0 c 2
 37 0 l 2
 5 0 -20 25 -20 57 c 2
 -20 92 l 2
 -20 106 -15 119 -6 129 c 2
 282 454 l 1
 59 454 l 2
 28 454 3 479 3 510 c 2
 3 544 l 2
 3 557 13 567 25 567 c 2
 377 567 l 2
 408 567 434 541 434 510 c 2
 433 475 l 2
 433 461 428 448 419 438 c 2
434 454 m 1
 433 454 l 1
 434 454 l 1
 434 454 l 1
-20 113 m 1
 -20 113 l 1
 -20 113 l 1
 -20 113 l 1
EndSplineSet
EndChar

StartChar: period
Encoding: 46 46 26
Width: 286
Flags: MW
HStem: 0 136<49 87>
VStem: 0 136<49 87>
LayerCount: 2
Fore
SplineSet
136 68 m 0
 136 30 106 0 68 0 c 0
 30 0 0 30 0 68 c 0
 0 106 30 136 68 136 c 0
 106 136 136 106 136 68 c 0
EndSplineSet
EndChar

StartChar: comma
Encoding: 44 44 27
Width: 288
Flags: MW
HStem: 1 21G
VStem: 0 137
LayerCount: 2
Fore
SplineSet
136 68 m 0
 142 16 123 -31 81 -83 c 0
 78 -87 72 -88 68 -86 c 1
 68 -86 l 1
 56 -81 52 -67 57 -56 c 0
 65 -41 74 -20 76 1 c 1
 76 0 76 0 76 0 c 1
 42 -4 9 19 2 52 c 0
 -8 97 25 136 68 136 c 0
 106 136 132 105 136 68 c 0
EndSplineSet
EndChar

StartChar: A
Encoding: 65 65 28
Width: 626
Flags: MW
HStem: 0 21G<16.5 23 23 57 403.5 419 419 453> 261 113<113 363 113 363> 624 113<154.5 306 170 306>
VStem: 0 113<41 57 57 261 374 567> 363 113<57 261 261 261 374 567>
LayerCount: 2
Fore
SplineSet
306 737 m 2
 400 737 476 661 476 567 c 2
 476 23 l 2
 476 10 466 0 453 0 c 2
 419 0 l 2
 388 0 363 25 363 57 c 2
 363 261 l 1
 113 261 l 1
 113 57 l 2
 113 25 88 0 57 0 c 2
 23 0 l 2
 10 0 0 10 0 23 c 2
 0 567 l 2
 0 661 76 737 170 737 c 2
 306 737 l 2
113 374 m 1
 363 374 l 1
 363 567 l 2
 363 598 337 624 306 624 c 2
 170 624 l 2
 139 624 113 598 113 567 c 2
 113 374 l 1
EndSplineSet
EndChar

StartChar: B
Encoding: 66 66 29
Width: 618
Flags: MW
HStem: 0 113<41 293 113 293 113 293> 317 114<113 264 264 290.5 113 293 113 264> 624 113<113 113 113 261 261 264>
VStem: 0 113<113 317 431 624> 361 113 395 113<187 243.5>
LayerCount: 2
Fore
SplineSet
418 385 m 1xf4
 472 346 508 284 508 215 c 0xf4
 508 97 411 0 293 0 c 2
 57 0 l 2
 25 0 0 25 0 57 c 2
 0 680 l 2
 0 712 25 737 57 737 c 2
 261 737 l 2
 376 737 472 646 474 531 c 0xf8
 475 475 454 423 418 385 c 1xf4
113 624 m 1
 113 431 l 1
 264 431 l 2
 317 431 361 474 361 527 c 0
 361 580 317 624 264 624 c 2xf8
 113 624 l 1
293 113 m 2
 349 113 395 159 395 215 c 0
 395 272 349 317 293 317 c 2
 113 317 l 1
 113 113 l 1
 293 113 l 2
EndSplineSet
EndChar

StartChar: C
Encoding: 67 67 30
Width: 626
Flags: MW
HStem: 0 113<123 306 170 306> 624 113<154.5 306 170 306>
VStem: 0 113<170 567> 363 113<170 204 204 219.5 533 567>
LayerCount: 2
Fore
SplineSet
306 0 m 2
 170 0 l 2
 76 0 0 76 0 170 c 2
 0 567 l 2
 0 661 76 737 170 737 c 2
 306 737 l 2
 400 737 476 661 476 567 c 2
 476 533 l 2
 476 520 466 510 453 510 c 2
 385 510 l 2
 373 510 363 520 363 533 c 2
 363 567 l 2
 363 598 337 624 306 624 c 2
 170 624 l 2
 139 624 113 598 113 567 c 2
 113 170 l 2
 113 139 139 113 170 113 c 2
 306 113 l 2
 337 113 363 139 363 170 c 2
 363 204 l 2
 363 235 388 261 419 261 c 2
 453 261 l 2
 466 261 476 251 476 238 c 2
 476 170 l 2
 476 76 400 0 306 0 c 2
EndSplineSet
EndChar

StartChar: D
Encoding: 68 68 31
Width: 626
Flags: MW
HStem: 0 113<41 306 113 306 113 306> 624 113<113 306 113 113>
VStem: 0 113<113 113 113 624> 363 113<170 567>
LayerCount: 2
Fore
SplineSet
306 0 m 2
 57 0 l 2
 25 0 0 25 0 57 c 2
 0 680 l 2
 0 712 25 737 57 737 c 2
 306 737 l 2
 400 737 476 661 476 567 c 2
 476 170 l 2
 476 76 400 0 306 0 c 2
113 113 m 1
 306 113 l 2
 337 113 363 139 363 170 c 2
 363 567 l 2
 363 598 337 624 306 624 c 2
 113 624 l 1
 113 113 l 1
EndSplineSet
EndChar

StartChar: E
Encoding: 69 69 32
Width: 606
Flags: MW
HStem: 0 113<41 419 113 419 419 435 113 453> 317 114<113 351 351 367 113 385 113 351> 624 113<113 419 113 113>
VStem: 0 113<113 317 431 624>
LayerCount: 2
Fore
SplineSet
476 680 m 2
 476 649 451 624 419 624 c 2
 113 624 l 1
 113 431 l 1
 351 431 l 2
 383 431 408 405 408 374 c 2
 408 340 l 2
 408 328 398 317 385 317 c 2
 113 317 l 1
 113 113 l 1
 419 113 l 2
 451 113 476 88 476 57 c 2
 476 23 l 2
 476 10 466 0 453 0 c 2
 57 0 l 2
 25 0 0 25 0 57 c 2
 0 680 l 2
 0 712 25 737 57 737 c 2
 453 737 l 2
 466 737 476 727 476 714 c 2
 476 680 l 2
EndSplineSet
EndChar

StartChar: F
Encoding: 70 70 33
Width: 566
Flags: MW
HStem: 0 21G<16.5 23 23 91> 317 114<113 351 351 367 113 385 113 351> 624 113<113 419 113 113>
VStem: 0 113<23 317 431 624>
LayerCount: 2
Fore
SplineSet
476 680 m 2
 476 649 451 624 419 624 c 2
 113 624 l 1
 113 431 l 1
 351 431 l 2
 383 431 408 405 408 374 c 2
 408 340 l 2
 408 328 398 317 385 317 c 2
 113 317 l 1
 113 23 l 2
 113 10 103 0 91 0 c 2
 23 0 l 2
 10 0 0 10 0 23 c 2
 0 680 l 2
 0 712 25 737 57 737 c 2
 453 737 l 2
 466 737 476 727 476 714 c 2
 476 680 l 2
EndSplineSet
EndChar

StartChar: G
Encoding: 71 71 34
Width: 626
Flags: MW
HStem: 0 113<123 306 170 306> 317 114<267.5 283 283 363> 624 113<154.5 306 170 306>
VStem: 0 113<170 567> 363 113<170 317 317 317 556 567>
LayerCount: 2
Fore
SplineSet
306 0 m 2
 170 0 l 2
 76 0 0 76 0 170 c 2
 0 567 l 2
 0 661 76 737 170 737 c 2
 306 737 l 2
 400 737 476 661 476 567 c 2
 476 556 l 2
 476 543 466 533 453 533 c 2
 385 533 l 2
 373 533 363 543 363 556 c 2
 363 567 l 2
 363 598 337 624 306 624 c 2
 170 624 l 2
 139 624 113 598 113 567 c 2
 113 170 l 2
 113 139 139 113 170 113 c 2
 306 113 l 2
 337 113 363 139 363 170 c 2
 363 317 l 1
 283 317 l 2
 252 317 227 343 227 374 c 2
 227 408 l 2
 227 421 237 431 249 431 c 2
 419 431 l 2
 451 431 476 405 476 374 c 2
 476 170 l 2
 476 76 400 0 306 0 c 2
EndSplineSet
EndChar

StartChar: H
Encoding: 72 72 35
Width: 626
Flags: MW
HStem: 0 21G<16.5 23 23 57 403.5 419 419 453> 317 114<113 363 113 363> 717 20G<23 57 57 72.5 419 453 453 459.5>
VStem: 0 113<41 57 57 317 431 680> 363 113<57 317 317 317 431 680 680 696>
LayerCount: 2
Fore
SplineSet
363 680 m 2
 363 712 388 737 419 737 c 2
 453 737 l 2
 466 737 476 727 476 714 c 2
 476 23 l 2
 476 10 466 0 453 0 c 2
 419 0 l 2
 388 0 363 25 363 57 c 2
 363 317 l 1
 113 317 l 1
 113 57 l 2
 113 25 88 0 57 0 c 2
 23 0 l 2
 10 0 0 10 0 23 c 2
 0 714 l 2
 0 727 10 737 23 737 c 2
 57 737 l 2
 88 737 113 712 113 680 c 2
 113 431 l 1
 363 431 l 1
 363 680 l 2
EndSplineSet
EndChar

StartChar: I
Encoding: 73 73 36
Width: 263
Flags: MW
HStem: 0 21G<16.5 23 23 91> 717 20G<23 57 57 72.5>
VStem: 0 113<23 680>
LayerCount: 2
Fore
SplineSet
91 0 m 2
 23 0 l 2
 10 0 0 10 0 23 c 2
 0 714 l 2
 0 727 10 737 23 737 c 2
 57 737 l 2
 88 737 113 712 113 680 c 2
 113 23 l 2
 113 10 103 0 91 0 c 2
EndSplineSet
EndChar

StartChar: J
Encoding: 74 74 37
Width: 576
Flags: MW
HStem: 0 113<73 256 120 256> 624 113<195 211 211 313>
VStem: -50 113<170 227 154.5 261 154.5 267> 313 113<170 624 624 624>
LayerCount: 2
Fore
SplineSet
256 0 m 2
 120 0 l 2
 26 0 -50 76 -50 170 c 2
 -50 261 l 2
 -50 273 -40 283 -27 283 c 2
 7 283 l 2
 38 283 63 258 63 227 c 2
 63 170 l 2
 63 139 89 113 120 113 c 2
 256 113 l 2
 287 113 313 139 313 170 c 2
 313 624 l 1
 211 624 l 2
 179 624 154 649 154 680 c 2
 154 714 l 2
 154 727 164 737 177 737 c 2
 369 737 l 2
 401 737 426 712 426 680 c 2
 426 170 l 2
 426 76 350 0 256 0 c 2
EndSplineSet
EndChar

StartChar: K
Encoding: 75 75 38
Width: 633
Flags: MW
HStem: 0 21G<16.5 23 23 57 435 444 444 510> 312 113<113 175 175 179 113 183 113 175> 717 20G<23 57 57 72.5 436 502 502 511.5>
VStem: 0 113<41 57 57 312 425 680>
LayerCount: 2
Fore
SplineSet
529 36 m 2
 539 21 529 0 510 0 c 2
 444 0 l 2
 426 0 409 9 398 24 c 2
 202 302 l 2
 197 308 191 312 183 312 c 2
 113 312 l 1
 113 57 l 2
 113 25 88 0 57 0 c 2
 23 0 l 2
 10 0 0 10 0 23 c 2
 0 714 l 2
 0 727 10 737 23 737 c 2
 57 737 l 2
 88 737 113 712 113 680 c 2
 113 425 l 1
 175 425 l 2
 183 425 189 429 194 435 c 2
 390 713 l 2
 401 728 418 737 436 737 c 2
 502 737 l 2
 521 737 531 716 521 701 c 2
 290 374 l 1
 529 36 l 2
EndSplineSet
EndChar

StartChar: L
Encoding: 76 76 39
Width: 531
Flags: MW
HStem: 0 113<41 374 113 374 374 389.5 113 408> 717 20G<23 57 57 72.5>
VStem: 0 113<113 680 113 714 113 720.5>
LayerCount: 2
Fore
SplineSet
408 0 m 2
 57 0 l 2
 25 0 0 25 0 57 c 2
 0 714 l 2
 0 727 10 737 23 737 c 2
 57 737 l 2
 88 737 113 712 113 680 c 2
 113 113 l 1
 374 113 l 2
 405 113 431 88 431 57 c 2
 431 23 l 2
 431 10 421 0 408 0 c 2
EndSplineSet
EndChar

StartChar: M
Encoding: 77 77 40
Width: 740
Flags: MW
HStem: 0 21G<16.5 23 23 57 517.5 533 533 567> 717 20G<23 76 76 87 513 567 567 573>
VStem: 0 113<41 57 57 486> 476 114<57 486 486 486>
LayerCount: 2
Fore
SplineSet
567 737 m 2
 579 737 590 727 590 714 c 2
 590 23 l 2
 590 10 579 0 567 0 c 2
 533 0 l 2
 502 0 476 25 476 57 c 2
 476 486 l 1
 374 290 l 2
 365 271 345 259 324 259 c 2
 265 259 l 2
 244 259 225 271 215 290 c 2
 113 486 l 1
 113 57 l 2
 113 25 88 0 57 0 c 2
 23 0 l 2
 10 0 0 10 0 23 c 2
 0 714 l 2
 0 727 10 737 23 737 c 2
 76 737 l 2
 98 737 117 725 127 706 c 2
 295 382 l 1
 463 706 l 2
 473 725 492 737 513 737 c 2
 567 737 l 2
EndSplineSet
EndChar

StartChar: N
Encoding: 78 78 41
Width: 626
Flags: MW
HStem: 0 21G<16.5 23 23 57 389.5 400 400 453> 717 20G<23 76 76 87 419 453 453 459.5>
VStem: 0 113<41 57 57 486> 363 113<251 680 680 696>
LayerCount: 2
Fore
SplineSet
453 737 m 2
 466 737 476 727 476 714 c 2
 476 23 l 2
 476 10 466 0 453 0 c 2
 400 0 l 2
 379 0 359 12 349 31 c 2
 113 486 l 1
 113 57 l 2
 113 25 88 0 57 0 c 2
 23 0 l 2
 10 0 0 10 0 23 c 2
 0 714 l 2
 0 727 10 737 23 737 c 2
 76 737 l 2
 98 737 117 725 127 706 c 2
 363 251 l 1
 363 680 l 2
 363 712 388 737 419 737 c 2
 453 737 l 2
EndSplineSet
EndChar

StartChar: O
Encoding: 79 79 42
Width: 626
Flags: MW
HStem: 0 113<123 306 170 306> 624 113<154.5 306 170 306>
VStem: 0 113<170 567> 363 113<170 567>
LayerCount: 2
Fore
SplineSet
306 0 m 2
 170 0 l 2
 76 0 0 76 0 170 c 2
 0 567 l 2
 0 661 76 737 170 737 c 2
 306 737 l 2
 400 737 476 661 476 567 c 2
 476 170 l 2
 476 76 400 0 306 0 c 2
170 624 m 2
 139 624 113 598 113 567 c 2
 113 170 l 2
 113 139 139 113 170 113 c 2
 306 113 l 2
 337 113 363 139 363 170 c 2
 363 567 l 2
 363 598 337 624 306 624 c 2
 170 624 l 2
EndSplineSet
EndChar

StartChar: P
Encoding: 80 80 43
Width: 576
Flags: MW
HStem: 0 21G<16.5 23 23 57> 261 113<113 306 113 306> 624 113<113 306 113 113>
VStem: 0 113<41 57 57 261 374 624> 363 113<431 567>
LayerCount: 2
Fore
SplineSet
57 0 m 2
 23 0 l 2
 10 0 0 10 0 23 c 2
 0 680 l 2
 0 712 25 737 57 737 c 2
 306 737 l 2
 400 737 476 661 476 567 c 2
 476 431 l 2
 476 337 400 261 306 261 c 2
 113 261 l 1
 113 57 l 2
 113 25 88 0 57 0 c 2
113 374 m 1
 306 374 l 2
 337 374 363 400 363 431 c 2
 363 567 l 2
 363 598 337 624 306 624 c 2
 113 624 l 1
 113 374 l 1
EndSplineSet
EndChar

StartChar: Q
Encoding: 81 81 44
Width: 626
Flags: MW
HStem: 0 113<123 181 170 181 295 306> 624 113<154.5 306 170 306>
VStem: 0 113<170 567> 181 114<-49.5 -34 -34 0 -49.5 0 113 147 147 163> 363 113<170 567>
CounterMasks: 1 38
LayerCount: 2
Fore
SplineSet
306 737 m 2
 400 737 476 661 476 567 c 2
 476 170 l 2
 476 76 400 0 306 0 c 2
 295 0 l 1
 295 -34 l 2
 295 -65 269 -91 238 -91 c 2
 204 -91 l 2
 192 -91 181 -81 181 -68 c 2
 181 0 l 1
 170 0 l 2
 76 0 0 76 0 170 c 2
 0 567 l 2
 0 661 76 737 170 737 c 2
 306 737 l 2
363 170 m 2
 363 567 l 2
 363 598 337 624 306 624 c 2
 170 624 l 2
 139 624 113 598 113 567 c 2
 113 170 l 2
 113 139 139 113 170 113 c 2
 181 113 l 1
 181 147 l 2
 181 179 207 204 238 204 c 2
 272 204 l 2
 285 204 295 194 295 181 c 2
 295 113 l 1
 306 113 l 2
 337 113 363 139 363 170 c 2
EndSplineSet
EndChar

StartChar: R
Encoding: 82 82 45
Width: 607
Flags: MW
HStem: 0 21G<16.5 23 23 57 393 404 404 459> 261 113<113 235 113 306> 624 113<113 113 113 306>
VStem: 0 113<41 57 57 261 374 624> 363 113<431 567>
LayerCount: 2
Fore
SplineSet
479 33 m 2
 487 18 476 0 459 0 c 2
 404 0 l 2
 382 0 363 12 353 31 c 2
 235 261 l 1
 113 261 l 1
 113 57 l 2
 113 25 88 0 57 0 c 2
 23 0 l 2
 10 0 0 10 0 23 c 2
 0 680 l 2
 0 712 25 737 57 737 c 2
 306 737 l 2
 400 737 476 661 476 567 c 2
 476 431 l 2
 476 355 427 291 358 269 c 1
 479 33 l 2
113 624 m 1
 113 374 l 1
 306 374 l 2
 337 374 363 400 363 431 c 2
 363 567 l 2
 363 598 337 624 306 624 c 2
 113 624 l 1
EndSplineSet
EndChar

StartChar: S
Encoding: 83 83 46
Width: 576
Flags: MW
HStem: 0 113<123 306 170 306> 317 114<123 306 170 306> 624 113<154.5 283 170 283>
VStem: 0 113<170 204 154.5 238 154.5 244.5 488 567> 340 113<533 567 526.5 582.5> 363 113<170 261 123 276.5>
LayerCount: 2
Fore
SplineSet
340 533 m 2xf8
 340 567 l 2
 340 598 315 624 283 624 c 2xf8
 170 624 l 2
 139 624 113 598 113 567 c 2
 113 488 l 2
 113 456 139 431 170 431 c 2
 306 431 l 2
 400 431 476 355 476 261 c 2
 476 170 l 2
 476 76 400 0 306 0 c 2
 170 0 l 2
 76 0 0 76 0 170 c 2
 0 238 l 2
 0 251 10 261 23 261 c 2
 57 261 l 2
 88 261 113 235 113 204 c 2
 113 170 l 2
 113 139 139 113 170 113 c 2
 306 113 l 2
 337 113 363 139 363 170 c 2
 363 261 l 2
 363 292 337 317 306 317 c 2xf4
 170 317 l 2
 76 317 0 394 0 488 c 2
 0 567 l 2
 0 661 76 737 170 737 c 2
 283 737 l 2
 377 737 453 661 453 567 c 2
 453 533 l 2
 453 520 443 510 431 510 c 2
 363 510 l 2
 350 510 340 520 340 533 c 2xf8
EndSplineSet
EndChar

StartChar: T
Encoding: 84 84 47
Width: 606
Flags: MW
HStem: 0 21G<188 194 194 262> 624 113<-9 7 7 171 285 449 285 285>
VStem: 171 114<23 624>
LayerCount: 2
Fore
SplineSet
506 714 m 2
 506 680 l 2
 506 649 481 624 449 624 c 2
 285 624 l 1
 285 23 l 2
 285 10 275 0 262 0 c 2
 194 0 l 2
 182 0 171 10 171 23 c 2
 171 624 l 1
 7 624 l 2
 -25 624 -50 649 -50 680 c 2
 -50 714 l 2
 -50 727 -40 737 -27 737 c 2
 483 737 l 2
 496 737 506 727 506 714 c 2
EndSplineSet
EndChar

StartChar: U
Encoding: 85 85 48
Width: 626
Flags: MW
HStem: 0 113<123 306 170 306> 717 20G<23 57 57 72.5 419 453 453 459.5>
VStem: 0 113<170 680> 363 113<170 680 680 696>
LayerCount: 2
Fore
SplineSet
306 0 m 2
 170 0 l 2
 76 0 0 76 0 170 c 2
 0 714 l 2
 0 727 10 737 23 737 c 2
 57 737 l 2
 88 737 113 712 113 680 c 2
 113 170 l 2
 113 139 139 113 170 113 c 2
 306 113 l 2
 337 113 363 139 363 170 c 2
 363 680 l 2
 363 712 388 737 419 737 c 2
 453 737 l 2
 466 737 476 727 476 714 c 2
 476 170 l 2
 476 76 400 0 306 0 c 2
EndSplineSet
EndChar

StartChar: V
Encoding: 86 86 49
Width: 657
Flags: MW
HStem: 0 21G<220.5 233 233 273> 717 20G<3 48 48 60.5 458 504 504 511.5>
VStem: -19 545<708 708>
LayerCount: 2
Fore
SplineSet
404 696 m 2
 411 720 433 737 458 737 c 2
 504 737 l 2
 519 737 530 722 526 708 c 2
 328 40 l 2
 320 16 298 0 273 0 c 2
 233 0 l 2
 208 0 186 16 179 40 c 2
 -19 708 l 2
 -23 722 -13 737 3 737 c 2
 48 737 l 2
 73 737 95 720 103 696 c 2
 253 189 l 1
 404 696 l 2
EndSplineSet
EndChar

StartChar: W
Encoding: 87 87 50
Width: 961
Flags: MW
HStem: 0 21G<170.5 180 180 226 575.5 584 584 631> 717 20G<-10 49 49 58.5 761 820 820 826.5>
VStem: -30 870
LayerCount: 2
Fore
SplineSet
546 28 m 2
 405 484 l 1
 264 28 l 2
 259 11 244 0 226 0 c 2
 180 0 l 2
 161 0 145 12 141 30 c 2
 -29 712 l 2
 -33 725 -23 737 -10 737 c 2
 49 737 l 2
 68 737 84 724 88 707 c 2
 208 226 l 1
 345 669 l 2
 350 686 366 697 383 697 c 2
 427 697 l 2
 445 697 460 686 465 669 c 2
 602 226 l 1
 722 707 l 2
 727 724 743 737 761 737 c 2
 820 737 l 2
 833 737 843 725 840 712 c 2
 670 30 l 2
 665 12 649 0 631 0 c 2
 584 0 l 2
 567 0 551 11 546 28 c 2
EndSplineSet
EndChar

StartChar: X
Encoding: 88 88 51
Width: 651
Flags: MW
HStem: 0 21G<-17 -10 -10 24 459 468 468 501> 717 20G<-10 24 24 33 468 502 502 509>
VStem: -49 590
LayerCount: 2
Fore
SplineSet
468 0 m 2
 450 0 433 9 423 24 c 2
 246 266 l 1
 69 24 l 2
 59 9 42 0 24 0 c 2
 -10 0 l 2
 -24 0 -38 8 -44 21 c 0
 -51 33 -51 49 -43 61 c 2
 178 368 l 1
 -43 676 l 2
 -51 688 -51 704 -44 716 c 0
 -38 729 -24 737 -10 737 c 2
 24 737 l 2
 42 737 59 728 69 713 c 2
 246 471 l 1
 423 713 l 2
 433 728 450 737 468 737 c 2
 502 737 l 2
 516 737 529 729 536 716 c 0
 543 704 542 688 534 676 c 2
 314 368 l 1
 534 61 l 2
 542 49 543 33 536 21 c 0
 529 8 516 0 501 0 c 2
 468 0 l 2
EndSplineSet
EndChar

StartChar: Y
Encoding: 89 89 52
Width: 633
Flags: MW
HStem: 0 21G<200.5 207 207 276> 717 20G<-28 33 33 42.5 449 510 510 518.5>
VStem: 185 113<22 265>
LayerCount: 2
Fore
SplineSet
510 737 m 2
 527 737 537 719 530 705 c 2
 298 265 l 1
 298 22 l 2
 298 10 288 0 276 0 c 2
 207 0 l 2
 194 0 185 10 185 22 c 2
 185 265 l 1
 -47 705 l 2
 -55 719 -45 737 -28 737 c 2
 33 737 l 2
 52 737 69 727 77 710 c 2
 241 400 l 1
 405 710 l 2
 413 727 430 737 449 737 c 2
 510 737 l 2
EndSplineSet
EndChar

StartChar: Z
Encoding: 90 90 53
Width: 586
Flags: MW
HStem: 0 113<116 399 399 415 116 433> 624 113<43.5 59 59 320>
VStem: -20 476<23 57 16.5 80 16.5 91>
LayerCount: 2
Fore
SplineSet
3 714 m 2
 3 727 13 737 25 737 c 2
 399 737 l 2
 431 737 456 712 456 680 c 2
 456 658 l 2
 456 636 450 614 437 595 c 2
 116 113 l 1
 399 113 l 2
 431 113 456 88 456 57 c 2
 456 23 l 2
 456 10 446 0 433 0 c 2
 3 0 l 2
 -10 0 -20 10 -20 23 c 2
 -20 80 l 2
 -20 102 -13 124 -1 142 c 2
 320 624 l 1
 59 624 l 2
 28 624 3 649 3 680 c 2
 3 714 l 2
EndSplineSet
EndChar

StartChar: one
Encoding: 49 49 54
Width: 411
Flags: MW
HStem: 0 21G<164 170 170 238> 532 205 717 20G<170 238 238 244.5>
VStem: 148 113<23 582 582 582>
LayerCount: 2
Fore
SplineSet
131 722 m 2xb0
 142 732 156 737 170 737 c 2
 238 737 l 2
 251 737 261 727 261 714 c 2
 261 23 l 2
 261 10 251 0 238 0 c 2
 170 0 l 2
 158 0 148 10 148 23 c 2
 148 582 l 1
 110 547 l 2
 87 526 52 527 30 550 c 2
 7 575 l 2
 -2 584 -1 598 8 607 c 2xd0
 131 722 l 2xb0
EndSplineSet
EndChar

StartChar: two
Encoding: 50 50 55
Width: 626
Flags: MW
HStem: 0 113<41 419 113 419 419 435 113 453> 295 113<171 283 193 283> 624 113<171 283 193 283>
VStem: 0 113<113 215 113 215 113 268.5 528.5 544> 363 113<488 544>
LayerCount: 2
Fore
SplineSet
453 0 m 2
 57 0 l 2
 25 0 0 25 0 57 c 2
 0 215 l 2
 0 322 86 408 193 408 c 2
 283 408 l 2
 327 408 363 444 363 488 c 2
 363 544 l 2
 363 588 327 624 283 624 c 2
 193 624 l 2
 149 624 113 588 113 544 c 1
 113 544 l 1
 113 513 88 488 57 488 c 2
 23 488 l 2
 10 488 0 498 0 510 c 2
 0 544 l 2
 0 651 86 737 193 737 c 2
 283 737 l 2
 390 737 476 651 476 544 c 2
 476 488 l 2
 476 381 390 295 283 295 c 2
 193 295 l 2
 149 295 113 259 113 215 c 2
 113 113 l 1
 419 113 l 2
 451 113 476 88 476 57 c 2
 476 23 l 2
 476 10 466 0 453 0 c 2
EndSplineSet
EndChar

StartChar: three
Encoding: 51 51 56
Width: 626
Flags: MW
HStem: 0 113<139.5 283 193 283> 329 113<209 283 249 283 249 283> 624 113<182 283 204 283>
VStem: 0 113<171 227 171 233> 11 114<534.5 544 534.5 544 534.5 597.5> 363 113<193 249 139.5 271 522 544>
LayerCount: 2
Fore
SplineSet
476 522 m 2xf4
 476 468 449 420 409 385 c 1
 449 351 476 302 476 249 c 2
 476 193 l 2
 476 86 390 0 283 0 c 2
 193 0 l 2
 86 0 0 86 0 193 c 2
 0 227 l 2
 0 239 10 249 23 249 c 2
 57 249 l 2
 88 249 113 224 113 193 c 1
 113 193 l 1
 113 149 149 113 193 113 c 2
 283 113 l 2xf4
 327 113 363 149 363 193 c 2
 363 249 l 2
 363 293 327 329 283 329 c 2
 215 329 l 2
 203 329 193 339 193 351 c 2
 193 385 l 2
 193 417 218 442 249 442 c 2
 283 442 l 2
 327 442 363 478 363 522 c 2
 363 544 l 2
 363 588 327 624 283 624 c 2
 204 624 l 2
 160 624 125 588 125 544 c 1
 125 544 l 1
 125 525 109 510 91 510 c 2
 34 510 l 2
 21 510 11 520 11 533 c 2
 11 544 l 2xec
 11 651 98 737 204 737 c 2
 283 737 l 2
 390 737 476 651 476 544 c 2
 476 522 l 2xf4
EndSplineSet
EndChar

StartChar: four
Encoding: 52 52 57
Width: 576
Flags: MW
HStem: 0 21G<275 281 281 349> 193 113<16 258 96 258 96 258 372 428> 717 20G<177 227 227 235>
VStem: 258 114<23 193 306 408 408 423.5>
LayerCount: 2
Fore
SplineSet
349 465 m 2
 362 465 372 455 372 442 c 2
 372 306 l 1
 428 306 l 2
 441 306 451 296 451 283 c 2
 451 215 l 2
 451 203 441 193 428 193 c 2
 372 193 l 1
 372 23 l 2
 372 10 362 0 349 0 c 2
 281 0 l 2
 269 0 258 10 258 23 c 2
 258 193 l 1
 32 193 l 2
 0 193 -25 218 -25 249 c 2
 -25 296 l 2
 -25 303 -24 309 -21 316 c 2
 124 700 l 2
 133 722 154 737 177 737 c 2
 227 737 l 2
 243 737 254 721 248 706 c 2
 96 306 l 1
 258 306 l 1
 258 408 l 2
 258 439 284 465 315 465 c 2
 349 465 l 2
EndSplineSet
EndChar

StartChar: five
Encoding: 53 53 58
Width: 626
Flags: MW
HStem: 0 113<139.5 283 193 283> 351 114<0 113 113 283> 624 113<113 385 113 113>
VStem: 0 113<171 227 171 233 465 624> 363 113<193 272 139.5 294>
LayerCount: 2
Fore
SplineSet
283 0 m 2
 193 0 l 2
 86 0 0 86 0 193 c 2
 0 227 l 2
 0 239 10 249 23 249 c 2
 57 249 l 2
 88 249 113 224 113 193 c 1
 113 193 l 1
 113 149 149 113 193 113 c 2
 283 113 l 2
 327 113 363 149 363 193 c 2
 363 272 l 2
 363 316 327 351 283 351 c 2
 113 351 l 2
 51 351 0 402 0 465 c 2
 0 680 l 2
 0 712 25 737 57 737 c 2
 419 737 l 2
 432 737 442 727 442 714 c 2
 442 680 l 2
 442 649 417 624 385 624 c 2
 113 624 l 1
 113 465 l 1
 283 465 l 2
 390 465 476 379 476 272 c 2
 476 193 l 2
 476 86 390 0 283 0 c 2
EndSplineSet
EndChar

StartChar: six
Encoding: 54 54 59
Width: 626
Flags: MW
HStem: 0 113<139.5 283 193 283> 351 114<171 283 193 283> 624 113<170 261 193 261>
VStem: 0 113<193 272 431 533> 340 113<515.5 544 515.5 566> 363 113<193 272 139.5 294>
LayerCount: 2
Fore
SplineSet
283 465 m 2xf4
 390 465 476 379 476 272 c 2
 476 193 l 2
 476 86 390 0 283 0 c 2xf4
 193 0 l 2
 86 0 0 86 0 193 c 2
 0 533 l 2
 0 589 20 640 55 678 c 0
 91 716 140 737 193 737 c 2
 261 737 l 2
 367 737 453 651 453 544 c 2
 453 522 l 2
 453 509 443 499 431 499 c 2
 385 499 l 2
 360 499 340 519 340 544 c 1
 340 544 l 1
 340 588 305 624 261 624 c 2xf8
 193 624 l 2
 147 624 113 585 113 533 c 2
 113 431 l 1
 132 453 162 465 193 465 c 2
 283 465 l 2xf4
363 193 m 2
 363 272 l 2
 363 316 327 351 283 351 c 2
 193 351 l 2
 149 351 113 316 113 272 c 2
 113 193 l 2
 113 149 149 113 193 113 c 2
 283 113 l 2
 327 113 363 149 363 193 c 2
EndSplineSet
EndChar

StartChar: seven
Encoding: 55 55 60
Width: 526
Flags: HMW
HStem: 0 21G<69 77 77 128> 624 113<-33.5 369 7 303>
VStem: -50 476<646 680 631 696>
LayerCount: 2
UndoRedoHistory
Layer: 1
Undoes
UndoOperation
Index: 0
Type: 1
WasModified: 1
WasOrder2: 0
Layer: 2
Width: 526
VWidth: 1000
LBearingChange: 0
UnicodeEnc: 0
InstructionsLength: 0
SplineSet
417 385 m 6
 417 322 l 6
 417 308 405 297 392 297 c 6
 25 297 l 6
 11 297 0 308 0 322 c 6
 0 385 l 6
 0 399 11 410 25 410 c 6
 392 410 l 6
 405 410 417 399 417 385 c 6
426 635 m 2
 426 627 425 620 422 613 c 2
 181 35 l 2
 172 14 151 0 128 0 c 2
 77 0 l 2
 61 0 50 16 57 31 c 2
 303 624 l 1
 -27 624 l 2
 -40 624 -50 634 -50 646 c 2
 -50 680 l 2
 -50 712 -25 737 7 737 c 2
 369 737 l 2
 401 737 426 712 426 680 c 2
 426 635 l 2
EndSplineSet
EndUndoOperation
UndoOperation
Index: 1
Type: 1
WasModified: 1
WasOrder2: 0
Layer: 2
Width: 526
VWidth: 1000
LBearingChange: 0
UnicodeEnc: 0
InstructionsLength: 0
SplineSet
417 375 m 6
 417 312 l 6
 417 298 405 287 392 287 c 6
 25 287 l 6
 11 287 0 298 0 312 c 6
 0 375 l 6
 0 389 11 400 25 400 c 6
 392 400 l 6
 405 400 417 389 417 375 c 6
426 635 m 2
 426 627 425 620 422 613 c 2
 181 35 l 2
 172 14 151 0 128 0 c 2
 77 0 l 2
 61 0 50 16 57 31 c 2
 303 624 l 1
 -27 624 l 2
 -40 624 -50 634 -50 646 c 2
 -50 680 l 2
 -50 712 -25 737 7 737 c 2
 369 737 l 2
 401 737 426 712 426 680 c 2
 426 635 l 2
EndSplineSet
EndUndoOperation
UndoOperation
Index: 2
Type: 1
WasModified: 1
WasOrder2: 0
Layer: 2
Width: 526
VWidth: 1000
LBearingChange: 0
UnicodeEnc: 0
InstructionsLength: 0
SplineSet
417 365 m 6
 417 302 l 6
 417 288 405 277 392 277 c 6
 25 277 l 6
 11 277 0 288 0 302 c 6
 0 365 l 6
 0 379 11 390 25 390 c 6
 392 390 l 6
 405 390 417 379 417 365 c 6
426 635 m 2
 426 627 425 620 422 613 c 2
 181 35 l 2
 172 14 151 0 128 0 c 2
 77 0 l 2
 61 0 50 16 57 31 c 2
 303 624 l 1
 -27 624 l 2
 -40 624 -50 634 -50 646 c 2
 -50 680 l 2
 -50 712 -25 737 7 737 c 2
 369 737 l 2
 401 737 426 712 426 680 c 2
 426 635 l 2
EndSplineSet
EndUndoOperation
UndoOperation
Index: 3
Type: 1
WasModified: 1
WasOrder2: 0
Layer: 2
Width: 526
VWidth: 1000
LBearingChange: 0
UnicodeEnc: 0
InstructionsLength: 0
SplineSet
417 355 m 6
 417 292 l 6
 417 278 405 267 392 267 c 6
 25 267 l 6
 11 267 0 278 0 292 c 6
 0 355 l 6
 0 369 11 380 25 380 c 6
 392 380 l 6
 405 380 417 369 417 355 c 6
426 635 m 2
 426 627 425 620 422 613 c 2
 181 35 l 2
 172 14 151 0 128 0 c 2
 77 0 l 2
 61 0 50 16 57 31 c 2
 303 624 l 1
 -27 624 l 2
 -40 624 -50 634 -50 646 c 2
 -50 680 l 2
 -50 712 -25 737 7 737 c 2
 369 737 l 2
 401 737 426 712 426 680 c 2
 426 635 l 2
EndSplineSet
EndUndoOperation
UndoOperation
Index: 4
Type: 1
WasModified: 1
WasOrder2: 0
Layer: 2
Width: 526
VWidth: 1000
LBearingChange: 0
UnicodeEnc: 0
InstructionsLength: 0
SplineSet
417 345 m 6
 417 282 l 6
 417 268 405 257 392 257 c 6
 25 257 l 6
 11 257 0 268 0 282 c 6
 0 345 l 6
 0 359 11 370 25 370 c 6
 392 370 l 6
 405 370 417 359 417 345 c 6
426 635 m 2
 426 627 425 620 422 613 c 2
 181 35 l 2
 172 14 151 0 128 0 c 2
 77 0 l 2
 61 0 50 16 57 31 c 2
 303 624 l 1
 -27 624 l 2
 -40 624 -50 634 -50 646 c 2
 -50 680 l 2
 -50 712 -25 737 7 737 c 2
 369 737 l 2
 401 737 426 712 426 680 c 2
 426 635 l 2
EndSplineSet
EndUndoOperation
UndoOperation
Index: 5
Type: 1
WasModified: 1
WasOrder2: 0
Layer: 2
Width: 526
VWidth: 1000
LBearingChange: 0
UnicodeEnc: 0
InstructionsLength: 0
SplineSet
417 335 m 6
 417 272 l 6
 417 258 405 247 392 247 c 6
 25 247 l 6
 11 247 0 258 0 272 c 6
 0 335 l 6
 0 349 11 360 25 360 c 6
 392 360 l 6
 405 360 417 349 417 335 c 6
426 635 m 2
 426 627 425 620 422 613 c 2
 181 35 l 2
 172 14 151 0 128 0 c 2
 77 0 l 2
 61 0 50 16 57 31 c 2
 303 624 l 1
 -27 624 l 2
 -40 624 -50 634 -50 646 c 2
 -50 680 l 2
 -50 712 -25 737 7 737 c 2
 369 737 l 2
 401 737 426 712 426 680 c 2
 426 635 l 2
EndSplineSet
EndUndoOperation
UndoOperation
Index: 6
Type: 1
WasModified: 1
WasOrder2: 0
Layer: 2
Width: 526
VWidth: 1000
LBearingChange: 0
UnicodeEnc: 0
InstructionsLength: 0
SplineSet
417 325 m 6
 417 262 l 6
 417 248 405 237 392 237 c 6
 25 237 l 6
 11 237 0 248 0 262 c 6
 0 325 l 6
 0 339 11 350 25 350 c 6
 392 350 l 6
 405 350 417 339 417 325 c 6
426 635 m 2
 426 627 425 620 422 613 c 2
 181 35 l 2
 172 14 151 0 128 0 c 2
 77 0 l 2
 61 0 50 16 57 31 c 2
 303 624 l 1
 -27 624 l 2
 -40 624 -50 634 -50 646 c 2
 -50 680 l 2
 -50 712 -25 737 7 737 c 2
 369 737 l 2
 401 737 426 712 426 680 c 2
 426 635 l 2
EndSplineSet
EndUndoOperation
UndoOperation
Index: 7
Type: 1
WasModified: 1
WasOrder2: 0
Layer: 2
Width: 526
VWidth: 1000
LBearingChange: 0
UnicodeEnc: 0
InstructionsLength: 0
SplineSet
417 315 m 6
 417 252 l 6
 417 238 405 227 392 227 c 6
 25 227 l 6
 11 227 0 238 0 252 c 6
 0 315 l 6
 0 329 11 340 25 340 c 6
 392 340 l 6
 405 340 417 329 417 315 c 6
426 635 m 2
 426 627 425 620 422 613 c 2
 181 35 l 2
 172 14 151 0 128 0 c 2
 77 0 l 2
 61 0 50 16 57 31 c 2
 303 624 l 1
 -27 624 l 2
 -40 624 -50 634 -50 646 c 2
 -50 680 l 2
 -50 712 -25 737 7 737 c 2
 369 737 l 2
 401 737 426 712 426 680 c 2
 426 635 l 2
EndSplineSet
EndUndoOperation
UndoOperation
Index: 8
Type: 1
WasModified: 1
WasOrder2: 0
Layer: 2
Width: 526
VWidth: 1000
LBearingChange: 0
UnicodeEnc: 0
InstructionsLength: 0
SplineSet
417 305 m 6
 417 242 l 6
 417 228 405 217 392 217 c 6
 25 217 l 6
 11 217 0 228 0 242 c 6
 0 305 l 6
 0 319 11 330 25 330 c 6
 392 330 l 6
 405 330 417 319 417 305 c 6
426 635 m 2
 426 627 425 620 422 613 c 2
 181 35 l 2
 172 14 151 0 128 0 c 2
 77 0 l 2
 61 0 50 16 57 31 c 2
 303 624 l 1
 -27 624 l 2
 -40 624 -50 634 -50 646 c 2
 -50 680 l 2
 -50 712 -25 737 7 737 c 2
 369 737 l 2
 401 737 426 712 426 680 c 2
 426 635 l 2
EndSplineSet
EndUndoOperation
UndoOperation
Index: 9
Type: 1
WasModified: 1
WasOrder2: 0
Layer: 2
Width: 526
VWidth: 1000
LBearingChange: 0
UnicodeEnc: 0
InstructionsLength: 0
SplineSet
417 295 m 6
 417 232 l 6
 417 218 405 207 392 207 c 6
 25 207 l 6
 11 207 0 218 0 232 c 6
 0 295 l 6
 0 309 11 320 25 320 c 6
 392 320 l 6
 405 320 417 309 417 295 c 6
426 635 m 2
 426 627 425 620 422 613 c 2
 181 35 l 2
 172 14 151 0 128 0 c 2
 77 0 l 2
 61 0 50 16 57 31 c 2
 303 624 l 1
 -27 624 l 2
 -40 624 -50 634 -50 646 c 2
 -50 680 l 2
 -50 712 -25 737 7 737 c 2
 369 737 l 2
 401 737 426 712 426 680 c 2
 426 635 l 2
EndSplineSet
EndUndoOperation
UndoOperation
Index: 10
Type: 1
WasModified: 1
WasOrder2: 0
Layer: 2
Width: 526
VWidth: 1000
LBearingChange: 0
UnicodeEnc: 0
InstructionsLength: 0
SplineSet
417 285 m 6
 417 222 l 6
 417 208 405 197 392 197 c 6
 25 197 l 6
 11 197 0 208 0 222 c 6
 0 285 l 6
 0 299 11 310 25 310 c 6
 392 310 l 6
 405 310 417 299 417 285 c 6
426 635 m 2
 426 627 425 620 422 613 c 2
 181 35 l 2
 172 14 151 0 128 0 c 2
 77 0 l 2
 61 0 50 16 57 31 c 2
 303 624 l 1
 -27 624 l 2
 -40 624 -50 634 -50 646 c 2
 -50 680 l 2
 -50 712 -25 737 7 737 c 2
 369 737 l 2
 401 737 426 712 426 680 c 2
 426 635 l 2
EndSplineSet
EndUndoOperation
UndoOperation
Index: 11
Type: 1
WasModified: 1
WasOrder2: 0
Layer: 2
Width: 526
VWidth: 1000
LBearingChange: 0
UnicodeEnc: 0
InstructionsLength: 0
SplineSet
417 275 m 6
 417 212 l 6
 417 198 405 187 392 187 c 6
 25 187 l 6
 11 187 0 198 0 212 c 6
 0 275 l 6
 0 289 11 300 25 300 c 6
 392 300 l 6
 405 300 417 289 417 275 c 6
426 635 m 2
 426 627 425 620 422 613 c 2
 181 35 l 2
 172 14 151 0 128 0 c 2
 77 0 l 2
 61 0 50 16 57 31 c 2
 303 624 l 1
 -27 624 l 2
 -40 624 -50 634 -50 646 c 2
 -50 680 l 2
 -50 712 -25 737 7 737 c 2
 369 737 l 2
 401 737 426 712 426 680 c 2
 426 635 l 2
EndSplineSet
EndUndoOperation
UndoOperation
Index: 12
Type: 3
WasModified: 0
WasOrder2: 0
Layer: 2
HStem: 0 21G<69 77 77 128> 624 113<-33.5 369 7 303>
VStem: -50 476<646 680 631 696>
EndUndoOperation
EndUndoes
Redoes
EndRedoes
EndUndoRedoHistory
Fore
SplineSet
417 395 m 6
 417 332 l 6
 417 318 405 307 392 307 c 6
 25 307 l 6
 11 307 0 318 0 332 c 6
 0 395 l 6
 0 409 11 420 25 420 c 6
 392 420 l 6
 405 420 417 409 417 395 c 6
426 635 m 2
 426 627 425 620 422 613 c 2
 181 35 l 2
 172 14 151 0 128 0 c 2
 77 0 l 2
 61 0 50 16 57 31 c 2
 303 624 l 1
 -27 624 l 2
 -40 624 -50 634 -50 646 c 2
 -50 680 l 2
 -50 712 -25 737 7 737 c 2
 369 737 l 2
 401 737 426 712 426 680 c 2
 426 635 l 2
EndSplineSet
EndChar

StartChar: eight
Encoding: 56 56 61
Width: 626
Flags: MW
HStem: 0 113<128 293 183 293 293 299> 329 113<171 261 215 261 261 283> 624 113<193.5 261 215 261>
VStem: 0 113<177 183 183 249 164 278.5> 23 113<522 544 500 597.5> 340 114<522 544 498 566> 363 113<183 249 128 271>
LayerCount: 2
Fore
SplineSet
385 397 m 1xf2
 439 369 476 308 476 249 c 2
 476 177 l 2
 476 79 397 0 299 0 c 2
 177 0 l 2
 79 0 0 79 0 177 c 2
 0 249 l 2xf2
 0 308 37 369 91 397 c 1
 52 425 23 474 23 522 c 2
 23 544 l 2
 23 651 109 737 215 737 c 2
 261 737 l 2
 367 737 454 651 454 544 c 2
 454 522 l 2xec
 454 474 425 425 385 397 c 1xf2
136 544 m 2xec
 136 522 l 2
 136 478 172 442 215 442 c 2
 261 442 l 2
 305 442 340 478 340 522 c 2
 340 544 l 2
 340 588 305 624 261 624 c 2
 215 624 l 2
 172 624 136 588 136 544 c 2xec
363 183 m 2xf2
 363 249 l 2
 363 293 327 329 283 329 c 2
 193 329 l 2
 149 329 113 293 113 249 c 2
 113 183 l 2
 113 145 145 113 183 113 c 2
 293 113 l 2
 331 113 363 145 363 183 c 2xf2
EndSplineSet
EndChar

StartChar: nine
Encoding: 57 57 62
Width: 626
Flags: MW
HStem: 0 113<162 283 215 283> 272 113<139.5 283 193 283> 624 113<171 283 193 283>
VStem: 0 113<465 544 443 597.5> 23 113<171 215 171 221.5> 363 113<204 306 306 306 465 544>
LayerCount: 2
Fore
SplineSet
193 272 m 2xf4
 86 272 0 358 0 465 c 2
 0 544 l 2
 0 651 86 737 193 737 c 2xf4
 283 737 l 2
 390 737 476 651 476 544 c 2
 476 204 l 2
 476 148 457 97 421 59 c 0
 385 21 336 0 283 0 c 2
 215 0 l 2
 109 0 23 86 23 193 c 2
 23 215 l 2
 23 228 33 238 45 238 c 2
 91 238 l 2
 116 238 136 218 136 193 c 1
 136 193 l 1
 136 149 172 113 215 113 c 2xec
 283 113 l 2
 329 113 363 151 363 204 c 2
 363 306 l 1
 345 287 310 272 283 272 c 2
 193 272 l 2xf4
113 544 m 2
 113 465 l 2
 113 421 149 385 193 385 c 2
 283 385 l 2
 327 385 363 421 363 465 c 2
 363 544 l 2
 363 588 327 624 283 624 c 2
 193 624 l 2
 149 624 113 588 113 544 c 2
EndSplineSet
EndChar

StartChar: zero
Encoding: 48 48 63
Width: 626
Flags: HMW
HStem: 0 113<164.5 249 227 249> 624 113<195.5 249 227 249>
VStem: 0 113<227 510> 363 113<227 510>
LayerCount: 2
UndoRedoHistory
Layer: 1
Undoes
UndoOperation
Index: 0
Type: 1
WasModified: 1
WasOrder2: 0
Layer: 2
Width: 626
VWidth: 1000
LBearingChange: 0
UnicodeEnc: 0
InstructionsLength: 0
SplineSet
70 -25 m 6
 57 -25 45 -19 38 -8 c 4
 31 2 29 16 33 28 c 6
 291 736 l 6
 297 752 312 762 328 762 c 6
 365 762 l 6
 378 762 390 756 397 745 c 4
 404 735 406 721 402 709 c 6
 144 1 l 6
 138 -15 123 -25 107 -25 c 6
 70 -25 l 6
249 0 m 2
 227 0 l 2
 102 0 0 102 0 227 c 2
 0 510 l 2
 0 635 102 737 227 737 c 2
 249 737 l 2
 374 737 476 635 476 510 c 2
 476 227 l 2
 476 102 374 0 249 0 c 2
227 624 m 2
 164 624 113 573 113 510 c 2
 113 227 l 2
 113 164 164 113 227 113 c 2
 249 113 l 2
 312 113 363 164 363 227 c 2
 363 510 l 2
 363 573 312 624 249 624 c 2
 227 624 l 2
EndSplineSet
EndUndoOperation
UndoOperation
Index: 1
Type: 1
WasModified: 1
WasOrder2: 0
Layer: 2
Width: 626
VWidth: 1000
LBearingChange: 0
UnicodeEnc: 0
InstructionsLength: 0
SplineSet
80 -25 m 6
 67 -25 55 -19 48 -8 c 4
 41 2 39 16 43 28 c 6
 301 736 l 6
 307 752 322 762 338 762 c 6
 375 762 l 6
 388 762 400 756 407 745 c 4
 414 735 416 721 412 709 c 6
 154 1 l 6
 148 -15 133 -25 117 -25 c 6
 80 -25 l 6
249 0 m 2
 227 0 l 2
 102 0 0 102 0 227 c 2
 0 510 l 2
 0 635 102 737 227 737 c 2
 249 737 l 2
 374 737 476 635 476 510 c 2
 476 227 l 2
 476 102 374 0 249 0 c 2
227 624 m 2
 164 624 113 573 113 510 c 2
 113 227 l 2
 113 164 164 113 227 113 c 2
 249 113 l 2
 312 113 363 164 363 227 c 2
 363 510 l 2
 363 573 312 624 249 624 c 2
 227 624 l 2
EndSplineSet
EndUndoOperation
UndoOperation
Index: 2
Type: 1
WasModified: 1
WasOrder2: 0
Layer: 2
Width: 626
VWidth: 1000
LBearingChange: 0
UnicodeEnc: 0
InstructionsLength: 0
SplineSet
70 -25 m 6
 57 -25 45 -19 38 -8 c 4
 31 2 29 16 33 28 c 6
 291 736 l 6
 297 752 312 762 328 762 c 6
 365 762 l 6
 378 762 390 756 397 745 c 4
 404 735 406 721 402 709 c 6
 144 1 l 6
 138 -15 123 -25 107 -25 c 6
 70 -25 l 6
249 0 m 2
 227 0 l 2
 102 0 0 102 0 227 c 2
 0 510 l 2
 0 635 102 737 227 737 c 2
 249 737 l 2
 374 737 476 635 476 510 c 2
 476 227 l 2
 476 102 374 0 249 0 c 2
227 624 m 2
 164 624 113 573 113 510 c 2
 113 227 l 2
 113 164 164 113 227 113 c 2
 249 113 l 2
 312 113 363 164 363 227 c 2
 363 510 l 2
 363 573 312 624 249 624 c 2
 227 624 l 2
EndSplineSet
EndUndoOperation
UndoOperation
Index: 3
Type: 1
WasModified: 1
WasOrder2: 0
Layer: 2
Width: 626
VWidth: 1000
LBearingChange: 0
UnicodeEnc: 0
InstructionsLength: 0
SplineSet
80 -25 m 6
 67 -25 55 -19 48 -8 c 4
 41 2 39 16 43 28 c 6
 301 736 l 6
 307 752 322 762 338 762 c 6
 375 762 l 6
 388 762 400 756 407 745 c 4
 414 735 416 721 412 709 c 6
 154 1 l 6
 148 -15 133 -25 117 -25 c 6
 80 -25 l 6
249 0 m 2
 227 0 l 2
 102 0 0 102 0 227 c 2
 0 510 l 2
 0 635 102 737 227 737 c 2
 249 737 l 2
 374 737 476 635 476 510 c 2
 476 227 l 2
 476 102 374 0 249 0 c 2
227 624 m 2
 164 624 113 573 113 510 c 2
 113 227 l 2
 113 164 164 113 227 113 c 2
 249 113 l 2
 312 113 363 164 363 227 c 2
 363 510 l 2
 363 573 312 624 249 624 c 2
 227 624 l 2
EndSplineSet
EndUndoOperation
UndoOperation
Index: 4
Type: 1
WasModified: 1
WasOrder2: 0
Layer: 2
Width: 626
VWidth: 1000
LBearingChange: 0
UnicodeEnc: 0
InstructionsLength: 0
SplineSet
90 -25 m 6
 77 -25 65 -19 58 -8 c 4
 51 2 49 16 53 28 c 6
 311 736 l 6
 317 752 332 762 348 762 c 6
 385 762 l 6
 398 762 410 756 417 745 c 4
 424 735 426 721 422 709 c 6
 164 1 l 6
 158 -15 143 -25 127 -25 c 6
 90 -25 l 6
249 0 m 2
 227 0 l 2
 102 0 0 102 0 227 c 2
 0 510 l 2
 0 635 102 737 227 737 c 2
 249 737 l 2
 374 737 476 635 476 510 c 2
 476 227 l 2
 476 102 374 0 249 0 c 2
227 624 m 2
 164 624 113 573 113 510 c 2
 113 227 l 2
 113 164 164 113 227 113 c 2
 249 113 l 2
 312 113 363 164 363 227 c 2
 363 510 l 2
 363 573 312 624 249 624 c 2
 227 624 l 2
EndSplineSet
EndUndoOperation
UndoOperation
Index: 5
Type: 1
WasModified: 1
WasOrder2: 0
Layer: 2
Width: 626
VWidth: 1000
LBearingChange: 0
UnicodeEnc: 0
InstructionsLength: 0
SplineSet
80 -25 m 6
 67 -25 55 -19 48 -8 c 4
 41 2 39 16 43 28 c 6
 301 736 l 6
 307 752 322 762 338 762 c 6
 375 762 l 6
 388 762 400 756 407 745 c 4
 414 735 416 721 412 709 c 6
 154 1 l 6
 148 -15 133 -25 117 -25 c 6
 80 -25 l 6
249 0 m 2
 227 0 l 2
 102 0 0 102 0 227 c 2
 0 510 l 2
 0 635 102 737 227 737 c 2
 249 737 l 2
 374 737 476 635 476 510 c 2
 476 227 l 2
 476 102 374 0 249 0 c 2
227 624 m 2
 164 624 113 573 113 510 c 2
 113 227 l 2
 113 164 164 113 227 113 c 2
 249 113 l 2
 312 113 363 164 363 227 c 2
 363 510 l 2
 363 573 312 624 249 624 c 2
 227 624 l 2
EndSplineSet
EndUndoOperation
UndoOperation
Index: 6
Type: 1
WasModified: 1
WasOrder2: 0
Layer: 2
Width: 626
VWidth: 1000
LBearingChange: 0
UnicodeEnc: 0
InstructionsLength: 0
SplineSet
70 -25 m 6
 57 -25 45 -19 38 -8 c 4
 31 2 29 16 33 28 c 6
 291 736 l 6
 297 752 312 762 328 762 c 6
 365 762 l 6
 378 762 390 756 397 745 c 4
 404 735 406 721 402 709 c 6
 144 1 l 6
 138 -15 123 -25 107 -25 c 6
 70 -25 l 6
249 0 m 2
 227 0 l 2
 102 0 0 102 0 227 c 2
 0 510 l 2
 0 635 102 737 227 737 c 2
 249 737 l 2
 374 737 476 635 476 510 c 2
 476 227 l 2
 476 102 374 0 249 0 c 2
227 624 m 2
 164 624 113 573 113 510 c 2
 113 227 l 2
 113 164 164 113 227 113 c 2
 249 113 l 2
 312 113 363 164 363 227 c 2
 363 510 l 2
 363 573 312 624 249 624 c 2
 227 624 l 2
EndSplineSet
EndUndoOperation
UndoOperation
Index: 7
Type: 1
WasModified: 1
WasOrder2: 0
Layer: 2
Width: 626
VWidth: 1000
LBearingChange: 0
UnicodeEnc: 0
InstructionsLength: 0
SplineSet
60 -25 m 6
 47 -25 35 -19 28 -8 c 4
 21 2 19 16 23 28 c 6
 281 736 l 6
 287 752 302 762 318 762 c 6
 355 762 l 6
 368 762 380 756 387 745 c 4
 394 735 396 721 392 709 c 6
 134 1 l 6
 128 -15 113 -25 97 -25 c 6
 60 -25 l 6
249 0 m 2
 227 0 l 2
 102 0 0 102 0 227 c 2
 0 510 l 2
 0 635 102 737 227 737 c 2
 249 737 l 2
 374 737 476 635 476 510 c 2
 476 227 l 2
 476 102 374 0 249 0 c 2
227 624 m 2
 164 624 113 573 113 510 c 2
 113 227 l 2
 113 164 164 113 227 113 c 2
 249 113 l 2
 312 113 363 164 363 227 c 2
 363 510 l 2
 363 573 312 624 249 624 c 2
 227 624 l 2
EndSplineSet
EndUndoOperation
UndoOperation
Index: 8
Type: 1
WasModified: 1
WasOrder2: 0
Layer: 2
Width: 626
VWidth: 1000
LBearingChange: 0
UnicodeEnc: 0
InstructionsLength: 0
SplineSet
50 -25 m 6
 37 -25 25 -19 18 -8 c 4
 11 2 9 16 13 28 c 6
 271 736 l 6
 277 752 292 762 308 762 c 6
 345 762 l 6
 358 762 370 756 377 745 c 4
 384 735 386 721 382 709 c 6
 124 1 l 6
 118 -15 103 -25 87 -25 c 6
 50 -25 l 6
249 0 m 2
 227 0 l 2
 102 0 0 102 0 227 c 2
 0 510 l 2
 0 635 102 737 227 737 c 2
 249 737 l 2
 374 737 476 635 476 510 c 2
 476 227 l 2
 476 102 374 0 249 0 c 2
227 624 m 2
 164 624 113 573 113 510 c 2
 113 227 l 2
 113 164 164 113 227 113 c 2
 249 113 l 2
 312 113 363 164 363 227 c 2
 363 510 l 2
 363 573 312 624 249 624 c 2
 227 624 l 2
EndSplineSet
EndUndoOperation
UndoOperation
Index: 9
Type: 1
WasModified: 1
WasOrder2: 0
Layer: 2
Width: 626
VWidth: 1000
LBearingChange: 0
UnicodeEnc: 0
InstructionsLength: 0
SplineSet
40 -25 m 6
 27 -25 15 -19 8 -8 c 4
 1 2 -1 16 3 28 c 6
 261 736 l 6
 267 752 282 762 298 762 c 6
 335 762 l 6
 348 762 360 756 367 745 c 4
 374 735 376 721 372 709 c 6
 114 1 l 6
 108 -15 93 -25 77 -25 c 6
 40 -25 l 6
249 0 m 2
 227 0 l 2
 102 0 0 102 0 227 c 2
 0 510 l 2
 0 635 102 737 227 737 c 2
 249 737 l 2
 374 737 476 635 476 510 c 2
 476 227 l 2
 476 102 374 0 249 0 c 2
227 624 m 2
 164 624 113 573 113 510 c 2
 113 227 l 2
 113 164 164 113 227 113 c 2
 249 113 l 2
 312 113 363 164 363 227 c 2
 363 510 l 2
 363 573 312 624 249 624 c 2
 227 624 l 2
EndSplineSet
EndUndoOperation
UndoOperation
Index: 10
Type: 3
WasModified: 0
WasOrder2: 0
Layer: 2
HStem: 0 113<164.5 249 227 249> 624 113<195.5 249 227 249>
VStem: 0 113<227 510> 363 113<227 510>
EndUndoOperation
EndUndoes
Redoes
RedoOperation
Index: 0
Type: 1
WasModified: 1
WasOrder2: 0
Layer: 2
Width: 626
VWidth: 1000
LBearingChange: 0
UnicodeEnc: 0
InstructionsLength: 0
SplineSet
80 -25 m 2
 67 -25 55 -19 48 -8 c 0
 41 2 39 16 43 28 c 2
 301 736 l 2
 307 752 322 762 338 762 c 2
 365 762 l 6
 378 762 390 756 397 745 c 4
 404 735 406 721 402 709 c 6
 144 1 l 6
 138 -15 123 -25 107 -25 c 6
 80 -25 l 2
249 0 m 2
 227 0 l 2
 102 0 0 102 0 227 c 2
 0 510 l 2
 0 635 102 737 227 737 c 2
 249 737 l 2
 374 737 476 635 476 510 c 2
 476 227 l 2
 476 102 374 0 249 0 c 2
227 624 m 2
 164 624 113 573 113 510 c 2
 113 227 l 2
 113 164 164 113 227 113 c 2
 249 113 l 2
 312 113 363 164 363 227 c 2
 353 510 l 6
 353 573 312 624 249 624 c 2
 227 624 l 2
EndSplineSet
EndRedoOperation
RedoOperation
Index: 1
Type: 1
WasModified: 1
WasOrder2: 0
Layer: 2
Width: 626
VWidth: 1000
LBearingChange: 0
UnicodeEnc: 0
InstructionsLength: 0
SplineSet
80 -25 m 6
 67 -25 55 -19 48 -8 c 4
 41 2 39 16 43 28 c 6
 301 736 l 6
 307 752 322 762 338 762 c 6
 355 762 l 6
 368 762 380 756 387 745 c 4
 394 735 396 721 392 709 c 6
 134 1 l 2
 128 -15 113 -25 97 -25 c 6
 80 -25 l 6
249 0 m 2
 227 0 l 2
 102 0 0 102 0 227 c 2
 0 510 l 2
 0 635 102 737 227 737 c 2
 249 737 l 2
 374 737 476 635 476 510 c 2
 476 227 l 2
 476 102 374 0 249 0 c 2
227 624 m 2
 164 624 113 573 113 510 c 2
 113 227 l 2
 113 164 164 113 227 113 c 2
 249 113 l 2
 312 113 363 164 363 227 c 2
 343 510 l 2
 343 573 312 624 249 624 c 2
 227 624 l 2
EndSplineSet
EndRedoOperation
RedoOperation
Index: 2
Type: 1
WasModified: 1
WasOrder2: 0
Layer: 2
Width: 626
VWidth: 1000
LBearingChange: 0
UnicodeEnc: 0
InstructionsLength: 0
SplineSet
90 -25 m 6
 77 -25 65 -19 58 -8 c 4
 51 2 49 16 53 28 c 6
 311 736 l 6
 317 752 332 762 348 762 c 6
 365 762 l 6
 378 762 390 756 397 745 c 4
 404 735 406 721 402 709 c 6
 134 1 l 2
 128 -15 123 -25 107 -25 c 6
 90 -25 l 6
249 0 m 2
 227 0 l 2
 102 0 0 102 0 227 c 2
 0 510 l 2
 0 635 102 737 227 737 c 2
 249 737 l 2
 374 737 476 635 476 510 c 2
 476 227 l 2
 476 102 374 0 249 0 c 2
227 624 m 2
 164 624 113 573 113 510 c 2
 113 227 l 2
 113 164 164 113 227 113 c 2
 249 113 l 2
 312 113 363 164 363 227 c 2
 343 510 l 2
 343 573 312 624 249 624 c 2
 227 624 l 2
EndSplineSet
EndRedoOperation
RedoOperation
Index: 3
Type: 1
WasModified: 1
WasOrder2: 0
Layer: 2
Width: 626
VWidth: 1000
LBearingChange: 0
UnicodeEnc: 0
InstructionsLength: 0
SplineSet
80 -25 m 6
 67 -25 55 -19 48 -8 c 4
 41 2 39 16 43 28 c 6
 301 736 l 6
 307 752 322 762 338 762 c 6
 355 762 l 6
 368 762 380 756 387 745 c 4
 394 735 396 721 392 709 c 6
 134 1 l 6
 128 -15 113 -25 97 -25 c 6
 80 -25 l 6
249 0 m 2
 227 0 l 2
 102 0 0 102 0 227 c 2
 0 510 l 2
 0 635 102 737 227 737 c 2
 249 737 l 2
 374 737 476 635 476 510 c 2
 476 227 l 2
 476 102 374 0 249 0 c 2
227 624 m 2
 164 624 113 573 113 510 c 2
 113 227 l 2
 113 164 164 113 227 113 c 2
 249 113 l 2
 312 113 363 164 363 227 c 2
 343 510 l 2
 343 573 312 624 249 624 c 2
 227 624 l 2
EndSplineSet
EndRedoOperation
RedoOperation
Index: 4
Type: 1
WasModified: 1
WasOrder2: 0
Layer: 2
Width: 626
VWidth: 1000
LBearingChange: 0
UnicodeEnc: 0
InstructionsLength: 0
SplineSet
90 -25 m 6
 77 -25 65 -19 58 -8 c 4
 51 2 49 16 53 28 c 6
 311 736 l 6
 317 752 332 762 348 762 c 6
 365 762 l 6
 378 762 390 756 397 745 c 4
 404 735 406 721 402 709 c 6
 144 1 l 6
 138 -15 123 -25 107 -25 c 6
 90 -25 l 6
249 0 m 2
 227 0 l 2
 102 0 0 102 0 227 c 2
 0 510 l 2
 0 635 102 737 227 737 c 2
 249 737 l 2
 374 737 476 635 476 510 c 2
 476 227 l 2
 476 102 374 0 249 0 c 2
227 624 m 2
 164 624 113 573 113 510 c 2
 113 227 l 2
 113 164 164 113 227 113 c 2
 249 113 l 2
 312 113 363 164 363 227 c 2
 343 510 l 2
 343 573 312 624 249 624 c 2
 227 624 l 2
EndSplineSet
EndRedoOperation
RedoOperation
Index: 5
Type: 1
WasModified: 1
WasOrder2: 0
Layer: 2
Width: 626
VWidth: 1000
LBearingChange: 0
UnicodeEnc: 0
InstructionsLength: 0
SplineSet
100 -25 m 6
 87 -25 75 -19 68 -8 c 4
 61 2 59 16 63 28 c 6
 321 736 l 6
 327 752 342 762 358 762 c 6
 375 762 l 6
 388 762 400 756 407 745 c 4
 414 735 416 721 412 709 c 6
 154 1 l 6
 148 -15 133 -25 117 -25 c 6
 100 -25 l 6
249 0 m 2
 227 0 l 2
 102 0 0 102 0 227 c 2
 0 510 l 2
 0 635 102 737 227 737 c 2
 249 737 l 2
 374 737 476 635 476 510 c 2
 476 227 l 2
 476 102 374 0 249 0 c 2
227 624 m 2
 164 624 113 573 113 510 c 2
 113 227 l 2
 113 164 164 113 227 113 c 2
 249 113 l 2
 312 113 363 164 363 227 c 2
 343 510 l 2
 343 573 312 624 249 624 c 2
 227 624 l 2
EndSplineSet
EndRedoOperation
EndRedoes
EndUndoRedoHistory
Fore
SplineSet
80 -25 m 2
 67 -25 55 -19 48 -8 c 0
 41 2 39 16 43 28 c 2
 301 736 l 2
 307 752 322 762 338 762 c 2
 375 762 l 6
 388 762 400 756 407 745 c 4
 414 735 416 721 412 709 c 6
 154 1 l 6
 148 -15 133 -25 117 -25 c 6
 80 -25 l 2
249 0 m 2
 227 0 l 2
 102 0 0 102 0 227 c 2
 0 510 l 2
 0 635 102 737 227 737 c 2
 249 737 l 2
 374 737 476 635 476 510 c 2
 476 227 l 2
 476 102 374 0 249 0 c 2
227 624 m 2
 164 624 113 573 113 510 c 2
 113 227 l 2
 113 164 164 113 227 113 c 2
 249 113 l 2
 312 113 363 164 363 227 c 2
 363 510 l 6
 363 573 312 624 249 624 c 2
 227 624 l 2
EndSplineSet
EndChar

StartChar: degree
Encoding: 176 176 64
Width: 422
Flags: MW
HStem: 465 80<120.5 151.5 120.5 173.5> 657 80<120.5 151.5>
VStem: 0 80<585.5 616.5 585.5 638.5> 192 80<585.5 616.5>
LayerCount: 2
Fore
SplineSet
136 465 m 0
 61 465 0 526 0 601 c 0
 0 676 61 737 136 737 c 0
 211 737 272 676 272 601 c 0
 272 526 211 465 136 465 c 0
136 657 m 0
 105 657 80 632 80 601 c 0
 80 570 105 545 136 545 c 0
 167 545 192 570 192 601 c 0
 192 632 167 657 136 657 c 0
EndSplineSet
EndChar

StartChar: ampersand
Encoding: 38 38 65
Width: 701
Flags: MW
HStem: 0 113<139.5 272 193 272> 329 113<171 351 193 351 465 508> 624 113<171 308 193 294>
VStem: 0 113<193 249 171 274.5 522 544> 351 114<193 329 442 471 471 485>
LayerCount: 2
Fore
SplineSet
193 0 m 2
 86 0 0 86 0 193 c 2
 0 249 l 2
 0 300 24 348 68 385 c 1
 68 385 l 1
 24 423 0 471 0 522 c 2
 0 544 l 2
 0 650 86 737 193 737 c 2
 308 737 l 2
 332 737 351 718 351 694 c 2
 351 680 l 2
 351 649 325 624 294 624 c 2
 193 624 l 2
 149 624 113 588 113 544 c 2
 113 522 l 2
 113 478 149 442 193 442 c 2
 351 442 l 1
 351 471 l 2
 351 502 377 527 408 527 c 2
 422 527 l 2
 446 527 465 508 465 485 c 2
 465 442 l 1
 508 442 l 2
 532 442 551 423 551 400 c 2
 551 371 l 2
 551 348 532 329 508 329 c 2
 465 329 l 1
 465 193 l 2
 465 141 445 93 408 56 c 0
 372 20 324 0 272 0 c 2
 193 0 l 2
193 329 m 2
 149 329 113 293 113 249 c 2
 113 193 l 2
 113 149 149 113 193 113 c 2
 272 113 l 2
 316 113 351 149 351 193 c 2
 351 329 l 1
 193 329 l 2
EndSplineSet
EndChar

StartChar: at
Encoding: 64 64 66
Width: 843
Flags: MW
HStem: 0 91<259 591 362 591 591 606.5 362 625> 159 90<302.5 443 358 443 534 602> 465 91<328.5 466 361 443> 624 90<284 466 363 466 363 466>
VStem: 1 91 160 90 443 91<249 465 465 465> 602 91<249 488>
LayerCount: 2
Fore
SplineSet
466 556 m 2
 503 556 534 525 534 488 c 2
 534 249 l 1
 602 249 l 1
 602 488 l 2
 602 563 541 624 466 624 c 2
 358 624 l 2
 210 624 89 502 92 353 c 0
 94 207 216 91 362 91 c 2
 591 91 l 2
 622 91 647 65 647 34 c 2
 647 23 l 2
 647 10 637 0 625 0 c 2
 358 0 l 2
 160 0 -1 162 1 361 c 0
 3 557 166 714 363 714 c 2
 466 714 l 2
 591 714 693 613 693 488 c 2
 693 227 l 2
 693 189 662 159 625 159 c 2
 358 159 l 2
 247 159 158 250 160 361 c 0
 162 470 253 556 361 556 c 2
 466 556 l 2
443 249 m 1
 443 465 l 1
 358 465 l 2
 299 465 250 417 250 357 c 0
 250 298 299 249 358 249 c 2
 443 249 l 1
EndSplineSet
EndChar

StartChar: numbersign
Encoding: 35 35 67
Width: 764
Flags: MW
HStem: 0 21G<86 93 93 132 325 332 332 371> 192 114<16.5 120 23 100 233 339 23 213 472 549> 431 114<59 162 65 142 65 256 276 381 514 592> 717 20G<244 282 282 289.5 483 521 521 528>
VStem: 0 614<215 454 283 454>
LayerCount: 2
Fore
SplineSet
592 545 m 2
 604 545 614 534 614 522 c 2
 614 454 l 2
 614 441 604 431 592 431 c 2
 494 431 l 1
 472 306 l 1
 549 306 l 2
 562 306 572 296 572 283 c 2
 572 215 l 2
 572 202 562 192 549 192 c 2
 452 192 l 1
 427 47 l 2
 422 20 398 0 371 0 c 2
 332 0 l 2
 318 0 307 13 310 27 c 2
 339 192 l 1
 213 192 l 1
 188 47 l 2
 183 20 159 0 132 0 c 2
 93 0 l 2
 79 0 68 13 71 27 c 2
 100 192 l 1
 23 192 l 2
 10 192 0 202 0 215 c 2
 0 283 l 2
 0 296 10 306 23 306 c 2
 120 306 l 1
 142 431 l 1
 65 431 l 2
 53 431 43 441 43 454 c 2
 43 522 l 2
 43 534 53 545 65 545 c 2
 162 545 l 1
 188 690 l 2
 193 717 216 737 244 737 c 2
 282 737 l 2
 297 737 307 724 305 710 c 2
 276 545 l 1
 401 545 l 1
 427 690 l 2
 431 717 455 737 483 737 c 2
 521 737 l 2
 535 737 546 724 544 710 c 2
 514 545 l 1
 592 545 l 2
359 306 m 1
 381 431 l 1
 256 431 l 1
 233 306 l 1
 359 306 l 1
EndSplineSet
EndChar

StartChar: question
Encoding: 63 63 68
Width: 593
Flags: MW
HStem: 0 170<180.5 227.5> 204 215<164 202 170 202 202 202 202 224 224 238 238 238> 624 113<187 223 215 223 223 227>
VStem: 0 113<510 522 494.5 581.5> 119 170<61.5 108.5> 147 114<227 283 283 307 220.5 365> 329 113<523 523>
LayerCount: 2
Fore
SplineSet
204 170 m 0xea
 251 170 289 132 289 85 c 0
 289 38 251 0 204 0 c 0
 157 0 119 38 119 85 c 0
 119 132 157 170 204 170 c 0xea
442 524 m 0
 443 424 376 339 283 314 c 1
 261 307 l 1
 261 283 l 1
 261 283 l 1xea
 261 227 l 2
 261 214 251 204 238 204 c 1
 238 204 l 1
 193 204 l 1
 170 204 l 2
 158 204 147 214 147 227 c 2
 147 365 l 2
 147 395 172 419 202 419 c 1
 202 419 202 419 202 419 c 1
 224 419 l 2
 282 419 330 466 329 523 c 0
 328 579 282 624 227 624 c 2
 215 624 l 2
 159 624 113 578 113 522 c 2
 113 510 l 2
 113 479 88 453 57 453 c 1
 57 453 l 1
 25 453 0 479 0 510 c 2
 0 522 l 2xf6
 0 641 96 737 215 737 c 2
 223 737 l 2
 342 737 441 643 442 524 c 0
EndSplineSet
EndChar

StartChar: exclamdown
Encoding: 161 161 69
Width: 320
Flags: MW
HStem: 0 21G<39.5 49 49 121> 567 170<61.5 108.5>
VStem: 0 170<628.5 675.5>
LayerCount: 2
Fore
SplineSet
124 499 m 2
 153 34 l 2
 154 16 140 0 121 0 c 2
 49 0 l 2
 30 0 16 16 17 34 c 2
 46 499 l 2
 47 512 58 522 70 522 c 2
 99 522 l 2
 112 522 123 512 124 499 c 2
85 567 m 0
 38 567 0 605 0 652 c 0
 0 699 38 737 85 737 c 0
 132 737 170 699 170 652 c 0
 170 605 132 567 85 567 c 0
EndSplineSet
EndChar

StartChar: percent
Encoding: 37 37 70
Width: 751
Flags: MW
HStem: 0 80<449.5 480.5 449.5 502.5> 192 80<449.5 480.5> 465 80<120.5 151.5 120.5 173.5> 657 80<120.5 151.5>
VStem: 0 80<585.5 616.5 585.5 638.5> 192 80<585.5 616.5> 329 80<120.5 151.5 120.5 173.5> 521 80<120.5 151.5>
LayerCount: 2
Fore
SplineSet
272 601 m 0
 272 526 211 465 136 465 c 0
 61 465 0 526 0 601 c 0
 0 676 61 737 136 737 c 0
 211 737 272 676 272 601 c 0
80 601 m 0
 80 570 105 545 136 545 c 0
 167 545 192 570 192 601 c 0
 192 632 167 657 136 657 c 0
 105 657 80 632 80 601 c 0
465 272 m 0
 540 272 601 211 601 136 c 0
 601 61 540 0 465 0 c 0
 390 0 329 61 329 136 c 0
 329 211 390 272 465 272 c 0
465 80 m 0
 496 80 521 105 521 136 c 0
 521 167 496 192 465 192 c 0
 434 192 409 167 409 136 c 0
 409 105 434 80 465 80 c 0
367 718 m 2
 372 730 382 737 394 737 c 2
 454 737 l 2
 474 737 488 717 481 699 c 2
 233 19 l 2
 229 7 219 0 207 0 c 2
 146 0 l 2
 127 0 113 20 120 38 c 2
 367 718 l 2
EndSplineSet
EndChar

StartChar: dollar
Encoding: 36 36 71
Width: 549
Flags: MW
HStem: 0 204<153.5 160 160 226 226 228> 91 113<28.5 226 69 137> 317 114<171 174 174 228> 544 114<157.5 318 250 284> 544 193<160 173 173 228 228 234 160 284>
VStem: 1 113<490 490> 137 113<23 91 91 91 658 714> 284 114
LayerCount: 2
Fore
SplineSet
398 264 m 0x6b
 399 177 334 105 250 93 c 1
 250 23 l 2
 250 10 240 0 228 0 c 2
 160 0 l 2
 147 0 137 10 137 23 c 2xab
 137 91 l 1x6b
 35 91 l 2
 22 91 12 101 12 113 c 2
 12 147 l 2
 12 179 38 204 69 204 c 2
 226 204 l 2
 257 204 283 227 284 258 c 0
 286 290 260 317 228 317 c 2
 174 317 l 2
 79 317 -1 395 1 490 c 0x6f
 2 571 60 639 137 654 c 1
 137 714 l 2
 137 727 147 737 160 737 c 2
 228 737 l 2
 240 737 250 727 250 714 c 2x6b
 250 658 l 1
 318 658 l 2
 331 658 341 647 341 635 c 2x73
 341 601 l 2
 341 570 316 544 284 544 c 2x6b
 173 544 l 2
 142 544 116 521 114 490 c 0
 113 458 139 431 171 431 c 2x6f
 228 431 l 2
 321 431 396 356 398 264 c 0x6b
EndSplineSet
EndChar

StartChar: aacute
Encoding: 225 225 72
Width: 583
Flags: MW
HStem: 113 136<134.5 320 150 320> 363 90<116 150 150 263 263 279 116 320>
VStem: 93 227<170 193 193 208.5>
LayerCount: 2
Fore
SplineSet
280 810 m 2
 301 838 342 840 366 816 c 2
 391 791 l 2
 400 782 400 768 391 759 c 2
 234 603 l 2
 225 594 211 594 202 603 c 2
 193 611 l 2
 174 631 171 663 188 685 c 2
 280 810 l 2
377 0 m 2
 408 0 433 25 433 57 c 2
 433 397 l 2
 433 491 357 567 263 567 c 2
 82 567 l 2
 69 567 59 557 59 544 c 2
 59 510 l 2
 59 479 85 453 116 453 c 2
 263 453 l 2
 295 453 320 428 320 397 c 2
 320 363 l 1
 150 363 l 2
 56 363 -20 287 -20 193 c 2
 -20 170 l 2
 -20 76 56 0 150 0 c 2
 377 0 l 2
150 249 m 2
 320 249 l 1
 320 113 l 1
 150 113 l 2
 119 113 93 139 93 170 c 2
 93 193 l 2
 93 224 119 249 150 249 c 2
EndSplineSet
EndChar

StartChar: eacute
Encoding: 233 233 73
Width: 603
Flags: MW
HStem: 170 57<113 397 354.5 359 359 397 397 412.5 113 429> 340 113<113 283 170 283 283 299 170 340>
VStem: 113 227<170 397 227 397 340 397 340 412.5>
LayerCount: 2
Fore
SplineSet
300 810 m 2
 321 838 362 840 386 816 c 2
 411 791 l 2
 420 782 420 768 411 759 c 2
 254 603 l 2
 245 594 231 594 222 603 c 2
 213 611 l 2
 194 631 191 663 208 685 c 2
 300 810 l 2
283 0 m 2
 368 0 439 63 452 144 c 0
 454 158 443 170 429 170 c 2
 359 170 l 2
 350 170 341 164 338 154 c 0
 331 131 309 113 283 113 c 2
 170 113 l 2
 139 113 113 139 113 170 c 2
 113 227 l 1
 397 227 l 2
 428 227 453 252 453 283 c 2
 453 397 l 2
 453 491 377 567 283 567 c 2
 170 567 l 2
 76 567 0 491 0 397 c 2
 0 170 l 2
 0 76 76 0 170 0 c 2
 283 0 l 2
113 340 m 1
 113 397 l 2
 113 428 139 453 170 453 c 2
 283 453 l 2
 315 453 340 428 340 397 c 2
 340 340 l 1
 113 340 l 1
EndSplineSet
EndChar

StartChar: oacute
Encoding: 243 243 74
Width: 603
Flags: MW
HStem: 0 832 113 340<154.5 283 170 283>
VStem: 113 227<170 397>
LayerCount: 2
Fore
SplineSet
300 810 m 2xa0
 321 838 362 840 386 816 c 2
 411 791 l 2
 420 782 420 768 411 759 c 2
 254 603 l 2
 245 594 231 594 222 603 c 2
 213 611 l 2
 194 631 191 663 208 685 c 2
 300 810 l 2xa0
283 0 m 2
 377 0 453 76 453 170 c 2
 453 397 l 2
 453 491 377 567 283 567 c 2
 170 567 l 2
 76 567 0 491 0 397 c 2
 0 170 l 2
 0 76 76 0 170 0 c 2
 283 0 l 2
170 453 m 2x60
 283 453 l 2
 315 453 340 428 340 397 c 2
 340 170 l 2
 340 139 315 113 283 113 c 2
 170 113 l 2
 139 113 113 139 113 170 c 2
 113 397 l 2
 113 428 139 453 170 453 c 2x60
EndSplineSet
EndChar

StartChar: uacute
Encoding: 250 250 75
Width: 603
Flags: MW
HStem: 0 832
VStem: 113 227<170 510>
LayerCount: 2
Fore
SplineSet
300 810 m 2
 321 838 362 840 386 816 c 2
 411 791 l 2
 420 782 420 768 411 759 c 2
 254 603 l 2
 245 594 231 594 222 603 c 2
 213 611 l 2
 194 631 191 663 208 685 c 2
 300 810 l 2
283 0 m 2
 377 0 453 76 453 170 c 2
 453 544 l 2
 453 557 443 567 431 567 c 2
 397 567 l 2
 365 567 340 541 340 510 c 2
 340 170 l 2
 340 139 315 113 283 113 c 2
 170 113 l 2
 139 113 113 139 113 170 c 2
 113 510 l 2
 113 541 88 567 57 567 c 2
 23 567 l 2
 10 567 0 557 0 544 c 2
 0 170 l 2
 0 76 76 0 170 0 c 2
 283 0 l 2
EndSplineSet
EndChar

StartChar: udieresis
Encoding: 252 252 76
Width: 603
Flags: MW
HStem: 567 170<16.5 155 23 155> 601 136<117 155 298.5 336>
VStem: 68 136<650 688> 113 227<170 510> 249 136<650 688>
LayerCount: 2
Fore
SplineSet
136 737 m 0x68
 174 737 204 707 204 669 c 0
 204 631 174 601 136 601 c 0
 98 601 68 631 68 669 c 0
 68 707 98 737 136 737 c 0x68
317 737 m 0
 355 737 385 707 385 669 c 0
 385 631 355 601 317 601 c 0
 280 601 249 631 249 669 c 0
 249 707 280 737 317 737 c 0
283 0 m 2
 377 0 453 76 453 170 c 2
 453 544 l 2
 453 557 443 567 431 567 c 2
 397 567 l 2
 365 567 340 541 340 510 c 2
 340 170 l 2
 340 139 315 113 283 113 c 2
 170 113 l 2
 139 113 113 139 113 170 c 2
 113 510 l 2
 113 541 88 567 57 567 c 2
 23 567 l 2
 10 567 0 557 0 544 c 2x90
 0 170 l 2
 0 76 76 0 170 0 c 2
 283 0 l 2
EndSplineSet
EndChar

StartChar: adieresis
Encoding: 228 228 77
Width: 583
Flags: MW
HStem: 113 136<134.5 320 150 320> 363 90<116 150 150 263 263 279 116 320> 567 170<75.5 135 97 135 97 263> 601 136<97 135 278.5 316>
VStem: 48 136<650 688> 93 227<170 193 193 208.5> 229 136<650 688>
LayerCount: 2
Fore
SplineSet
116 737 m 0xea
 154 737 184 707 184 669 c 0
 184 631 154 601 116 601 c 0
 78 601 48 631 48 669 c 0
 48 707 78 737 116 737 c 0xea
297 737 m 0
 335 737 365 707 365 669 c 0
 365 631 335 601 297 601 c 0
 260 601 229 631 229 669 c 0
 229 707 260 737 297 737 c 0
377 0 m 2
 408 0 433 25 433 57 c 2
 433 397 l 2xda
 433 491 357 567 263 567 c 2
 82 567 l 2
 69 567 59 557 59 544 c 2xea
 59 510 l 2
 59 479 85 453 116 453 c 2xda
 263 453 l 2
 295 453 320 428 320 397 c 2
 320 363 l 1
 150 363 l 2
 56 363 -20 287 -20 193 c 2
 -20 170 l 2
 -20 76 56 0 150 0 c 2
 377 0 l 2
150 249 m 2xe4
 320 249 l 1
 320 113 l 1
 150 113 l 2
 119 113 93 139 93 170 c 2
 93 193 l 2
 93 224 119 249 150 249 c 2xe4
EndSplineSet
EndChar

StartChar: edieresis
Encoding: 235 235 78
Width: 603
Flags: MW
HStem: 170 57<113 397 354.5 359 359 397 397 412.5 113 429> 340 113<113 283 170 283 283 299 170 340> 567 170<123 155 117 170 117 283> 601 136<117 155 298.5 336>
VStem: 68 136<650 688> 113 227<170 397 227 397 340 397 340 412.5> 249 136<650 688>
LayerCount: 2
Fore
SplineSet
136 737 m 0xea
 174 737 204 707 204 669 c 0
 204 631 174 601 136 601 c 0
 98 601 68 631 68 669 c 0
 68 707 98 737 136 737 c 0xea
317 737 m 0
 355 737 385 707 385 669 c 0
 385 631 355 601 317 601 c 0
 280 601 249 631 249 669 c 0
 249 707 280 737 317 737 c 0
283 0 m 2
 368 0 439 63 452 144 c 0
 454 158 443 170 429 170 c 2xda
 359 170 l 2
 350 170 341 164 338 154 c 0
 331 131 309 113 283 113 c 2xea
 170 113 l 2
 139 113 113 139 113 170 c 2xda
 113 227 l 1
 397 227 l 2
 428 227 453 252 453 283 c 2xea
 453 397 l 2
 453 491 377 567 283 567 c 2
 170 567 l 2
 76 567 0 491 0 397 c 2
 0 170 l 2
 0 76 76 0 170 0 c 2
 283 0 l 2
113 340 m 1xe4
 113 397 l 2
 113 428 139 453 170 453 c 2
 283 453 l 2
 315 453 340 428 340 397 c 2
 340 340 l 1
 113 340 l 1xe4
EndSplineSet
EndChar

StartChar: odieresis
Encoding: 246 246 79
Width: 603
Flags: MW
HStem: 113 340<154.5 283 170 283> 567 170<123 155 117 170 117 283> 601 136<117 155 298.5 336>
VStem: 68 136<650 688> 113 227<170 397> 249 136<650 688>
LayerCount: 2
Fore
SplineSet
136 737 m 0x48
 174 737 204 707 204 669 c 0
 204 631 174 601 136 601 c 0
 98 601 68 631 68 669 c 0
 68 707 98 737 136 737 c 0x48
317 737 m 0
 355 737 385 707 385 669 c 0
 385 631 355 601 317 601 c 0
 280 601 249 631 249 669 c 0
 249 707 280 737 317 737 c 0
283 0 m 2
 377 0 453 76 453 170 c 2
 453 397 l 2x24
 453 491 377 567 283 567 c 2
 170 567 l 2x44
 76 567 0 491 0 397 c 2x50
 0 170 l 2
 0 76 76 0 170 0 c 2x30
 283 0 l 2
170 453 m 2xc8
 283 453 l 2
 315 453 340 428 340 397 c 2
 340 170 l 2
 340 139 315 113 283 113 c 2
 170 113 l 2
 139 113 113 139 113 170 c 2
 113 397 l 2
 113 428 139 453 170 453 c 2xc8
EndSplineSet
EndChar

StartChar: d
Encoding: 100 100 80
Width: 603
Flags: MW
HStem: 0 113<123 340 170 340 170 431> 453 114<154.5 340 170 340> 717 20G<397 431 431 437>
VStem: 0 113<170 397> 340 113<113 453 453 453 567 680 680 696>
LayerCount: 2
Fore
SplineSet
170 0 m 2
 76 0 0 76 0 170 c 2
 0 397 l 2
 0 491 76 567 170 567 c 2
 340 567 l 1
 340 680 l 2
 340 712 365 737 397 737 c 2
 431 737 l 2
 443 737 453 727 453 714 c 2
 453 23 l 2
 453 10 443 0 431 0 c 2
 170 0 l 2
340 113 m 1
 340 453 l 1
 170 453 l 2
 139 453 113 428 113 397 c 2
 113 170 l 2
 113 139 139 113 170 113 c 2
 340 113 l 1
EndSplineSet
EndChar

StartChar: ntilde
Encoding: 241 241 81
Width: 603
Flags: MW
HStem: 0 21G<16.5 23 23 91 356.5 363 363 431> 453 114<113 283 113 113> 627 80 627 110 654 79
VStem: 0 113<23 453> 340 113<23 397>
LayerCount: 2
Fore
SplineSet
320 737 m 2xd6
 359 737 l 2
 374 737 385 722 380 707 c 0
 372 682 356 660 332 645 c 0
 299 624 258 621 222 638 c 2xd6
 197 650 l 2
 181 658 168 652 163 649 c 0
 160 647 155 642 151 635 c 0
 147 628 140 624 131 624 c 2
 95 624 l 2
 79 624 69 638 73 653 c 0
 81 679 98 701 121 716 c 0
 154 737 195 739 231 722 c 2xce
 257 710 l 2
 272 703 285 709 290 712 c 0xe6
 293 714 299 719 303 726 c 0
 306 733 312 737 320 737 c 2xd6
431 0 m 2
 363 0 l 2
 350 0 340 10 340 23 c 2
 340 397 l 2
 340 428 315 453 283 453 c 2
 113 453 l 1
 113 23 l 2
 113 10 103 0 91 0 c 2
 23 0 l 2
 10 0 0 10 0 23 c 2
 0 544 l 2
 0 557 10 567 23 567 c 2
 283 567 l 2
 377 567 453 491 453 397 c 2
 453 23 l 2
 453 10 443 0 431 0 c 2
EndSplineSet
EndChar

StartChar: atilde
Encoding: 227 227 82
Width: 583
Flags: MW
HStem: 0 113<103 320 150 320 150 377> 249 114<134.5 320 150 320> 453 114<100.5 116 116 263> 627 80 627 110 654 79
VStem: -20 113<170 193 154.5 240> 320 113<113 249 249 249 363 397>
LayerCount: 2
Fore
SplineSet
320 737 m 2xeb
 359 737 l 2
 374 737 385 722 380 707 c 0
 372 682 356 660 332 645 c 0
 299 624 258 621 222 638 c 2xeb
 197 650 l 2
 181 658 168 652 163 649 c 0
 160 647 155 642 151 635 c 0
 147 628 140 624 131 624 c 2
 95 624 l 2
 79 624 69 638 73 653 c 0
 81 679 98 701 121 716 c 0
 154 737 195 739 231 722 c 2xe7
 257 710 l 2
 272 703 285 709 290 712 c 0xf3
 293 714 299 719 303 726 c 0
 306 733 312 737 320 737 c 2xeb
377 0 m 2
 150 0 l 2
 56 0 -20 76 -20 170 c 2
 -20 193 l 2
 -20 287 56 363 150 363 c 2
 320 363 l 1
 320 397 l 2
 320 428 295 453 263 453 c 2
 116 453 l 2
 85 453 59 479 59 510 c 2
 59 544 l 2
 59 557 69 567 82 567 c 2
 263 567 l 2
 357 567 433 491 433 397 c 2
 433 57 l 2
 433 25 408 0 377 0 c 2
150 249 m 2
 119 249 93 224 93 193 c 2
 93 170 l 2
 93 139 119 113 150 113 c 2
 320 113 l 1
 320 249 l 1
 150 249 l 2
EndSplineSet
EndChar

StartChar: otilde
Encoding: 245 245 83
Width: 603
Flags: MW
HStem: 0 113<123 283 170 283> 453 114<154.5 283 170 283> 627 80 627 110 654 79
VStem: 0 113<170 397> 340 113<170 397>
LayerCount: 2
Fore
SplineSet
320 737 m 2xd6
 359 737 l 2
 374 737 385 722 380 707 c 0
 372 682 356 660 332 645 c 0
 299 624 258 621 222 638 c 2xd6
 197 650 l 2
 181 658 168 652 163 649 c 0
 160 647 155 642 151 635 c 0
 147 628 140 624 131 624 c 2
 95 624 l 2
 79 624 69 638 73 653 c 0
 81 679 98 701 121 716 c 0
 154 737 195 739 231 722 c 2xce
 257 710 l 2
 272 703 285 709 290 712 c 0xe6
 293 714 299 719 303 726 c 0
 306 733 312 737 320 737 c 2xd6
283 0 m 2
 170 0 l 2
 76 0 0 76 0 170 c 2
 0 397 l 2
 0 491 76 567 170 567 c 2
 283 567 l 2
 377 567 453 491 453 397 c 2
 453 170 l 2
 453 76 377 0 283 0 c 2
283 453 m 2
 170 453 l 2
 139 453 113 428 113 397 c 2
 113 170 l 2
 113 139 139 113 170 113 c 2
 283 113 l 2
 315 113 340 139 340 170 c 2
 340 397 l 2
 340 428 315 453 283 453 c 2
EndSplineSet
EndChar

StartChar: agrave
Encoding: 224 224 84
Width: 583
Flags: MW
HStem: 113 136<134.5 320 150 320> 363 90<116 150 150 263 263 279 116 320> 567 265
VStem: 93 227<170 193 193 208.5>
LayerCount: 2
Fore
SplineSet
211 810 m 2
 303 685 l 2
 320 663 317 631 298 611 c 2
 289 603 l 2
 280 594 266 594 257 603 c 2
 100 759 l 2
 91 768 91 782 100 791 c 2
 125 816 l 2
 149 840 190 838 211 810 c 2
377 0 m 2
 408 0 433 25 433 57 c 2
 433 397 l 2
 433 491 357 567 263 567 c 2
 82 567 l 2
 69 567 59 557 59 544 c 2
 59 510 l 2
 59 479 85 453 116 453 c 2
 263 453 l 2
 295 453 320 428 320 397 c 2
 320 363 l 1
 150 363 l 2
 56 363 -20 287 -20 193 c 2
 -20 170 l 2
 -20 76 56 0 150 0 c 2
 377 0 l 2
150 249 m 2
 320 249 l 1
 320 113 l 1
 150 113 l 2
 119 113 93 139 93 170 c 2
 93 193 l 2
 93 224 119 249 150 249 c 2
EndSplineSet
EndChar

StartChar: ograve
Encoding: 242 242 85
Width: 603
Flags: MW
HStem: 113 340<154.5 283 170 283> 567 265
VStem: 113 227<170 397>
LayerCount: 2
Fore
SplineSet
211 810 m 2
 303 685 l 2
 320 663 317 631 298 611 c 2
 289 603 l 2
 280 594 266 594 257 603 c 2
 100 759 l 2
 91 768 91 782 100 791 c 2
 125 816 l 2
 149 840 190 838 211 810 c 2
283 0 m 2
 377 0 453 76 453 170 c 2
 453 397 l 2
 453 491 377 567 283 567 c 2
 170 567 l 2
 76 567 0 491 0 397 c 2
 0 170 l 2
 0 76 76 0 170 0 c 2
 283 0 l 2
170 453 m 2
 283 453 l 2
 315 453 340 428 340 397 c 2
 340 170 l 2
 340 139 315 113 283 113 c 2
 170 113 l 2
 139 113 113 139 113 170 c 2
 113 397 l 2
 113 428 139 453 170 453 c 2
EndSplineSet
EndChar

StartChar: egrave
Encoding: 232 232 86
Width: 603
Flags: MW
HStem: 170 57<113 397 354.5 359 359 397 397 412.5 113 429> 340 113<113 283 170 283 283 299 170 340> 567 265
VStem: 113 227<170 397 227 397 340 397 340 412.5>
LayerCount: 2
Fore
SplineSet
211 810 m 2
 303 685 l 2
 320 663 317 631 298 611 c 2
 289 603 l 2
 280 594 266 594 257 603 c 2
 100 759 l 2
 91 768 91 782 100 791 c 2
 125 816 l 2
 149 840 190 838 211 810 c 2
283 0 m 2
 368 0 439 63 452 144 c 0
 454 158 443 170 429 170 c 2
 359 170 l 2
 350 170 341 164 338 154 c 0
 331 131 309 113 283 113 c 2
 170 113 l 2
 139 113 113 139 113 170 c 2
 113 227 l 1
 397 227 l 2
 428 227 453 252 453 283 c 2
 453 397 l 2
 453 491 377 567 283 567 c 2
 170 567 l 2
 76 567 0 491 0 397 c 2
 0 170 l 2
 0 76 76 0 170 0 c 2
 283 0 l 2
113 340 m 1
 113 397 l 2
 113 428 139 453 170 453 c 2
 283 453 l 2
 315 453 340 428 340 397 c 2
 340 340 l 1
 113 340 l 1
EndSplineSet
EndChar

StartChar: ugrave
Encoding: 249 249 87
Width: 603
Flags: MW
HStem: 0 832
VStem: 113 227<170 510>
LayerCount: 2
Fore
SplineSet
211 810 m 2
 303 685 l 2
 320 663 317 631 298 611 c 2
 289 603 l 2
 280 594 266 594 257 603 c 2
 100 759 l 2
 91 768 91 782 100 791 c 2
 125 816 l 2
 149 840 190 838 211 810 c 2
283 0 m 2
 377 0 453 76 453 170 c 2
 453 544 l 2
 453 557 443 567 431 567 c 2
 397 567 l 2
 365 567 340 541 340 510 c 2
 340 170 l 2
 340 139 315 113 283 113 c 2
 170 113 l 2
 139 113 113 139 113 170 c 2
 113 510 l 2
 113 541 88 567 57 567 c 2
 23 567 l 2
 10 567 0 557 0 544 c 2
 0 170 l 2
 0 76 76 0 170 0 c 2
 283 0 l 2
EndSplineSet
EndChar

StartChar: questiondown
Encoding: 191 191 88
Width: 593
Flags: MW
HStem: 0 113<216 220 220 228> 318 215<205 205 205 219 219 241 241 241> 567 170<215.5 262.5>
VStem: 1 113<213 213> 154 170<628.5 675.5> 182 114<430 454 454 510 454 454> 330 113<215 227 155.5 242.5>
LayerCount: 2
Fore
SplineSet
239 567 m 0xf8
 192 567 154 605 154 652 c 0
 154 699 192 737 239 737 c 0
 286 737 324 699 324 652 c 0
 324 605 286 567 239 567 c 0xf8
1 213 m 0
 0 313 67 398 160 423 c 1
 182 430 l 1
 182 454 l 1
 182 454 l 1xf8
 182 510 l 2
 182 523 192 533 205 533 c 1
 205 533 l 1
 250 533 l 1
 273 533 l 2
 285 533 296 523 296 510 c 2
 296 372 l 2
 296 342 271 318 241 318 c 1
 241 318 241 318 241 318 c 1
 219 318 l 2
 161 318 113 271 114 214 c 0
 115 158 161 113 216 113 c 2
 228 113 l 2
 284 113 330 159 330 215 c 2
 330 227 l 2
 330 258 355 284 386 284 c 1
 386 284 l 1
 418 284 443 258 443 227 c 2
 443 215 l 2xf6
 443 96 347 0 228 0 c 2
 220 0 l 2
 101 0 2 94 1 213 c 0
EndSplineSet
EndChar

StartChar: exclam
Encoding: 33 33 89
Width: 320
Flags: MW
HStem: 0 170<61.5 108.5> 717 20G<49 121 121 130.5>
VStem: 0 170<61.5 108.5>
LayerCount: 2
Fore
SplineSet
153 703 m 2
 124 238 l 2
 123 225 112 215 99 215 c 2
 70 215 l 2
 58 215 47 225 46 238 c 2
 17 703 l 2
 16 721 30 737 49 737 c 2
 121 737 l 2
 140 737 154 721 153 703 c 2
85 170 m 0
 132 170 170 132 170 85 c 0
 170 38 132 0 85 0 c 0
 38 0 0 38 0 85 c 0
 0 132 38 170 85 170 c 0
EndSplineSet
EndChar

StartChar: Aacute
Encoding: 193 193 90
Width: 626
Flags: MW
HStem: 0 21G<16.5 23 23 57 403.5 419 419 453> 261 113<113 363 113 363> 624 113<154.5 306 170 306>
VStem: 0 113<41 57 57 261 374 567> 363 113<57 261 261 261 374 567>
LayerCount: 2
Fore
SplineSet
300 990 m 2
 321 1018 362 1020 386 996 c 2
 411 971 l 2
 420 962 420 948 411 939 c 2
 254 783 l 2
 245 774 231 774 222 783 c 2
 213 791 l 2
 194 811 191 843 208 865 c 2
 300 990 l 2
306 737 m 2
 400 737 476 661 476 567 c 2
 476 23 l 2
 476 10 466 0 453 0 c 2
 419 0 l 2
 388 0 363 25 363 57 c 2
 363 261 l 1
 113 261 l 1
 113 57 l 2
 113 25 88 0 57 0 c 2
 23 0 l 2
 10 0 0 10 0 23 c 2
 0 567 l 2
 0 661 76 737 170 737 c 2
 306 737 l 2
113 374 m 1
 363 374 l 1
 363 567 l 2
 363 598 337 624 306 624 c 2
 170 624 l 2
 139 624 113 598 113 567 c 2
 113 374 l 1
EndSplineSet
EndChar

StartChar: Eacute
Encoding: 201 201 91
Width: 626
Flags: MW
HStem: 0 113<41 419 113 419 419 435 113 453> 317 114<113 351 351 367 113 385 113 351> 624 113<113 419 113 113>
VStem: 0 113<113 317 431 624>
LayerCount: 2
Fore
SplineSet
300 990 m 2
 321 1018 362 1020 386 996 c 2
 411 971 l 2
 420 962 420 948 411 939 c 2
 254 783 l 2
 245 774 231 774 222 783 c 2
 213 791 l 2
 194 811 191 843 208 865 c 2
 300 990 l 2
476 680 m 2
 476 649 451 624 419 624 c 2
 113 624 l 1
 113 431 l 1
 351 431 l 2
 383 431 408 405 408 374 c 2
 408 340 l 2
 408 328 398 317 385 317 c 2
 113 317 l 1
 113 113 l 1
 419 113 l 2
 451 113 476 88 476 57 c 2
 476 23 l 2
 476 10 466 0 453 0 c 2
 57 0 l 2
 25 0 0 25 0 57 c 2
 0 680 l 2
 0 712 25 737 57 737 c 2
 453 737 l 2
 466 737 476 727 476 714 c 2
 476 680 l 2
EndSplineSet
EndChar

StartChar: Oacute
Encoding: 211 211 92
Width: 626
Flags: MW
HStem: 0 1012
VStem: 113 250<170 567>
LayerCount: 2
Fore
SplineSet
300 990 m 2
 321 1018 362 1020 386 996 c 2
 411 971 l 2
 420 962 420 948 411 939 c 2
 254 783 l 2
 245 774 231 774 222 783 c 2
 213 791 l 2
 194 811 191 843 208 865 c 2
 300 990 l 2
306 0 m 2
 400 0 476 76 476 170 c 2
 476 567 l 2
 476 661 400 737 306 737 c 2
 170 737 l 2
 76 737 0 661 0 567 c 2
 0 170 l 2
 0 76 76 0 170 0 c 2
 306 0 l 2
170 624 m 2
 306 624 l 2
 337 624 363 598 363 567 c 2
 363 170 l 2
 363 139 337 113 306 113 c 2
 170 113 l 2
 139 113 113 139 113 170 c 2
 113 567 l 2
 113 598 139 624 170 624 c 2
EndSplineSet
EndChar

StartChar: Uacute
Encoding: 218 218 93
Width: 626
Flags: MW
HStem: 0 1012
VStem: 113 250<170 680>
LayerCount: 2
Fore
SplineSet
300 990 m 2
 321 1018 362 1020 386 996 c 2
 411 971 l 2
 420 962 420 948 411 939 c 2
 254 783 l 2
 245 774 231 774 222 783 c 2
 213 791 l 2
 194 811 191 843 208 865 c 2
 300 990 l 2
306 0 m 2
 400 0 476 76 476 170 c 2
 476 714 l 2
 476 727 466 737 453 737 c 2
 419 737 l 2
 388 737 363 712 363 680 c 2
 363 170 l 2
 363 139 337 113 306 113 c 2
 170 113 l 2
 139 113 113 139 113 170 c 2
 113 680 l 2
 113 712 88 737 57 737 c 2
 23 737 l 2
 10 737 0 727 0 714 c 2
 0 170 l 2
 0 76 76 0 170 0 c 2
 306 0 l 2
EndSplineSet
EndChar

StartChar: Agrave
Encoding: 192 192 94
Width: 626
Flags: MW
HStem: 0 21G<16.5 23 23 57 403.5 419 419 453> 261 113<113 363 113 363> 624 113<154.5 306 170 306>
VStem: 0 113<41 57 57 261 374 567> 363 113<57 261 261 261 374 567>
LayerCount: 2
Fore
SplineSet
211 990 m 2
 303 865 l 2
 320 843 317 811 298 791 c 2
 289 783 l 2
 280 774 266 774 257 783 c 2
 100 939 l 2
 91 948 91 962 100 971 c 2
 125 996 l 2
 149 1020 190 1018 211 990 c 2
306 737 m 2
 400 737 476 661 476 567 c 2
 476 23 l 2
 476 10 466 0 453 0 c 2
 419 0 l 2
 388 0 363 25 363 57 c 2
 363 261 l 1
 113 261 l 1
 113 57 l 2
 113 25 88 0 57 0 c 2
 23 0 l 2
 10 0 0 10 0 23 c 2
 0 567 l 2
 0 661 76 737 170 737 c 2
 306 737 l 2
113 374 m 1
 363 374 l 1
 363 567 l 2
 363 598 337 624 306 624 c 2
 170 624 l 2
 139 624 113 598 113 567 c 2
 113 374 l 1
EndSplineSet
EndChar

StartChar: Egrave
Encoding: 200 200 95
Width: 626
Flags: MW
HStem: 0 113<41 419 113 419 419 435 113 453> 317 114<113 351 351 367 113 385 113 351> 624 113<113 419 113 113>
VStem: 0 113<113 317 431 624>
LayerCount: 2
Fore
SplineSet
211 990 m 2
 303 865 l 2
 320 843 317 811 298 791 c 2
 289 783 l 2
 280 774 266 774 257 783 c 2
 100 939 l 2
 91 948 91 962 100 971 c 2
 125 996 l 2
 149 1020 190 1018 211 990 c 2
476 680 m 2
 476 649 451 624 419 624 c 2
 113 624 l 1
 113 431 l 1
 351 431 l 2
 383 431 408 405 408 374 c 2
 408 340 l 2
 408 328 398 317 385 317 c 2
 113 317 l 1
 113 113 l 1
 419 113 l 2
 451 113 476 88 476 57 c 2
 476 23 l 2
 476 10 466 0 453 0 c 2
 57 0 l 2
 25 0 0 25 0 57 c 2
 0 680 l 2
 0 712 25 737 57 737 c 2
 453 737 l 2
 466 737 476 727 476 714 c 2
 476 680 l 2
EndSplineSet
EndChar

StartChar: Ograve
Encoding: 210 210 96
Width: 626
Flags: MW
HStem: 0 1012
VStem: 113 250<170 567>
LayerCount: 2
Fore
SplineSet
211 990 m 2
 303 865 l 2
 320 843 317 811 298 791 c 2
 289 783 l 2
 280 774 266 774 257 783 c 2
 100 939 l 2
 91 948 91 962 100 971 c 2
 125 996 l 2
 149 1020 190 1018 211 990 c 2
306 0 m 2
 400 0 476 76 476 170 c 2
 476 567 l 2
 476 661 400 737 306 737 c 2
 170 737 l 2
 76 737 0 661 0 567 c 2
 0 170 l 2
 0 76 76 0 170 0 c 2
 306 0 l 2
170 624 m 2
 306 624 l 2
 337 624 363 598 363 567 c 2
 363 170 l 2
 363 139 337 113 306 113 c 2
 170 113 l 2
 139 113 113 139 113 170 c 2
 113 567 l 2
 113 598 139 624 170 624 c 2
EndSplineSet
EndChar

StartChar: Ugrave
Encoding: 217 217 97
Width: 626
Flags: MW
HStem: 0 1012
VStem: 113 250<170 680>
LayerCount: 2
Fore
SplineSet
211 990 m 2
 303 865 l 2
 320 843 317 811 298 791 c 2
 289 783 l 2
 280 774 266 774 257 783 c 2
 100 939 l 2
 91 948 91 962 100 971 c 2
 125 996 l 2
 149 1020 190 1018 211 990 c 2
306 0 m 2
 400 0 476 76 476 170 c 2
 476 714 l 2
 476 727 466 737 453 737 c 2
 419 737 l 2
 388 737 363 712 363 680 c 2
 363 170 l 2
 363 139 337 113 306 113 c 2
 170 113 l 2
 139 113 113 139 113 170 c 2
 113 680 l 2
 113 712 88 737 57 737 c 2
 23 737 l 2
 10 737 0 727 0 714 c 2
 0 170 l 2
 0 76 76 0 170 0 c 2
 306 0 l 2
EndSplineSet
EndChar

StartChar: Adieresis
Encoding: 196 196 98
Width: 626
Flags: MW
HStem: 0 21G<16.5 23 23 57 403.5 419 419 453> 261 113<113 363 113 363> 624 113<154.5 306 170 306> 771 136<128 166 309.5 347>
VStem: 0 113<41 57 57 261 374 567> 79 136<820 858> 260 136<820 858> 363 113<57 261 261 261 374 567>
LayerCount: 2
Fore
SplineSet
147 907 m 0xf9
 185 907 215 877 215 839 c 0
 215 801 185 771 147 771 c 0
 109 771 79 801 79 839 c 0
 79 877 109 907 147 907 c 0xf9
328 907 m 0
 366 907 396 877 396 839 c 0
 396 801 366 771 328 771 c 0
 291 771 260 801 260 839 c 0
 260 877 291 907 328 907 c 0
306 737 m 2
 400 737 476 661 476 567 c 2
 476 23 l 2xf6
 476 10 466 0 453 0 c 2
 419 0 l 2
 388 0 363 25 363 57 c 2
 363 261 l 1
 113 261 l 1
 113 57 l 2
 113 25 88 0 57 0 c 2
 23 0 l 2
 10 0 0 10 0 23 c 2
 0 567 l 2
 0 661 76 737 170 737 c 2
 306 737 l 2
113 374 m 1
 363 374 l 1
 363 567 l 2
 363 598 337 624 306 624 c 2
 170 624 l 2
 139 624 113 598 113 567 c 2
 113 374 l 1
EndSplineSet
EndChar

StartChar: Edieresis
Encoding: 203 203 99
Width: 626
Flags: MW
HStem: 0 113<41 419 113 419 419 435 113 453> 317 114<113 351 351 367 113 385 113 351> 624 113<113 419 113 113> 771 136<128 166 309.5 347>
VStem: 0 113<113 317 431 624> 79 136<820 858> 260 136<820 858>
LayerCount: 2
Fore
SplineSet
147 907 m 0xf6
 185 907 215 877 215 839 c 0
 215 801 185 771 147 771 c 0
 109 771 79 801 79 839 c 0
 79 877 109 907 147 907 c 0xf6
328 907 m 0
 366 907 396 877 396 839 c 0
 396 801 366 771 328 771 c 0
 291 771 260 801 260 839 c 0
 260 877 291 907 328 907 c 0
476 680 m 2
 476 649 451 624 419 624 c 2
 113 624 l 1
 113 431 l 1
 351 431 l 2
 383 431 408 405 408 374 c 2
 408 340 l 2
 408 328 398 317 385 317 c 2
 113 317 l 1
 113 113 l 1
 419 113 l 2
 451 113 476 88 476 57 c 2
 476 23 l 2
 476 10 466 0 453 0 c 2
 57 0 l 2
 25 0 0 25 0 57 c 2
 0 680 l 2
 0 712 25 737 57 737 c 2xe8
 453 737 l 2
 466 737 476 727 476 714 c 2
 476 680 l 2
EndSplineSet
EndChar

StartChar: Odieresis
Encoding: 214 214 100
Width: 626
Flags: MW
HStem: 737 170<128 166 128 170 128 306>
VStem: 79 136<820 858> 113 250<170 567> 260 136<820 858>
LayerCount: 2
Fore
SplineSet
147 907 m 0xa0
 185 907 215 877 215 839 c 0
 215 801 185 771 147 771 c 0
 109 771 79 801 79 839 c 0
 79 877 109 907 147 907 c 0xa0
328 907 m 0
 366 907 396 877 396 839 c 0
 396 801 366 771 328 771 c 0
 291 771 260 801 260 839 c 0
 260 877 291 907 328 907 c 0
306 0 m 2
 400 0 476 76 476 170 c 2
 476 567 l 2
 476 661 400 737 306 737 c 2
 170 737 l 2
 76 737 0 661 0 567 c 2
 0 170 l 2
 0 76 76 0 170 0 c 2
 306 0 l 2
170 624 m 2xa0
 306 624 l 2
 337 624 363 598 363 567 c 2
 363 170 l 2
 363 139 337 113 306 113 c 2
 170 113 l 2
 139 113 113 139 113 170 c 2
 113 567 l 2
 113 598 139 624 170 624 c 2xa0
EndSplineSet
EndChar

StartChar: Ydieresis
Encoding: 376 376 101
Width: 633
Flags: MW
HStem: 0 21G<200.5 207 207 276> 717 20G<-28 33 33 42.5 449 510 510 518.5> 771 136<137 175 318.5 356>
VStem: 88 136<820 858> 185 113<22 265> 269 136<820 858>
LayerCount: 2
Fore
SplineSet
156 907 m 0xf4
 194 907 224 877 224 839 c 0
 224 801 194 771 156 771 c 0
 118 771 88 801 88 839 c 0
 88 877 118 907 156 907 c 0xf4
337 907 m 0
 375 907 405 877 405 839 c 0
 405 801 375 771 337 771 c 0
 300 771 269 801 269 839 c 0
 269 877 300 907 337 907 c 0
510 737 m 2
 527 737 537 719 530 705 c 2
 298 265 l 1
 298 22 l 2
 298 10 288 0 276 0 c 2
 207 0 l 2
 194 0 185 10 185 22 c 2
 185 265 l 1xe8
 -47 705 l 2
 -55 719 -45 737 -28 737 c 2
 33 737 l 2
 52 737 69 727 77 710 c 2
 241 400 l 1
 405 710 l 2
 413 727 430 737 449 737 c 2
 510 737 l 2
EndSplineSet
EndChar

StartChar: Udieresis
Encoding: 220 220 102
Width: 626
Flags: MW
HStem: 771 136<128 166 309.5 347>
VStem: 79 136<820 858> 113 250<170 680> 260 136<820 858>
LayerCount: 2
Fore
SplineSet
147 907 m 0xd0
 185 907 215 877 215 839 c 0
 215 801 185 771 147 771 c 0
 109 771 79 801 79 839 c 0
 79 877 109 907 147 907 c 0xd0
328 907 m 0
 366 907 396 877 396 839 c 0
 396 801 366 771 328 771 c 0
 291 771 260 801 260 839 c 0
 260 877 291 907 328 907 c 0
306 0 m 2
 400 0 476 76 476 170 c 2
 476 714 l 2
 476 727 466 737 453 737 c 2
 419 737 l 2
 388 737 363 712 363 680 c 2
 363 170 l 2
 363 139 337 113 306 113 c 2
 170 113 l 2
 139 113 113 139 113 170 c 2
 113 680 l 2
 113 712 88 737 57 737 c 2
 23 737 l 2xa0
 10 737 0 727 0 714 c 2
 0 170 l 2
 0 76 76 0 170 0 c 2
 306 0 l 2
EndSplineSet
EndChar

StartChar: Otilde
Encoding: 213 213 103
Width: 626
Flags: MW
HStem: 0 113<123 306 170 306> 624 113<154.5 306 170 306> 777 80 804 79
VStem: 0 113<170 567> 363 113<170 567>
LayerCount: 2
Fore
SplineSet
330 887 m 2xec
 369 887 l 2
 384 887 395 872 390 857 c 0
 382 832 366 810 342 795 c 0
 309 774 268 771 232 788 c 2xec
 207 800 l 2
 191 808 178 802 173 799 c 0
 170 797 165 792 161 785 c 0
 157 778 150 774 141 774 c 2
 105 774 l 2
 89 774 79 788 83 803 c 0
 91 829 108 851 131 866 c 0
 164 887 205 889 241 872 c 2xdc
 267 860 l 2
 282 853 295 859 300 862 c 0
 303 864 309 869 313 876 c 0
 316 883 322 887 330 887 c 2xec
306 0 m 2
 170 0 l 2
 76 0 0 76 0 170 c 2
 0 567 l 2
 0 661 76 737 170 737 c 2
 306 737 l 2
 400 737 476 661 476 567 c 2
 476 170 l 2
 476 76 400 0 306 0 c 2
170 624 m 2
 139 624 113 598 113 567 c 2
 113 170 l 2
 113 139 139 113 170 113 c 2
 306 113 l 2
 337 113 363 139 363 170 c 2
 363 567 l 2
 363 598 337 624 306 624 c 2
 170 624 l 2
EndSplineSet
EndChar

StartChar: Ntilde
Encoding: 209 209 104
Width: 626
Flags: MW
HStem: 0 21G<16.5 23 23 57 389.5 400 400 453> 717 20G<23 76 76 87 419 453 453 459.5> 777 80 804 79
VStem: 0 113<41 57 57 486> 363 113<251 680 680 696>
LayerCount: 2
Fore
SplineSet
330 887 m 2xec
 369 887 l 2
 384 887 395 872 390 857 c 0
 382 832 366 810 342 795 c 0
 309 774 268 771 232 788 c 2xec
 207 800 l 2
 191 808 178 802 173 799 c 0
 170 797 165 792 161 785 c 0
 157 778 150 774 141 774 c 2
 105 774 l 2
 89 774 79 788 83 803 c 0
 91 829 108 851 131 866 c 0
 164 887 205 889 241 872 c 2xdc
 267 860 l 2
 282 853 295 859 300 862 c 0
 303 864 309 869 313 876 c 0
 316 883 322 887 330 887 c 2xec
453 737 m 2
 466 737 476 727 476 714 c 2
 476 23 l 2
 476 10 466 0 453 0 c 2
 400 0 l 2
 379 0 359 12 349 31 c 2
 113 486 l 1
 113 57 l 2
 113 25 88 0 57 0 c 2
 23 0 l 2
 10 0 0 10 0 23 c 2
 0 714 l 2
 0 727 10 737 23 737 c 2
 76 737 l 2
 98 737 117 725 127 706 c 2
 363 251 l 1
 363 680 l 2
 363 712 388 737 419 737 c 2
 453 737 l 2
EndSplineSet
EndChar

StartChar: Atilde
Encoding: 195 195 105
Width: 626
Flags: MW
HStem: 0 21G<16.5 23 23 57 403.5 419 419 453> 261 113<113 363 113 363> 624 113<154.5 306 170 306> 777 80 804 79
VStem: 0 113<41 57 57 261 374 567> 363 113<57 261 261 261 374 567>
LayerCount: 2
Fore
SplineSet
330 887 m 2xf6
 369 887 l 2
 384 887 395 872 390 857 c 0
 382 832 366 810 342 795 c 0
 309 774 268 771 232 788 c 2xf6
 207 800 l 2
 191 808 178 802 173 799 c 0
 170 797 165 792 161 785 c 0
 157 778 150 774 141 774 c 2
 105 774 l 2
 89 774 79 788 83 803 c 0
 91 829 108 851 131 866 c 0
 164 887 205 889 241 872 c 2xee
 267 860 l 2
 282 853 295 859 300 862 c 0
 303 864 309 869 313 876 c 0
 316 883 322 887 330 887 c 2xf6
306 737 m 2
 400 737 476 661 476 567 c 2
 476 23 l 2
 476 10 466 0 453 0 c 2
 419 0 l 2
 388 0 363 25 363 57 c 2
 363 261 l 1
 113 261 l 1
 113 57 l 2
 113 25 88 0 57 0 c 2
 23 0 l 2
 10 0 0 10 0 23 c 2
 0 567 l 2
 0 661 76 737 170 737 c 2
 306 737 l 2
113 374 m 1
 363 374 l 1
 363 567 l 2
 363 598 337 624 306 624 c 2
 170 624 l 2
 139 624 113 598 113 567 c 2
 113 374 l 1
EndSplineSet
EndChar

StartChar: Yacute
Encoding: 221 221 106
Width: 633
Flags: MW
HStem: 0 21G<200.5 207 207 276> 717 20G<-28 33 33 42.5 449 510 510 518.5>
VStem: 185 113<22 265>
LayerCount: 2
Fore
SplineSet
294 990 m 2
 315 1018 356 1020 380 996 c 2
 405 971 l 2
 414 962 414 948 405 939 c 2
 248 783 l 2
 239 774 225 774 216 783 c 2
 207 791 l 2
 188 811 185 843 202 865 c 2
 294 990 l 2
510 737 m 2
 527 737 537 719 530 705 c 2
 298 265 l 1
 298 22 l 2
 298 10 288 0 276 0 c 2
 207 0 l 2
 194 0 185 10 185 22 c 2
 185 265 l 1
 -47 705 l 2
 -55 719 -45 737 -28 737 c 2
 33 737 l 2
 52 737 69 727 77 710 c 2
 241 400 l 1
 405 710 l 2
 413 727 430 737 449 737 c 2
 510 737 l 2
EndSplineSet
EndChar

StartChar: yacute
Encoding: 253 253 107
Width: 601
Flags: MW
HStem: -170 21G<123 131 131 180> 547 20G<-6 42 42 54 409 458 458 466>
VStem: -29 509
LayerCount: 2
Fore
SplineSet
282 810 m 2
 303 838 344 840 368 816 c 2
 393 791 l 2
 402 782 402 768 393 759 c 2
 236 603 l 2
 227 594 213 594 204 603 c 2
 195 611 l 2
 176 631 173 663 190 685 c 2
 282 810 l 2
131 -170 m 2
 115 -170 104 -154 110 -140 c 2
 165 11 l 1
 -28 536 l 2
 -33 551 -22 567 -6 567 c 2
 42 567 l 2
 66 567 87 552 96 530 c 2
 226 175 l 1
 356 530 l 2
 364 552 385 567 409 567 c 2
 458 567 l 2
 474 567 484 551 479 536 c 2
 233 -133 l 2
 225 -155 204 -170 180 -170 c 2
 131 -170 l 2
EndSplineSet
EndChar

StartChar: ydieresis
Encoding: 255 255 108
Width: 601
Flags: MW
HStem: -170 21G<123 131 131 180> 547 20G<-6 42 42 54 409 458 458 466> 601 136<117 155 298.5 336>
VStem: 68 136<650 688> 249 136<650 688>
LayerCount: 2
Fore
SplineSet
136 737 m 0
 174 737 204 707 204 669 c 0
 204 631 174 601 136 601 c 0
 98 601 68 631 68 669 c 0
 68 707 98 737 136 737 c 0
317 737 m 0
 355 737 385 707 385 669 c 0
 385 631 355 601 317 601 c 0
 280 601 249 631 249 669 c 0
 249 707 280 737 317 737 c 0
131 -170 m 2
 115 -170 104 -154 110 -140 c 2
 165 11 l 1
 -28 536 l 2
 -33 551 -22 567 -6 567 c 2
 42 567 l 2
 66 567 87 552 96 530 c 2
 226 175 l 1
 356 530 l 2
 364 552 385 567 409 567 c 2
 458 567 l 2
 474 567 484 551 479 536 c 2
 233 -133 l 2
 225 -155 204 -170 180 -170 c 2
 131 -170 l 2
EndSplineSet
EndChar

StartChar: bullet
Encoding: 8226 8226 109
Width: 422
Flags: MW
HStem: 30 272<98 174>
VStem: 0 272<128 204>
LayerCount: 2
Fore
SplineSet
272 166 m 0
 272 90 212 30 136 30 c 0
 60 30 0 90 0 166 c 0
 0 242 60 302 136 302 c 0
 212 302 272 242 272 166 c 0
EndSplineSet
EndChar

StartChar: semicolon
Encoding: 59 59 110
Width: 288
Flags: MW
HStem: 1 21G 232 136<49 87>
VStem: 0 136<281 319>
LayerCount: 2
Fore
SplineSet
136 68 m 0
 142 16 123 -31 81 -83 c 0
 78 -87 72 -88 68 -86 c 1
 68 -86 l 1
 56 -81 52 -67 57 -56 c 0
 65 -41 74 -20 76 1 c 1
 76 0 76 0 76 0 c 1
 42 -4 9 19 2 52 c 0
 -8 97 25 136 68 136 c 0
 106 136 132 105 136 68 c 0
136 300 m 0
 136 262 106 232 68 232 c 0
 30 232 0 262 0 300 c 0
 0 338 30 368 68 368 c 0
 106 368 136 338 136 300 c 0
EndSplineSet
EndChar

StartChar: colon
Encoding: 58 58 111
Width: 286
Flags: MW
HStem: 0 136<49 87> 232 136<49 87>
VStem: 0 136<49 87 281 319>
LayerCount: 2
Fore
SplineSet
136 300 m 0
 136 262 106 232 68 232 c 0
 30 232 0 262 0 300 c 0
 0 338 30 368 68 368 c 0
 106 368 136 338 136 300 c 0
136 68 m 0
 136 30 106 0 68 0 c 0
 30 0 0 30 0 68 c 0
 0 106 30 136 68 136 c 0
 106 136 136 106 136 68 c 0
EndSplineSet
EndChar

StartChar: b
Encoding: 98 98 112
Width: 603
Flags: MW
HStem: 0 113<16.5 283 113 283 113 283> 453 114<113 283 113 283> 717 20G<23 57 57 72.5>
VStem: 0 113<113 113 113 453 567 680> 340 113<170 397>
LayerCount: 2
Fore
SplineSet
283 0 m 2
 23 0 l 2
 10 0 0 10 0 23 c 2
 0 714 l 2
 0 727 10 737 23 737 c 2
 57 737 l 2
 88 737 113 712 113 680 c 2
 113 567 l 1
 283 567 l 2
 377 567 453 491 453 397 c 2
 453 170 l 2
 453 76 377 0 283 0 c 2
113 113 m 1
 283 113 l 2
 315 113 340 139 340 170 c 2
 340 397 l 2
 340 428 315 453 283 453 c 2
 113 453 l 1
 113 113 l 1
EndSplineSet
EndChar

StartChar: c
Encoding: 99 99 113
Width: 578
Flags: MW
HStem: 0 113<123 283 170 283> 453 114<154.5 283 170 283>
VStem: 0 113<170 397>
LayerCount: 2
Fore
SplineSet
283 0 m 2
 170 0 l 2
 76 0 0 76 0 170 c 2
 0 397 l 2
 0 491 76 567 170 567 c 2
 283 567 l 2
 368 567 439 504 452 423 c 0
 454 409 443 397 429 397 c 2
 359 397 l 2
 350 397 341 403 338 413 c 0
 331 436 309 453 283 453 c 2
 170 453 l 2
 139 453 113 428 113 397 c 2
 113 170 l 2
 113 139 139 113 170 113 c 2
 283 113 l 2
 309 113 331 131 338 154 c 0
 341 164 350 170 359 170 c 2
 429 170 l 2
 443 170 454 158 452 144 c 0
 439 63 368 0 283 0 c 2
EndSplineSet
EndChar

StartChar: a
Encoding: 97 97 114
Width: 583
Flags: MW
HStem: 0 113<103 320 150 320 150 377> 249 114<134.5 320 150 320> 453 114<100.5 116 116 263>
VStem: -20 113<170 193 154.5 240> 320 113<113 249 249 249 363 397>
LayerCount: 2
Fore
SplineSet
377 0 m 2
 150 0 l 2
 56 0 -20 76 -20 170 c 2
 -20 193 l 2
 -20 287 56 363 150 363 c 2
 320 363 l 1
 320 397 l 2
 320 428 295 453 263 453 c 2
 116 453 l 2
 85 453 59 479 59 510 c 2
 59 544 l 2
 59 557 69 567 82 567 c 2
 263 567 l 2
 357 567 433 491 433 397 c 2
 433 57 l 2
 433 25 408 0 377 0 c 2
150 249 m 2
 119 249 93 224 93 193 c 2
 93 170 l 2
 93 139 119 113 150 113 c 2
 320 113 l 1
 320 249 l 1
 150 249 l 2
EndSplineSet
EndChar

StartChar: underscore
Encoding: 95 95 115
Width: 804
Flags: MW
HStem: 0 113<18 629 25 629>
VStem: 0 654<25 88 18 95>
LayerCount: 2
Fore
SplineSet
654 88 m 2
 654 25 l 2
 654 11 642 0 629 0 c 2
 25 0 l 2
 11 0 0 11 0 25 c 2
 0 88 l 2
 0 102 11 113 25 113 c 2
 629 113 l 2
 642 113 654 102 654 88 c 2
EndSplineSet
EndChar

StartChar: acute
Encoding: 180 180 116
Width: 322
Flags: MW
HStem: 596 236
VStem: 1 221
LayerCount: 2
Fore
SplineSet
104 810 m 2
 125 838 166 840 190 816 c 2
 215 791 l 2
 224 782 224 768 215 759 c 2
 58 603 l 2
 49 594 35 594 26 603 c 2
 17 611 l 2
 -2 631 -5 663 12 685 c 2
 104 810 l 2
EndSplineSet
EndChar

StartChar: grave
Encoding: 96 96 117
Width: 322
Flags: MW
HStem: 596 236
VStem: 0 221
LayerCount: 2
Fore
SplineSet
118 810 m 2
 210 685 l 2
 227 663 224 631 205 611 c 2
 196 603 l 2
 187 594 173 594 164 603 c 2
 7 759 l 2
 -2 768 -2 782 7 791 c 2
 32 816 l 2
 56 840 97 838 118 810 c 2
EndSplineSet
EndChar

StartChar: iacute
Encoding: 237 237 118
Width: 272
Flags: MW
HStem: 0 21G<19.5 26 26 94> 547 20G<26 94 94 100>
VStem: 3 113<23 544>
LayerCount: 2
Fore
SplineSet
94 567 m 2
 106 567 116 557 116 544 c 2
 116 23 l 2
 116 10 106 0 94 0 c 2
 26 0 l 2
 13 0 3 10 3 23 c 2
 3 544 l 2
 3 557 13 567 26 567 c 2
 94 567 l 2
104 810 m 2
 125 838 166 840 190 816 c 2
 215 791 l 2
 224 782 224 768 215 759 c 2
 58 603 l 2
 49 594 35 594 26 603 c 2
 17 611 l 2
 -2 631 -5 663 12 685 c 2
 104 810 l 2
EndSplineSet
EndChar

StartChar: igrave
Encoding: 236 236 119
Width: 262
Flags: MW
HStem: 0 21G<15.5 22 22 90> 547 20G<22 90 90 96>
VStem: -1 113<23 544>
LayerCount: 2
Fore
SplineSet
90 567 m 2
 102 567 112 557 112 544 c 2
 112 23 l 2
 112 10 102 0 90 0 c 2
 22 0 l 2
 9 0 -1 10 -1 23 c 2
 -1 544 l 2
 -1 557 9 567 22 567 c 2
 90 567 l 2
23 810 m 2
 115 685 l 2
 132 663 129 631 110 611 c 2
 101 603 l 2
 92 594 78 594 69 603 c 2
 -88 759 l 2
 -97 768 -97 782 -88 791 c 2
 -63 816 l 2
 -39 840 2 838 23 810 c 2
EndSplineSet
EndChar

StartChar: Iacute
Encoding: 205 205 120
Width: 272
Flags: MW
HStem: 0 1012
VStem: 0 222
LayerCount: 2
Fore
SplineSet
104 990 m 2
 125 1018 166 1020 190 996 c 2
 215 971 l 2
 224 962 224 948 215 939 c 2
 58 783 l 2
 49 774 35 774 26 783 c 2
 17 791 l 2
 -2 811 -5 843 12 865 c 2
 104 990 l 2
91 0 m 2
 103 0 113 10 113 23 c 2
 113 680 l 2
 113 712 88 737 57 737 c 2
 23 737 l 2
 10 737 0 727 0 714 c 2
 0 23 l 2
 0 10 10 0 23 0 c 2
 91 0 l 2
EndSplineSet
EndChar

StartChar: Igrave
Encoding: 204 204 121
Width: 263
Flags: MW
HStem: 0 1012
VStem: -89 221
LayerCount: 2
Fore
SplineSet
29 990 m 2
 121 865 l 2
 138 843 135 811 116 791 c 2
 107 783 l 2
 98 774 84 774 75 783 c 2
 -82 939 l 2
 -91 948 -91 962 -82 971 c 2
 -57 996 l 2
 -33 1020 8 1018 29 990 c 2
91 0 m 2
 103 0 113 10 113 23 c 2
 113 680 l 2
 113 712 88 737 57 737 c 2
 23 737 l 2
 10 737 0 727 0 714 c 2
 0 23 l 2
 0 10 10 0 23 0 c 2
 91 0 l 2
EndSplineSet
EndChar

StartChar: endash
Encoding: 8211 8211 122
Width: 567
Flags: MW
HStem: 187 113<18 392 25 392>
VStem: 0 417<212 275 205 282>
LayerCount: 2
Fore
SplineSet
417 275 m 2
 417 212 l 2
 417 198 405 187 392 187 c 2
 25 187 l 2
 11 187 0 198 0 212 c 2
 0 275 l 2
 0 289 11 300 25 300 c 2
 392 300 l 2
 405 300 417 289 417 275 c 2
EndSplineSet
EndChar

StartChar: emdash
Encoding: 8212 8212 123
Width: 737
Flags: MW
HStem: 187 113<18 562 25 562>
VStem: 0 587<212 275 205 282>
LayerCount: 2
Fore
SplineSet
587 275 m 2
 587 212 l 2
 587 198 575 187 562 187 c 2
 25 187 l 2
 11 187 0 198 0 212 c 2
 0 275 l 2
 0 289 11 300 25 300 c 2
 562 300 l 2
 575 300 587 289 587 275 c 2
EndSplineSet
EndChar

StartChar: tilde
Encoding: 732 732 124
Width: 460
Flags: MW
HStem: 627 80 627 110 654 79
VStem: 1 308
LayerCount: 2
Fore
SplineSet
248 737 m 2x50
 287 737 l 2
 302 737 313 722 308 707 c 0
 300 682 284 660 260 645 c 0
 227 624 186 621 150 638 c 2x50
 125 650 l 2
 109 658 96 652 91 649 c 0
 88 647 83 642 79 635 c 0
 75 628 68 624 59 624 c 2
 23 624 l 2
 7 624 -3 638 1 653 c 0
 9 679 26 701 49 716 c 0
 82 737 123 739 159 722 c 2x30
 185 710 l 2
 200 703 213 709 218 712 c 0x90
 221 714 227 719 231 726 c 0
 234 733 240 737 248 737 c 2x50
EndSplineSet
EndChar

StartChar: idieresis
Encoding: 239 239 125
Width: 277
Flags: MW
HStem: 0 21G<22.5 29 29 97> 547 20G<29 97 97 103> 601 136<-46 -8 135.5 173>
VStem: -95 136<650 688> 6 113<23 544> 86 136<650 688>
LayerCount: 2
Fore
SplineSet
-27 737 m 0xf4
 11 737 41 707 41 669 c 0
 41 631 11 601 -27 601 c 0
 -65 601 -95 631 -95 669 c 0
 -95 707 -65 737 -27 737 c 0xf4
154 737 m 0
 192 737 222 707 222 669 c 0
 222 631 192 601 154 601 c 0
 117 601 86 631 86 669 c 0
 86 707 117 737 154 737 c 0
97 567 m 2xe8
 109 567 119 557 119 544 c 2
 119 23 l 2
 119 10 109 0 97 0 c 2
 29 0 l 2
 16 0 6 10 6 23 c 2
 6 544 l 2
 6 557 16 567 29 567 c 2
 97 567 l 2xe8
EndSplineSet
EndChar

StartChar: dieresis
Encoding: 168 168 126
Width: 467
Flags: MW
HStem: 601 136<49 87 230.5 268>
VStem: 0 136<650 688> 181 136<650 688>
LayerCount: 2
Fore
SplineSet
68 737 m 0
 106 737 136 707 136 669 c 0
 136 631 106 601 68 601 c 0
 30 601 0 631 0 669 c 0
 0 707 30 737 68 737 c 0
249 737 m 0
 287 737 317 707 317 669 c 0
 317 631 287 601 249 601 c 0
 212 601 181 631 181 669 c 0
 181 707 212 737 249 737 c 0
EndSplineSet
EndChar

StartChar: aring
Encoding: 229 229 127
Width: 583
Flags: MW
HStem: 0 113<103 320 150 320 150 377> 249 114<134.5 320 150 320> 453 114<100.5 116 116 263> 603 90<219 234.5 219 259.5> 749 90<219 234.5>
VStem: -20 113<170 193 154.5 240> 109 90<713 728.5 713 753.5> 255 90<713 728.5> 320 113<113 249 249 249 363 397>
LayerCount: 2
Fore
SplineSet
227 603 m 0xff
 162 603 109 656 109 721 c 0
 109 786 162 839 227 839 c 0
 292 839 345 786 345 721 c 0
 345 656 292 603 227 603 c 0xff
227 749 m 0
 211 749 199 736 199 721 c 0
 199 705 211 693 227 693 c 0
 242 693 255 705 255 721 c 0
 255 736 242 749 227 749 c 0
377 0 m 2xe480
 150 0 l 2
 56 0 -20 76 -20 170 c 2
 -20 193 l 2
 -20 287 56 363 150 363 c 2
 320 363 l 1
 320 397 l 2
 320 428 295 453 263 453 c 2
 116 453 l 2
 85 453 59 479 59 510 c 2
 59 544 l 2
 59 557 69 567 82 567 c 2
 263 567 l 2
 357 567 433 491 433 397 c 2
 433 57 l 2
 433 25 408 0 377 0 c 2xe480
150 249 m 2
 119 249 93 224 93 193 c 2
 93 170 l 2
 93 139 119 113 150 113 c 2
 320 113 l 1
 320 249 l 1
 150 249 l 2
EndSplineSet
EndChar

StartChar: ecircumflex
Encoding: 234 234 128
Width: 603
Flags: MW
HStem: 0 113<123 283 170 283> 227 113<113 340 113 397 113 340> 453 114<154.5 283 170 283> 603 182<86 235 92 235 218.5 310 218.5 361>
VStem: 0 113<170 227 340 397> 340 113<340 397>
LayerCount: 2
Fore
SplineSet
310 603 m 2
 300 603 290 607 283 614 c 2
 227 670 l 1
 171 614 l 2
 164 607 154 603 143 603 c 2
 92 603 l 2
 80 603 68 610 64 622 c 0
 59 633 62 646 70 655 c 2
 182 767 l 2
 194 779 210 785 227 785 c 0
 243 785 259 779 271 767 c 2
 383 655 l 2
 392 646 394 633 390 622 c 0
 385 610 374 603 361 603 c 2
 310 603 l 2
283 0 m 2
 170 0 l 2
 76 0 0 76 0 170 c 2
 0 397 l 2
 0 491 76 567 170 567 c 2
 283 567 l 2
 377 567 453 491 453 397 c 2
 453 283 l 2
 453 252 428 227 397 227 c 2
 113 227 l 1
 113 170 l 2
 113 139 139 113 170 113 c 2
 283 113 l 2
 309 113 331 131 338 154 c 0
 341 164 350 170 359 170 c 2
 429 170 l 2
 443 170 454 158 452 144 c 0
 439 63 368 0 283 0 c 2
113 340 m 1
 340 340 l 1
 340 397 l 2
 340 428 315 453 283 453 c 2
 170 453 l 2
 139 453 113 428 113 397 c 2
 113 340 l 1
EndSplineSet
EndChar

StartChar: ccedilla
Encoding: 231 231 129
Width: 593
Flags: MW
HStem: -233 100<139.5 236 150 235> -126 99<194 250 211 250> 0 113<250 283 250 250> 453 114<154.5 283 170 283>
VStem: 0 113<170 397> 150 100<-27 0 -27 1 -27 1> 240 100<-131 -129.5>
LayerCount: 2
Fore
SplineSet
429 170 m 2xbc
 443 170 454 158 452 144 c 0
 439 63 368 0 283 0 c 2
 250 0 l 1xbc
 250 -27 l 1x7c
 273 -30 294 -40 310 -57 c 0x7a
 330 -77 340 -103 340 -131 c 0
 339 -187 292 -233 235 -233 c 2
 150 -233 l 2
 129 -233 112 -216 112 -196 c 2
 112 -171 l 2
 112 -150 129 -133 150 -133 c 2xba
 236 -133 l 2
 238 -133 240 -132 240 -130 c 0
 240 -129 240 -128 239 -127 c 0
 238 -127 238 -126 236 -126 c 2x7a
 211 -126 l 2
 177 -126 150 -99 150 -65 c 2x7c
 150 1 l 1
 65 11 0 83 0 170 c 2
 0 397 l 2
 0 491 76 567 170 567 c 2
 283 567 l 2
 368 567 439 504 452 423 c 0
 454 409 443 397 429 397 c 2
 359 397 l 2
 350 397 341 403 338 413 c 0
 331 436 309 453 283 453 c 2
 170 453 l 2
 139 453 113 428 113 397 c 2
 113 170 l 2
 113 139 139 113 170 113 c 2
 283 113 l 2
 309 113 331 131 338 154 c 0
 341 164 350 170 359 170 c 2
 429 170 l 2xbc
EndSplineSet
EndChar

StartChar: plus
Encoding: 43 43 130
Width: 767
Flags: MW
HStem: 227 113<28.5 252 39 252 365 578>
VStem: 252 113<14 227 340 553>
LayerCount: 2
Fore
SplineSet
578 340 m 2
 599 340 617 322 617 301 c 2
 617 266 l 2
 617 245 599 227 578 227 c 2
 365 227 l 1
 365 14 l 2
 365 -7 347 -25 326 -25 c 2
 291 -25 l 2
 269 -25 252 -7 252 14 c 2
 252 227 l 1
 39 227 l 2
 18 227 0 245 0 266 c 2
 0 301 l 2
 0 322 18 340 39 340 c 2
 252 340 l 1
 252 553 l 2
 252 574 269 592 291 592 c 2
 326 592 l 2
 347 592 365 574 365 553 c 2
 365 340 l 1
 578 340 l 2
EndSplineSet
EndChar

StartChar: minus
Encoding: 8722 8722 131
Width: 608
Flags: MW
HStem: 227 113<28.5 419 39 419>
VStem: 0 458<266 301 255.5 311.5>
LayerCount: 2
Fore
SplineSet
39 227 m 2
 18 227 0 245 0 266 c 2
 0 301 l 2
 0 322 18 340 39 340 c 2
 419 340 l 2
 441 340 458 322 458 301 c 2
 458 266 l 2
 458 245 441 227 419 227 c 2
 39 227 l 2
EndSplineSet
EndChar

StartChar: divide
Encoding: 247 247 132
Width: 631
Flags: MW
HStem: 227 113<28.5 442 39 442> 376 150<219.5 261>
VStem: 165 150<95 136.5 430.5 471.5>
LayerCount: 2
Fore
SplineSet
315 116 m 0
 315 157 282 191 240 191 c 0
 199 191 165 157 165 116 c 0
 165 74 199 41 240 41 c 0
 282 41 315 74 315 116 c 0
240 526 m 0
 282 526 315 492 315 451 c 0
 315 410 282 376 240 376 c 0
 199 376 165 410 165 451 c 0
 165 492 199 526 240 526 c 0
442 227 m 2
 39 227 l 2
 18 227 0 245 0 266 c 2
 0 301 l 2
 0 322 18 340 39 340 c 2
 442 340 l 2
 463 340 481 322 481 301 c 2
 481 266 l 2
 481 245 463 227 442 227 c 2
EndSplineSet
EndChar

StartChar: hyphen
Encoding: 45 45 133
Width: 567
Flags: MW
HStem: 187 113<18 392 25 392>
VStem: 0 417<212 275 205 282>
LayerCount: 2
Fore
SplineSet
417 275 m 6
 417 212 l 6
 417 198 405 187 392 187 c 6
 25 187 l 6
 11 187 0 198 0 212 c 6
 0 275 l 6
 0 289 11 300 25 300 c 6
 392 300 l 6
 405 300 417 289 417 275 c 6
EndSplineSet
EndChar

StartChar: braceleft
Encoding: 123 123 134
Width: 497
Flags: MW
HStem: -110 113<263 266 266 308> 734 113<251 308 266 308 266 308>
VStem: 108 113<48 229 229 240 508 689 689 692>
LayerCount: 2
Fore
SplineSet
266 -110 m 2
 178 -110 108 -39 108 48 c 2
 108 229 l 2
 108 251 99 272 83 288 c 0
 70 301 53 309 35 311 c 0
 15 314 0 330 0 350 c 2
 0 387 l 2
 0 406 15 423 35 426 c 0
 76 430 108 466 108 508 c 2
 108 689 l 2
 108 776 178 847 266 847 c 2
 308 847 l 2
 330 847 347 829 347 808 c 2
 347 773 l 2
 347 752 330 734 308 734 c 2
 263 734 l 2
 239 734 221 715 221 692 c 2
 221 482 l 2
 221 447 208 414 184 388 c 0
 177 381 170 374 161 368 c 1
 170 363 177 356 184 349 c 0
 208 323 221 290 221 255 c 2
 221 45 l 2
 221 22 239 3 263 3 c 2
 308 3 l 2
 330 3 347 -15 347 -36 c 2
 347 -71 l 2
 347 -93 330 -110 308 -110 c 2
 266 -110 l 2
EndSplineSet
EndChar

StartChar: parenleft
Encoding: 40 40 135
Width: 429
Flags: MW
HStem: -110 957<188.5 239 196 239>
VStem: 0 113<335 401.5 335 444.5>
LayerCount: 2
Fore
SplineSet
196 -110 m 2
 181 -110 167 -104 157 -92 c 0
 142 -76 128 -57 115 -38 c 0
 41 71 0 216 0 368 c 0
 0 521 41 666 115 775 c 0
 128 794 142 813 157 829 c 0
 167 840 181 847 196 847 c 2
 239 847 l 2
 256 847 270 837 276 822 c 0
 282 807 278 790 266 779 c 0
 245 760 226 737 208 712 c 0
 179 668 155 617 139 559 c 0
 122 499 113 435 113 368 c 0
 113 302 122 238 139 178 c 0
 155 120 179 69 208 25 c 0
 226 -1 245 -23 266 -42 c 0
 278 -53 282 -70 276 -85 c 0
 270 -100 256 -110 239 -110 c 2
 196 -110 l 2
EndSplineSet
EndChar

StartChar: bracketleft
Encoding: 91 91 136
Width: 390
Flags: MW
HStem: -110 113<69.5 200 113 200 113 200> 734 113<113 200 113 113>
VStem: 0 113<3 734 3 751 3 777.5>
LayerCount: 2
Fore
SplineSet
96 -110 m 2
 43 -110 0 -67 0 -14 c 2
 0 751 l 2
 0 804 43 847 96 847 c 2
 200 847 l 2
 222 847 240 829 240 808 c 2
 240 773 l 2
 240 752 222 734 200 734 c 2
 113 734 l 1
 113 3 l 1
 200 3 l 2
 222 3 240 -15 240 -36 c 2
 240 -71 l 2
 240 -93 222 -110 200 -110 c 2
 96 -110 l 2
EndSplineSet
EndChar

StartChar: quotedblleft
Encoding: 8220 8220 137
Width: 528
Flags: MW
HStem: 418 175<38.5 122 100 122 100 122 100 256 303 325> 637 100<125.5 160 135 160 338 363>
VStem: 0 175<471 540 456.5 602 456.5 639> 203 175<471 540 456.5 602 456.5 639>
LayerCount: 2
Fore
SplineSet
256 418 m 2
 227 418 203 442 203 471 c 2
 203 602 l 2
 203 676 263 737 338 737 c 2
 363 737 l 1
 363 637 l 1
 338 637 l 2
 318 637 303 621 303 602 c 2
 303 593 l 1
 325 593 l 2
 354 593 378 569 378 540 c 2
 378 471 l 2
 378 442 354 418 325 418 c 2
 256 418 l 2
122 418 m 2xe0
 53 418 l 2
 24 418 0 442 0 471 c 2
 0 602 l 2
 0 676 61 737 135 737 c 2
 160 737 l 1
 160 637 l 1
 135 637 l 2
 116 637 100 621 100 602 c 2
 100 593 l 1
 122 593 l 2
 152 593 175 569 175 540 c 2
 175 471 l 2
 175 442 152 418 122 418 c 2xe0
EndSplineSet
EndChar

StartChar: asterisk
Encoding: 42 42 138
Width: 518
Flags: MW
HStem: 409 353<104 195 172 258 172 258>
VStem: 129 110<651 719 651 731>
LayerCount: 2
Fore
SplineSet
258 409 m 1
 245 409 232 415 224 426 c 2
 184 481 l 1
 143 426 l 2
 135 415 122 409 109 409 c 0
 99 409 91 411 83 417 c 2
 64 431 l 2
 45 445 41 472 54 491 c 2
 95 546 l 1
 30 567 l 2
 7 574 -5 599 2 621 c 2
 9 644 l 2
 15 662 32 674 50 674 c 0
 55 674 59 673 64 672 c 2
 129 651 l 1
 129 719 l 2
 129 743 148 762 172 762 c 2
 195 762 l 2
 219 762 239 743 239 719 c 2
 239 651 l 1
 303 672 l 2
 308 673 312 674 317 674 c 0
 335 674 352 662 358 644 c 2
 365 621 l 2
 369 610 368 599 362 589 c 0
 357 578 348 571 337 567 c 2
 273 546 l 1
 313 491 l 2
 327 472 322 445 303 431 c 2
 284 417 l 2
 276 411 268 409 258 409 c 1
 258 409 l 1
EndSplineSet
EndChar

StartChar: parenright
Encoding: 41 41 139
Width: 429
Flags: MW
HStem: -110 957<31.5 83 40 83>
VStem: 166 113<335 401.5>
LayerCount: 2
Fore
SplineSet
83 -110 m 2
 40 -110 l 2
 23 -110 9 -100 3 -85 c 0
 -3 -70 1 -53 13 -42 c 0
 34 -23 53 -1 71 25 c 0
 100 69 124 120 140 178 c 0
 157 238 166 302 166 368 c 0
 166 435 157 499 140 559 c 0
 124 617 100 668 71 712 c 0
 53 737 34 760 13 779 c 0
 1 790 -3 807 3 822 c 0
 9 837 23 847 40 847 c 2
 83 847 l 2
 98 847 112 840 122 829 c 0
 137 813 151 794 164 775 c 0
 238 666 279 521 279 368 c 0
 279 216 238 71 164 -38 c 0
 151 -57 137 -76 122 -92 c 0
 112 -104 98 -110 83 -110 c 2
EndSplineSet
EndChar

StartChar: bracketright
Encoding: 93 93 140
Width: 390
Flags: MW
HStem: -110 113<29 127 40 127 40 144> 734 113<29 144 40 127>
VStem: 127 113<3 734 734 734>
LayerCount: 2
Fore
SplineSet
144 -110 m 2
 40 -110 l 2
 18 -110 0 -93 0 -71 c 2
 0 -36 l 2
 0 -15 18 3 40 3 c 2
 127 3 l 1
 127 734 l 1
 40 734 l 2
 18 734 0 752 0 773 c 2
 0 808 l 2
 0 829 18 847 40 847 c 2
 144 847 l 2
 197 847 240 804 240 751 c 2
 240 -14 l 2
 240 -67 197 -110 144 -110 c 2
EndSplineSet
EndChar

StartChar: braceright
Encoding: 125 125 141
Width: 497
Flags: MW
HStem: -110 113<28 84 39 81> 734 113<28 81 39 81 81 84>
VStem: 126 113<45 48 48 229 487 508 508 689>
LayerCount: 2
Fore
SplineSet
81 -110 m 2
 39 -110 l 2
 17 -110 0 -93 0 -71 c 2
 0 -36 l 2
 0 -15 17 3 39 3 c 2
 84 3 l 2
 108 3 126 22 126 45 c 2
 126 255 l 2
 126 290 139 323 163 349 c 0
 170 356 177 363 186 368 c 1
 177 374 170 381 163 388 c 0
 139 414 126 447 126 482 c 2
 126 692 l 2
 126 715 108 734 84 734 c 2
 39 734 l 2
 17 734 0 752 0 773 c 2
 0 808 l 2
 0 829 17 847 39 847 c 2
 81 847 l 2
 169 847 239 776 239 689 c 2
 239 508 l 2
 239 466 271 430 312 426 c 0
 332 423 347 406 347 387 c 2
 347 350 l 2
 347 330 332 314 312 311 c 0
 294 309 277 301 264 288 c 0
 248 272 239 251 239 229 c 2
 239 48 l 2
 239 -39 169 -110 81 -110 c 2
EndSplineSet
EndChar

StartChar: quotedblright
Encoding: 8221 8221 142
Width: 528
Flags: MW
HStem: 418 100<15 40 15 40 218 243> 562 175<38.5 122 53 75 53 256 256 278>
VStem: 0 175<615 684 516 698.5> 203 175<615 684 516 698.5>
LayerCount: 2
Fore
SplineSet
53 737 m 2
 122 737 l 2
 151 737 175 713 175 684 c 2
 175 553 l 2
 175 479 115 418 40 418 c 2
 15 418 l 1
 15 518 l 1
 40 518 l 2
 60 518 75 534 75 553 c 2
 75 562 l 1
 53 562 l 2
 24 562 0 586 0 615 c 2
 0 684 l 2
 0 713 24 737 53 737 c 2
256 737 m 2xf0
 325 737 l 2
 354 737 378 713 378 684 c 2
 378 553 l 2
 378 479 317 418 243 418 c 2
 218 418 l 1
 218 518 l 1
 243 518 l 2
 262 518 278 534 278 553 c 2
 278 562 l 1
 256 562 l 2
 226 562 203 586 203 615 c 2
 203 684 l 2
 203 713 226 737 256 737 c 2xf0
EndSplineSet
EndChar

StartChar: acircumflex
Encoding: 226 226 143
Width: 583
Flags: MW
HStem: 0 113<103 320 150 320 150 377> 249 114<134.5 320 150 320> 453 114<100.5 116 116 263> 603 182<86 235 92 235 218.5 310 218.5 361>
VStem: -20 113<170 193 154.5 240> 320 113<113 249 249 249 363 397>
LayerCount: 2
Fore
SplineSet
361 603 m 2
 310 603 l 2
 300 603 290 607 283 614 c 2
 227 670 l 1
 171 614 l 2
 164 607 154 603 143 603 c 2
 92 603 l 2
 80 603 68 610 64 622 c 0
 59 633 62 646 70 655 c 2
 182 767 l 2
 194 779 210 785 227 785 c 0
 243 785 259 779 271 767 c 2
 383 655 l 2
 392 646 394 633 390 622 c 0
 385 610 374 603 361 603 c 2
377 0 m 2
 150 0 l 2
 56 0 -20 76 -20 170 c 2
 -20 193 l 2
 -20 287 56 363 150 363 c 2
 320 363 l 1
 320 397 l 2
 320 428 295 453 263 453 c 2
 116 453 l 2
 85 453 59 479 59 510 c 2
 59 544 l 2
 59 557 69 567 82 567 c 2
 263 567 l 2
 357 567 433 491 433 397 c 2
 433 57 l 2
 433 25 408 0 377 0 c 2
150 249 m 2
 119 249 93 224 93 193 c 2
 93 170 l 2
 93 139 119 113 150 113 c 2
 320 113 l 1
 320 249 l 1
 150 249 l 2
EndSplineSet
EndChar

StartChar: ocircumflex
Encoding: 244 244 144
Width: 603
Flags: MW
HStem: 0 113<123 283 170 283> 453 114<154.5 283 170 283> 603 182<86 235 92 235 218.5 310 218.5 361>
VStem: 0 113<170 397> 340 113<170 397>
LayerCount: 2
Fore
SplineSet
361 603 m 2
 310 603 l 2
 300 603 290 607 283 614 c 2
 227 670 l 1
 171 614 l 2
 164 607 154 603 143 603 c 2
 92 603 l 2
 80 603 68 610 64 622 c 0
 59 633 62 646 70 655 c 2
 182 767 l 2
 194 779 210 785 227 785 c 0
 243 785 259 779 271 767 c 2
 383 655 l 2
 392 646 394 633 390 622 c 0
 385 610 374 603 361 603 c 2
283 0 m 2
 170 0 l 2
 76 0 0 76 0 170 c 2
 0 397 l 2
 0 491 76 567 170 567 c 2
 283 567 l 2
 377 567 453 491 453 397 c 2
 453 170 l 2
 453 76 377 0 283 0 c 2
283 453 m 2
 170 453 l 2
 139 453 113 428 113 397 c 2
 113 170 l 2
 113 139 139 113 170 113 c 2
 283 113 l 2
 315 113 340 139 340 170 c 2
 340 397 l 2
 340 428 315 453 283 453 c 2
EndSplineSet
EndChar

StartChar: ucircumflex
Encoding: 251 251 145
Width: 603
Flags: MW
HStem: 0 113<123 283 170 283> 547 20G<23 57 57 72.5 397 431 431 437> 603 182<86 235 92 235 218.5 310 218.5 361>
VStem: 0 113<170 510> 340 113<170 510 510 525.5>
LayerCount: 2
Fore
SplineSet
361 603 m 2
 310 603 l 2
 300 603 290 607 283 614 c 2
 227 670 l 1
 171 614 l 2
 164 607 154 603 143 603 c 2
 92 603 l 2
 80 603 68 610 64 622 c 0
 59 633 62 646 70 655 c 2
 182 767 l 2
 194 779 210 785 227 785 c 0
 243 785 259 779 271 767 c 2
 383 655 l 2
 392 646 394 633 390 622 c 0
 385 610 374 603 361 603 c 2
283 0 m 2
 170 0 l 2
 76 0 0 76 0 170 c 2
 0 544 l 2
 0 557 10 567 23 567 c 2
 57 567 l 2
 88 567 113 541 113 510 c 2
 113 170 l 2
 113 139 139 113 170 113 c 2
 283 113 l 2
 315 113 340 139 340 170 c 2
 340 510 l 2
 340 541 365 567 397 567 c 2
 431 567 l 2
 443 567 453 557 453 544 c 2
 453 170 l 2
 453 76 377 0 283 0 c 2
EndSplineSet
EndChar

StartChar: icircumflex
Encoding: 238 238 146
Width: 271
Flags: MW
HStem: 0 21G<16.5 23 23 91> 547 20G<23 91 91 97> 603 182<-85 64 -79 64 47.5 139 47.5 190>
VStem: 0 113<23 544>
LayerCount: 2
Fore
SplineSet
190 603 m 2
 139 603 l 2
 129 603 119 607 112 614 c 2
 56 670 l 1
 0 614 l 2
 -7 607 -17 603 -28 603 c 2
 -79 603 l 2
 -91 603 -103 610 -107 622 c 0
 -112 633 -109 646 -101 655 c 2
 11 767 l 2
 23 779 39 785 56 785 c 0
 72 785 88 779 100 767 c 2
 212 655 l 2
 221 646 223 633 219 622 c 0
 214 610 203 603 190 603 c 2
91 567 m 2
 103 567 113 557 113 544 c 2
 113 23 l 2
 113 10 103 0 91 0 c 2
 23 0 l 2
 10 0 0 10 0 23 c 2
 0 544 l 2
 0 557 10 567 23 567 c 2
 91 567 l 2
EndSplineSet
EndChar

StartChar: Acircumflex
Encoding: 194 194 147
Width: 626
Flags: MW
HStem: 0 21G<16.5 23 23 57 403.5 419 419 453> 261 113<113 363 113 363> 624 113<154.5 306 170 306> 766 182<94 243 100 243 226.5 318 226.5 369>
VStem: 0 113<41 57 57 261 374 567> 363 113<57 261 261 261 374 567>
LayerCount: 2
Fore
SplineSet
369 766 m 2
 318 766 l 2
 308 766 298 770 291 777 c 2
 235 833 l 1
 179 777 l 2
 172 770 162 766 151 766 c 2
 100 766 l 2
 88 766 76 773 72 785 c 0
 67 796 70 809 78 818 c 2
 190 930 l 2
 202 942 218 948 235 948 c 0
 251 948 267 942 279 930 c 2
 391 818 l 2
 400 809 402 796 398 785 c 0
 393 773 382 766 369 766 c 2
306 737 m 2xec
 400 737 476 661 476 567 c 2
 476 23 l 2
 476 10 466 0 453 0 c 2
 419 0 l 2
 388 0 363 25 363 57 c 2
 363 261 l 1
 113 261 l 1
 113 57 l 2
 113 25 88 0 57 0 c 2
 23 0 l 2
 10 0 0 10 0 23 c 2
 0 567 l 2
 0 661 76 737 170 737 c 2
 306 737 l 2xec
113 374 m 1
 363 374 l 1
 363 567 l 2
 363 598 337 624 306 624 c 2
 170 624 l 2
 139 624 113 598 113 567 c 2
 113 374 l 1
EndSplineSet
EndChar

StartChar: Ecircumflex
Encoding: 202 202 148
Width: 606
Flags: MW
HStem: 0 113<41 419 113 419 419 435 113 453> 317 114<113 351 351 367 113 385 113 351> 624 113<113 419 113 113> 766 182<94 243 100 243 226.5 318 226.5 369>
VStem: 0 113<113 317 431 624>
LayerCount: 2
Fore
SplineSet
369 766 m 2
 318 766 l 2
 308 766 298 770 291 777 c 2
 235 833 l 1
 179 777 l 2
 172 770 162 766 151 766 c 2
 100 766 l 2
 88 766 76 773 72 785 c 0
 67 796 70 809 78 818 c 2
 190 930 l 2
 202 942 218 948 235 948 c 0
 251 948 267 942 279 930 c 2
 391 818 l 2
 400 809 402 796 398 785 c 0
 393 773 382 766 369 766 c 2
476 680 m 2xe8
 476 649 451 624 419 624 c 2
 113 624 l 1
 113 431 l 1
 351 431 l 2
 383 431 408 405 408 374 c 2
 408 340 l 2
 408 328 398 317 385 317 c 2
 113 317 l 1
 113 113 l 1
 419 113 l 2
 451 113 476 88 476 57 c 2
 476 23 l 2
 476 10 466 0 453 0 c 2
 57 0 l 2
 25 0 0 25 0 57 c 2
 0 680 l 2
 0 712 25 737 57 737 c 2
 453 737 l 2
 466 737 476 727 476 714 c 2
 476 680 l 2xe8
EndSplineSet
EndChar

StartChar: Icircumflex
Encoding: 206 206 149
Width: 261
Flags: MW
HStem: 0 21G<14.5 21 21 89> 717 20G<21 55 55 70.5> 766 182<-90 59 -84 59 42.5 134 42.5 185>
VStem: -2 113<23 680>
LayerCount: 2
Fore
SplineSet
185 766 m 2
 134 766 l 2
 124 766 114 770 107 777 c 2
 51 833 l 1
 -5 777 l 2
 -12 770 -22 766 -33 766 c 2
 -84 766 l 2
 -96 766 -108 773 -112 785 c 0
 -117 796 -114 809 -106 818 c 2
 6 930 l 2
 18 942 34 948 51 948 c 0
 67 948 83 942 95 930 c 2
 207 818 l 2
 216 809 218 796 214 785 c 0
 209 773 198 766 185 766 c 2
89 0 m 2
 21 0 l 2
 8 0 -2 10 -2 23 c 2
 -2 714 l 2
 -2 727 8 737 21 737 c 2
 55 737 l 2
 86 737 111 712 111 680 c 2xd0
 111 23 l 2
 111 10 101 0 89 0 c 2
EndSplineSet
EndChar

StartChar: Aring
Encoding: 197 197 150
Width: 626
Flags: MW
HStem: 0 21G<16.5 23 23 57 403.5 419 419 453> 261 113<113 363 113 363> 624 113<154.5 306 170 306> 758 90<230 245.5 230 270.5> 904 90<230 245.5>
VStem: 0 113<41 57 57 261 374 567> 120 90<868 883.5 868 908.5> 266 90<868 883.5> 363 113<57 261 261 261 374 567>
LayerCount: 2
Fore
SplineSet
238 758 m 0
 173 758 120 811 120 876 c 0
 120 941 173 994 238 994 c 0
 303 994 356 941 356 876 c 0
 356 811 303 758 238 758 c 0
238 904 m 0
 222 904 210 891 210 876 c 0
 210 860 222 848 238 848 c 0
 253 848 266 860 266 876 c 0
 266 891 253 904 238 904 c 0
306 737 m 2xec80
 400 737 476 661 476 567 c 2
 476 23 l 2
 476 10 466 0 453 0 c 2
 419 0 l 2
 388 0 363 25 363 57 c 2
 363 261 l 1
 113 261 l 1
 113 57 l 2
 113 25 88 0 57 0 c 2
 23 0 l 2
 10 0 0 10 0 23 c 2
 0 567 l 2
 0 661 76 737 170 737 c 2
 306 737 l 2xec80
113 374 m 1
 363 374 l 1
 363 567 l 2
 363 598 337 624 306 624 c 2
 170 624 l 2
 139 624 113 598 113 567 c 2
 113 374 l 1
EndSplineSet
EndChar

StartChar: ring
Encoding: 730 730 151
Width: 386
Flags: MW
HStem: 758 90<110 125.5 110 150.5> 904 90<110 125.5>
VStem: 0 90<868 883.5 868 908.5> 146 90<868 883.5>
LayerCount: 2
Fore
SplineSet
118 758 m 0
 53 758 0 811 0 876 c 0
 0 941 53 994 118 994 c 0
 183 994 236 941 236 876 c 0
 236 811 183 758 118 758 c 0
118 904 m 0
 102 904 90 891 90 876 c 0
 90 860 102 848 118 848 c 0
 133 848 146 860 146 876 c 0
 146 891 133 904 118 904 c 0
EndSplineSet
EndChar

StartChar: Ccedilla
Encoding: 199 199 152
Width: 626
Flags: MW
HStem: -233 100<164.5 261 175 260> -126 99<219 275 236 275> 0 113<123 306 170 175 275 306 275 275> 624 113<154.5 306 170 306>
VStem: 0 113<170 567> 175 100<-27 0 -27 0 -27 0> 265 100<-131 -129.5> 363 113<170 204 204 219.5 533 567>
LayerCount: 2
Fore
SplineSet
385 510 m 2xbd
 373 510 363 520 363 533 c 2
 363 567 l 2
 363 598 337 624 306 624 c 2
 170 624 l 2
 139 624 113 598 113 567 c 2
 113 170 l 2
 113 139 139 113 170 113 c 2
 306 113 l 2
 337 113 363 139 363 170 c 2
 363 204 l 2
 363 235 388 261 419 261 c 2
 453 261 l 2
 466 261 476 251 476 238 c 2
 476 170 l 2
 476 76 400 0 306 0 c 2
 275 0 l 1xbd
 275 -27 l 1x7d
 298 -30 319 -40 335 -57 c 0x7a
 355 -77 365 -103 365 -131 c 0
 364 -187 317 -233 260 -233 c 2
 175 -233 l 2
 154 -233 137 -216 137 -196 c 2
 137 -171 l 2
 137 -150 154 -133 175 -133 c 2xba
 261 -133 l 2
 263 -133 265 -132 265 -130 c 0
 265 -129 265 -128 264 -127 c 0
 263 -127 263 -126 261 -126 c 2x7a
 236 -126 l 2
 202 -126 175 -99 175 -65 c 2x7d
 175 0 l 1
 170 0 l 2
 76 0 0 76 0 170 c 2
 0 567 l 2
 0 661 76 737 170 737 c 2
 306 737 l 2
 400 737 476 661 476 567 c 2
 476 533 l 2
 476 520 466 510 453 510 c 2
 385 510 l 2xbd
EndSplineSet
EndChar

StartChar: cedilla
Encoding: 184 184 153
Width: 378
Flags: MW
HStem: -233 100<27.5 124 38 123> -126 178<82 99 99 124>
VStem: 38 100<-27 52 -27 52 -27 52> 128 100<-131 -129.5>
LayerCount: 2
Fore
SplineSet
123 -233 m 2xa0
 38 -233 l 2
 17 -233 0 -216 0 -196 c 2
 0 -171 l 2
 0 -150 17 -133 38 -133 c 2xa0
 124 -133 l 2
 126 -133 128 -132 128 -130 c 0
 128 -129 128 -128 127 -127 c 0
 126 -127 126 -126 124 -126 c 2x50
 99 -126 l 2
 65 -126 38 -99 38 -65 c 2
 38 52 l 1
 138 52 l 1
 138 -27 l 1x60
 161 -30 182 -40 198 -57 c 0x50
 218 -77 228 -103 228 -131 c 0x90
 227 -187 180 -233 123 -233 c 2xa0
EndSplineSet
EndChar

StartChar: Idieresis
Encoding: 207 207 154
Width: 267
Flags: MW
HStem: 772 136<-51 -13 130.5 168>
VStem: -100 101 114 103
LayerCount: 2
Fore
SplineSet
92 0 m 2
 104 0 114 10 114 23 c 2
 114 680 l 2
 114 712 89 737 58 737 c 2
 24 737 l 2
 11 737 1 727 1 714 c 2
 1 23 l 2
 1 10 11 0 24 0 c 2
 92 0 l 2
-32 908 m 0
 6 908 36 878 36 840 c 0
 36 802 6 772 -32 772 c 0
 -70 772 -100 802 -100 840 c 0
 -100 878 -70 908 -32 908 c 0
149 908 m 0
 187 908 217 878 217 840 c 0
 217 802 187 772 149 772 c 0
 112 772 81 802 81 840 c 0
 81 878 112 908 149 908 c 0
EndSplineSet
EndChar

StartChar: quoteleft
Encoding: 8216 8216 155
Width: 325
Flags: MW
HStem: 418 175<38.5 122 100 122 100 122> 637 100<125.5 160 135 160>
VStem: 0 175<471 540 456.5 602 456.5 639>
LayerCount: 2
Fore
SplineSet
122 418 m 2
 53 418 l 2
 24 418 0 442 0 471 c 2
 0 602 l 2
 0 676 61 737 135 737 c 2
 160 737 l 1
 160 637 l 1
 135 637 l 2
 116 637 100 621 100 602 c 2
 100 593 l 1
 122 593 l 2
 152 593 175 569 175 540 c 2
 175 471 l 2
 175 442 152 418 122 418 c 2
EndSplineSet
EndChar

StartChar: quoteright
Encoding: 8217 8217 156
Width: 325
Flags: MW
HStem: 418 100<15 40 15 40> 562 175<38 122 53 75>
VStem: 0 175<615 684 516 698.5>
LayerCount: 2
Fore
SplineSet
53 737 m 2
 122 737 l 2
 151 737 175 713 175 684 c 2
 175 553 l 2
 175 479 114 418 40 418 c 2
 15 418 l 1
 15 518 l 1
 40 518 l 2
 59 518 75 534 75 553 c 2
 75 562 l 1
 53 562 l 2
 23 562 0 586 0 615 c 2
 0 684 l 2
 0 713 23 737 53 737 c 2
EndSplineSet
EndChar

StartChar: asciitilde
Encoding: 126 126 157
Width: 460
Flags: MW
HStem: 777 80 804 79
VStem: 1 308
LayerCount: 2
Fore
SplineSet
248 887 m 2xa0
 287 887 l 2
 302 887 313 872 308 857 c 0
 300 832 284 810 260 795 c 0
 227 774 186 771 150 788 c 2xa0
 125 800 l 2
 109 808 96 802 91 799 c 0
 88 797 83 792 79 785 c 0
 75 778 68 774 59 774 c 2
 23 774 l 2
 7 774 -3 788 1 803 c 0
 9 829 26 851 49 866 c 0
 82 887 123 889 159 872 c 2x60
 185 860 l 2
 200 853 213 859 218 862 c 0
 221 864 227 869 231 876 c 0
 234 883 240 887 248 887 c 2xa0
EndSplineSet
EndChar

StartChar: circumflex
Encoding: 710 710 158
Width: 481
Flags: MW
HStem: 603 182<25 174 31 174 157.5 249 157.5 300>
VStem: 1 330
LayerCount: 2
Fore
SplineSet
300 603 m 2
 249 603 l 2
 239 603 229 607 222 614 c 2
 166 670 l 1
 110 614 l 2
 103 607 93 603 82 603 c 2
 31 603 l 2
 19 603 7 610 3 622 c 0
 -2 633 1 646 9 655 c 2
 121 767 l 2
 133 779 149 785 166 785 c 0
 182 785 198 779 210 767 c 2
 322 655 l 2
 331 646 333 633 329 622 c 0
 324 610 313 603 300 603 c 2
EndSplineSet
EndChar

StartChar: Ucircumflex
Encoding: 219 219 159
Width: 626
Flags: MW
HStem: 0 113<123 306 170 306> 717 20G<23 57 57 72.5 419 453 453 459.5> 774 182<93 242 99 242 225.5 317 225.5 368>
VStem: 0 113<170 680> 363 113<170 680 680 696>
LayerCount: 2
Fore
SplineSet
306 0 m 2
 170 0 l 2
 76 0 0 76 0 170 c 2
 0 714 l 2
 0 727 10 737 23 737 c 2
 57 737 l 2
 88 737 113 712 113 680 c 2
 113 170 l 2
 113 139 139 113 170 113 c 2
 306 113 l 2
 337 113 363 139 363 170 c 2
 363 680 l 2
 363 712 388 737 419 737 c 2
 453 737 l 2
 466 737 476 727 476 714 c 2
 476 170 l 2
 476 76 400 0 306 0 c 2
368 774 m 2
 317 774 l 2
 307 774 297 778 290 785 c 2
 234 841 l 1
 178 785 l 2
 171 778 161 774 150 774 c 2
 99 774 l 2
 87 774 75 781 71 793 c 0
 66 804 69 817 77 826 c 2
 189 938 l 2
 201 950 217 956 234 956 c 0
 250 956 266 950 278 938 c 2
 390 826 l 2
 399 817 401 804 397 793 c 0
 392 781 381 774 368 774 c 2
EndSplineSet
EndChar

StartChar: Ocircumflex
Encoding: 212 212 160
Width: 626
Flags: MW
HStem: 0 113<123 306 170 306> 624 113<154.5 306 170 306> 774 182<101 250 107 250 233.5 325 233.5 376>
VStem: 0 113<170 567> 363 113<170 567>
LayerCount: 2
Fore
SplineSet
306 0 m 2
 170 0 l 2
 76 0 0 76 0 170 c 2
 0 567 l 2
 0 661 76 737 170 737 c 2
 306 737 l 2
 400 737 476 661 476 567 c 2
 476 170 l 2
 476 76 400 0 306 0 c 2
170 624 m 2
 139 624 113 598 113 567 c 2
 113 170 l 2
 113 139 139 113 170 113 c 2
 306 113 l 2
 337 113 363 139 363 170 c 2
 363 567 l 2
 363 598 337 624 306 624 c 2
 170 624 l 2
376 774 m 2
 325 774 l 2
 315 774 305 778 298 785 c 2
 242 841 l 1
 186 785 l 2
 179 778 169 774 158 774 c 2
 107 774 l 2
 95 774 83 781 79 793 c 0
 74 804 77 817 85 826 c 2
 197 938 l 2
 209 950 225 956 242 956 c 0
 258 956 274 950 286 938 c 2
 398 826 l 2
 407 817 409 804 405 793 c 0
 400 781 389 774 376 774 c 2
EndSplineSet
EndChar

StartChar: quotesingle
Encoding: 39 39 161
Width: 263
Flags: MW
HStem: 535 202<28.5 74 39 74> 717 20G<39 74 74 84.5>
VStem: 0 113<574 698>
LayerCount: 2
Fore
SplineSet
39 535 m 2xa0
 18 535 0 552 0 574 c 2
 0 698 l 2
 0 719 18 737 39 737 c 2
 74 737 l 2
 95 737 113 719 113 698 c 2
 113 574 l 2
 113 552 95 535 74 535 c 2
 39 535 l 2xa0
EndSplineSet
EndChar

StartChar: quotedbl
Encoding: 34 34 162
Width: 413
Flags: MW
HStem: 535 202<28.5 74 39 74 39 189 189 224>
VStem: 0 113<574 698> 150 113<574 698>
LayerCount: 2
Fore
SplineSet
39 535 m 2
 18 535 0 552 0 574 c 2
 0 698 l 2
 0 719 18 737 39 737 c 2
 74 737 l 2
 95 737 113 719 113 698 c 2
 113 574 l 2
 113 552 95 535 74 535 c 2
 39 535 l 2
189 535 m 2
 168 535 150 552 150 574 c 2
 150 698 l 2
 150 719 168 737 189 737 c 2
 224 737 l 2
 245 737 263 719 263 698 c 2
 263 574 l 2
 263 552 245 535 224 535 c 2
 189 535 l 2
EndSplineSet
EndChar

StartChar: slash
Encoding: 47 47 163
Width: 525
Flags: MW
HStem: -25 787<33.5 335 40 335>
VStem: 1 373
LayerCount: 2
Fore
SplineSet
40 -25 m 6
 27 -25 15 -19 8 -8 c 4
 1 2 -1 16 3 28 c 6
 261 736 l 6
 267 752 282 762 298 762 c 6
 335 762 l 6
 348 762 360 756 367 745 c 4
 374 735 376 721 372 709 c 6
 114 1 l 6
 108 -15 93 -25 77 -25 c 6
 40 -25 l 6
EndSplineSet
EndChar

StartChar: backslash
Encoding: 92 92 164
Width: 525
Flags: MW
HStem: -25 787<40 298 40 335>
VStem: 1 373
LayerCount: 2
Fore
SplineSet
335 -25 m 2
 298 -25 l 2
 282 -25 267 -15 261 1 c 2
 3 709 l 2
 -1 721 1 735 8 745 c 0
 15 756 27 762 40 762 c 2
 77 762 l 2
 93 762 108 752 114 736 c 2
 372 28 l 2
 376 16 374 2 367 -8 c 0
 360 -19 348 -25 335 -25 c 2
EndSplineSet
EndChar

StartChar: bar
Encoding: 124 124 165
Width: 263
Flags: MW
HStem: -182 1101<28.5 74 39 74>
VStem: 0 113<-143 880>
LayerCount: 2
Fore
SplineSet
39 -182 m 2
 18 -182 0 -164 0 -143 c 2
 0 880 l 2
 0 901 18 919 39 919 c 2
 74 919 l 2
 95 919 113 901 113 880 c 2
 113 -143 l 2
 113 -164 95 -182 74 -182 c 2
 39 -182 l 2
EndSplineSet
EndChar

StartChar: less
Encoding: 60 60 166
Width: 709
Flags: MW
HStem: -8 753<495 505.5>
VStem: 0 558
LayerCount: 2
Fore
SplineSet
499 -8 m 0
 491 -8 483 -6 477 -1 c 2
 28 315 l 2
 10 327 0 347 0 368 c 0
 0 390 10 410 28 422 c 2
 477 738 l 2
 483 743 491 745 499 745 c 0
 512 745 524 739 531 728 c 2
 551 700 l 2
 564 682 559 658 542 645 c 2
 148 368 l 1
 542 91 l 2
 559 79 564 55 551 37 c 2
 531 9 l 2
 524 -2 512 -8 499 -8 c 0
EndSplineSet
EndChar

StartChar: greater
Encoding: 62 62 167
Width: 709
Flags: MW
HStem: -8 753<53.5 64>
VStem: 1 558
LayerCount: 2
Fore
SplineSet
60 -8 m 0
 47 -8 35 -2 28 9 c 2
 8 37 l 2
 -5 55 0 79 17 91 c 2
 411 368 l 1
 17 645 l 2
 0 658 -5 682 8 700 c 2
 28 728 l 2
 35 739 47 745 60 745 c 0
 68 745 76 743 82 738 c 2
 531 422 l 2
 549 410 559 390 559 368 c 0
 559 347 549 327 531 315 c 2
 82 -1 l 2
 76 -6 68 -8 60 -8 c 0
EndSplineSet
EndChar

StartChar: equal
Encoding: 61 61 168
Width: 586
Flags: MW
HStem: 142 113<28.5 397 39 397> 311 113<28.5 397 39 397>
VStem: 0 436<182 216 171 227 351 385 171 396>
LayerCount: 2
Fore
SplineSet
39 142 m 2
 18 142 0 160 0 182 c 2
 0 216 l 2
 0 238 18 255 39 255 c 2
 397 255 l 2
 418 255 436 238 436 216 c 2
 436 182 l 2
 436 160 418 142 397 142 c 2
 39 142 l 2
39 311 m 2
 18 311 0 329 0 351 c 2
 0 385 l 2
 0 407 18 424 39 424 c 2
 397 424 l 2
 418 424 436 407 436 385 c 2
 436 351 l 2
 436 329 418 311 397 311 c 2
 39 311 l 2
EndSplineSet
EndChar

StartChar: multiply
Encoding: 215 215 169
Width: 634
Flags: MW
HStem: 42 483<58.5 69 414.5 425>
VStem: 0 484<100 110.5 456.5 467>
LayerCount: 2
Fore
SplineSet
322 283 m 1
 472 133 l 2
 480 126 484 116 484 105 c 0
 484 95 480 85 472 78 c 2
 448 53 l 2
 440 46 430 42 420 42 c 0
 409 42 400 46 392 53 c 2
 242 204 l 1
 91 53 l 2
 84 46 74 42 64 42 c 0
 53 42 43 46 36 53 c 2
 11 78 l 2
 4 85 0 95 0 105 c 0
 0 116 4 126 11 133 c 2
 162 283 l 1
 11 434 l 2
 4 441 0 451 0 462 c 0
 0 472 4 482 11 489 c 2
 36 514 l 2
 43 521 53 525 64 525 c 0
 74 525 84 521 91 514 c 2
 242 363 l 1
 392 514 l 2
 400 521 409 525 420 525 c 0
 430 525 440 521 448 514 c 2
 472 489 l 2
 480 482 484 472 484 462 c 0
 484 451 480 441 472 434 c 2
 322 283 l 1
EndSplineSet
EndChar

StartChar: asciicircum
Encoding: 94 94 170
Width: 481
Flags: MW
HStem: 766 182<25 174 31 174 157.5 249 157.5 300>
VStem: 1 330
LayerCount: 2
Fore
SplineSet
300 766 m 2
 249 766 l 2
 239 766 229 770 222 777 c 2
 166 833 l 1
 110 777 l 2
 103 770 93 766 82 766 c 2
 31 766 l 2
 19 766 7 773 3 785 c 0
 -2 796 1 809 9 818 c 2
 121 930 l 2
 133 942 149 948 166 948 c 0
 182 948 198 942 210 930 c 2
 322 818 l 2
 331 809 333 796 329 785 c 0
 324 773 313 766 300 766 c 2
EndSplineSet
EndChar

StartChar: plusminus
Encoding: 177 177 171
Width: 608
Flags: MW
HStem: 321 113<28.5 172 39 172 285 418>
VStem: 172 113<188 321 434 567>
LayerCount: 2
Fore
SplineSet
418 434 m 2
 439 434 457 416 457 395 c 2
 457 360 l 2
 457 339 439 321 418 321 c 2
 285 321 l 1
 285 188 l 2
 285 167 267 149 246 149 c 2
 211 149 l 2
 189 149 172 167 172 188 c 2
 172 321 l 1
 39 321 l 2
 18 321 0 339 0 360 c 2
 0 395 l 2
 0 416 18 434 39 434 c 2
 172 434 l 1
 172 567 l 2
 172 588 189 606 211 606 c 2
 246 606 l 2
 267 606 285 588 285 567 c 2
 285 434 l 1
 418 434 l 2
39 1 m 2
 419 1 l 2
 441 1 458 19 458 40 c 2
 458 75 l 2
 458 96 441 114 419 114 c 2
 39 114 l 2
 18 114 0 96 0 75 c 2
 0 40 l 2
 0 19 18 1 39 1 c 2
EndSplineSet
EndChar
